<svg width="1340" height="607" viewBox="0 0 1340 607" fill="none" xmlns="http://www.w3.org/2000/svg">
<g clip-path="url(#clip0_226_5304)">
<path d="M139.634 91.506V82.7809H141.188C141.585 82.4163 141.921 81.9813 142.194 81.4759C142.476 80.9704 142.712 80.3697 142.903 79.6737C143.102 78.9776 143.267 78.1656 143.4 77.2376C143.532 76.3013 143.648 75.2324 143.748 74.0309L144.344 66.9091H157.32V82.7809H160.254V91.506H156.624V86H143.313V91.506H139.634ZM145.165 82.7809H153.691V70.0909H147.675L147.278 74.0309C147.087 76.0361 146.847 77.7762 146.557 79.2511C146.267 80.7177 145.803 81.8943 145.165 82.7809ZM166.828 80.7923L175.242 66.9091H179.244V86H175.602V72.1044L167.225 86H163.186V66.9091H166.828V80.7923ZM181.676 91.506V82.7809H183.23C183.628 82.4163 183.963 81.9813 184.237 81.4759C184.518 80.9704 184.755 80.3697 184.945 79.6737C185.144 78.9776 185.31 78.1656 185.442 77.2376C185.575 76.3013 185.691 75.2324 185.79 74.0309L186.387 66.9091H199.363V82.7809H202.296V91.506H198.667V86H185.355V91.506H181.676ZM187.207 82.7809H195.733V70.0909H189.718L189.32 74.0309C189.13 76.0361 188.889 77.7762 188.599 79.2511C188.309 80.7177 187.845 81.8943 187.207 82.7809ZM204.01 86L211.406 76.2308L204.097 66.9091H208.423L214.326 74.8388H215.656V66.9091H219.372V74.8388H220.665L226.569 66.9091H230.894L223.623 76.2308L230.981 86H226.569L220.615 78.0455H219.372V86H215.656V78.0455H214.413L208.423 86H204.01ZM237.701 80.7923L246.116 66.9091H250.118V86H246.476V72.1044L238.099 86H234.06V66.9091H237.701V80.7923ZM252.047 70.1158V66.9091H268.154V70.1158H261.928V86H258.298V70.1158H252.047ZM276.052 86.4226C274.842 86.4226 273.749 86.1989 272.771 85.7514C271.793 85.2957 271.018 84.637 270.447 83.7752C269.883 82.9135 269.602 81.857 269.602 80.6058C269.602 79.5286 269.809 78.642 270.223 77.946C270.637 77.25 271.197 76.699 271.901 76.293C272.605 75.887 273.392 75.5804 274.262 75.3732C275.132 75.1661 276.019 75.0086 276.922 74.9009C278.066 74.7683 278.994 74.6606 279.706 74.5778C280.419 74.4866 280.937 74.3416 281.26 74.1428C281.583 73.9439 281.745 73.6207 281.745 73.1733V73.0863C281.745 72.0008 281.438 71.1598 280.825 70.5632C280.22 69.9666 279.317 69.6683 278.115 69.6683C276.864 69.6683 275.878 69.9459 275.157 70.5011C274.445 71.0479 273.952 71.657 273.678 72.3281L270.186 71.5327C270.6 70.3726 271.205 69.4363 272 68.7237C272.804 68.0028 273.728 67.4808 274.772 67.1577C275.816 66.8262 276.914 66.6605 278.066 66.6605C278.828 66.6605 279.636 66.7517 280.489 66.9339C281.351 67.108 282.155 67.4311 282.901 67.9034C283.655 68.3757 284.272 69.051 284.753 69.9293C285.233 70.7994 285.473 71.9304 285.473 73.3224V86H281.844V83.3899H281.695C281.455 83.8705 281.094 84.3428 280.614 84.8068C280.133 85.2708 279.516 85.6561 278.762 85.9627C278.008 86.2693 277.105 86.4226 276.052 86.4226ZM276.86 83.4396C277.888 83.4396 278.766 83.2366 279.495 82.8306C280.233 82.4246 280.792 81.8943 281.173 81.2397C281.562 80.5768 281.757 79.8684 281.757 79.1143V76.6534C281.625 76.786 281.368 76.9103 280.987 77.0263C280.614 77.134 280.187 77.2293 279.706 77.3121C279.226 77.3867 278.758 77.4571 278.302 77.5234C277.846 77.5814 277.465 77.6312 277.158 77.6726C276.438 77.7637 275.779 77.917 275.182 78.1325C274.594 78.3479 274.122 78.6586 273.765 79.0646C273.417 79.4624 273.243 79.9927 273.243 80.6555C273.243 81.5753 273.583 82.2713 274.262 82.7436C274.942 83.2076 275.808 83.4396 276.86 83.4396ZM288.219 86L288.207 82.7809H288.89C289.421 82.7809 289.864 82.669 290.22 82.4453C290.585 82.2133 290.883 81.8239 291.115 81.277C291.347 80.7301 291.525 79.9761 291.65 79.0149C291.774 78.0455 291.865 76.8274 291.923 75.3608L292.259 66.9091H305.583V86H301.941V70.1158H295.702L295.403 76.6037C295.329 78.178 295.167 79.5535 294.919 80.7301C294.678 81.9067 294.326 82.8886 293.862 83.6758C293.398 84.4547 292.801 85.0388 292.072 85.4283C291.343 85.8094 290.457 86 289.413 86H288.219ZM318.401 86V66.9091H322.118V74.9134H323.907L330.209 66.9091H334.808L327.412 76.1935L334.895 86H330.283L324.529 78.3686H322.118V86H318.401ZM344.337 86.3853C342.547 86.3853 340.985 85.9751 339.651 85.1548C338.317 84.3345 337.281 83.1869 336.544 81.712C335.806 80.2371 335.438 78.5136 335.438 76.5415C335.438 74.5612 335.806 72.8294 336.544 71.3462C337.281 69.863 338.317 68.7113 339.651 67.891C340.985 67.0707 342.547 66.6605 344.337 66.6605C346.126 66.6605 347.688 67.0707 349.022 67.891C350.356 68.7113 351.392 69.863 352.13 71.3462C352.867 72.8294 353.236 74.5612 353.236 76.5415C353.236 78.5136 352.867 80.2371 352.13 81.712C351.392 83.1869 350.356 84.3345 349.022 85.1548C347.688 85.9751 346.126 86.3853 344.337 86.3853ZM344.349 83.2656C345.509 83.2656 346.47 82.959 347.233 82.3459C347.995 81.7327 348.558 80.9165 348.923 79.8974C349.296 78.8782 349.482 77.7554 349.482 76.5291C349.482 75.3111 349.296 74.1925 348.923 73.1733C348.558 72.1458 347.995 71.3214 347.233 70.6999C346.47 70.0785 345.509 69.7678 344.349 69.7678C343.181 69.7678 342.211 70.0785 341.441 70.6999C340.678 71.3214 340.111 72.1458 339.738 73.1733C339.373 74.1925 339.191 75.3111 339.191 76.5291C339.191 77.7554 339.373 78.8782 339.738 79.8974C340.111 80.9165 340.678 81.7327 341.441 82.3459C342.211 82.959 343.181 83.2656 344.349 83.2656ZM372.009 66.9091V86H368.38V66.9091H372.009ZM370.43 75.771V78.9776C369.859 79.2096 369.254 79.4168 368.616 79.5991C367.978 79.7731 367.307 79.9098 366.602 80.0092C365.898 80.1087 365.165 80.1584 364.402 80.1584C362.041 80.1584 360.164 79.5825 358.772 78.4308C357.38 77.2707 356.684 75.4975 356.684 73.1112V66.8718H360.301V73.1112C360.301 74.0143 360.467 74.7476 360.798 75.3111C361.129 75.8745 361.602 76.2888 362.215 76.554C362.828 76.8191 363.557 76.9517 364.402 76.9517C365.521 76.9517 366.553 76.8481 367.497 76.641C368.45 76.4255 369.428 76.1355 370.43 75.771ZM384.481 86.3853C382.6 86.3853 380.98 85.9834 379.621 85.1797C378.27 84.3677 377.226 83.2283 376.489 81.7617C375.76 80.2868 375.395 78.5592 375.395 76.5788C375.395 74.6233 375.76 72.8999 376.489 71.4084C377.226 69.9169 378.254 68.7527 379.571 67.9158C380.897 67.079 382.446 66.6605 384.22 66.6605C385.297 66.6605 386.341 66.8387 387.352 67.195C388.362 67.5513 389.27 68.1106 390.074 68.8729C390.877 69.6352 391.511 70.6254 391.975 71.8434C392.439 73.0531 392.671 74.5239 392.671 76.2557V77.5732H377.495V74.7891H389.03C389.03 73.8113 388.831 72.9454 388.433 72.1914C388.035 71.4291 387.476 70.8284 386.755 70.3892C386.042 69.95 385.206 69.7305 384.244 69.7305C383.2 69.7305 382.289 69.9873 381.51 70.5011C380.739 71.0065 380.143 71.6694 379.72 72.4897C379.306 73.3017 379.099 74.1842 379.099 75.1371V77.3121C379.099 78.5882 379.322 79.6737 379.77 80.5685C380.226 81.4634 380.86 82.147 381.672 82.6193C382.484 83.0833 383.432 83.3153 384.518 83.3153C385.222 83.3153 385.864 83.2159 386.444 83.017C387.024 82.8099 387.526 82.5033 387.948 82.0973C388.371 81.6913 388.694 81.19 388.918 80.5934L392.435 81.2273C392.153 82.263 391.648 83.1703 390.919 83.9492C390.198 84.7198 389.291 85.3205 388.197 85.7514C387.111 86.174 385.873 86.3853 384.481 86.3853ZM396.095 86V66.9091H404.012C406.166 66.9091 407.873 67.369 409.133 68.2887C410.392 69.2002 411.022 70.4389 411.022 72.005C411.022 73.1236 410.665 74.0102 409.953 74.6648C409.24 75.3194 408.296 75.7585 407.119 75.9822C407.972 76.0817 408.755 76.3385 409.468 76.7528C410.181 77.1589 410.752 77.7057 411.183 78.3935C411.622 79.0812 411.842 79.9015 411.842 80.8544C411.842 81.8653 411.581 82.7602 411.059 83.5391C410.537 84.3097 409.779 84.9145 408.784 85.3537C407.798 85.7846 406.609 86 405.217 86H396.095ZM399.587 82.8928H405.217C406.137 82.8928 406.858 82.6732 407.38 82.234C407.902 81.7949 408.163 81.1983 408.163 80.4442C408.163 79.5576 407.902 78.8616 407.38 78.3562C406.858 77.8424 406.137 77.5856 405.217 77.5856H399.587V82.8928ZM399.587 74.8636H404.049C404.745 74.8636 405.342 74.7642 405.839 74.5653C406.344 74.3665 406.73 74.0848 406.995 73.7202C407.268 73.3473 407.405 72.9081 407.405 72.4027C407.405 71.6652 407.102 71.0894 406.498 70.6751C405.893 70.2608 405.064 70.0536 404.012 70.0536H399.587V74.8636ZM428.157 74.8512V78.0703H417.816V74.8512H428.157ZM418.86 66.9091V86H415.219V66.9091H418.86ZM430.755 66.9091V86H427.126V66.9091H430.755ZM438.668 80.7923L447.083 66.9091H451.085V86H447.443V72.1044L439.066 86H435.027V66.9091H438.668V80.7923ZM455.381 86V66.9091H459.097V74.9134H460.887L467.189 66.9091H471.787L464.392 76.1935L471.874 86H467.263L461.509 78.3686H459.097V86H455.381ZM477.703 80.7923L486.117 66.9091H490.119V86H486.478V72.1044L478.101 86H474.061V66.9091H477.703V80.7923Z" fill="#00141F"/>
</g>
<rect x="1.5" y="1.5" width="629" height="144" rx="72" stroke="#00141F" stroke-width="3"/>
<g clip-path="url(#clip1_226_5304)">
<rect x="146" y="116" width="632" height="147" rx="73.5" fill="#F8F8F8"/>
<path d="M392.54 202.385C390.692 202.385 389.101 201.967 387.767 201.13C386.441 200.285 385.422 199.121 384.71 197.637C383.997 196.154 383.641 194.456 383.641 192.542C383.641 190.603 384.005 188.892 384.734 187.408C385.464 185.917 386.491 184.753 387.817 183.916C389.143 183.079 390.704 182.661 392.502 182.661C393.953 182.661 395.245 182.93 396.38 183.468C397.516 183.999 398.431 184.744 399.127 185.706C399.831 186.667 400.25 187.79 400.382 189.074H396.766C396.567 188.179 396.111 187.408 395.398 186.762C394.694 186.116 393.75 185.793 392.565 185.793C391.529 185.793 390.622 186.066 389.843 186.613C389.072 187.152 388.471 187.922 388.04 188.925C387.61 189.919 387.394 191.096 387.394 192.455C387.394 193.847 387.605 195.048 388.028 196.059C388.451 197.07 389.047 197.853 389.818 198.408C390.597 198.963 391.512 199.241 392.565 199.241C393.269 199.241 393.907 199.112 394.479 198.855C395.059 198.59 395.543 198.213 395.933 197.724C396.331 197.236 396.608 196.647 396.766 195.96H400.382C400.25 197.194 399.848 198.296 399.177 199.266C398.506 200.235 397.607 200.997 396.48 201.553C395.361 202.108 394.048 202.385 392.54 202.385ZM402.212 186.116V182.909H418.32V186.116H412.093V202H408.464V186.116H402.212ZM423.899 209.159C423.344 209.159 422.839 209.114 422.383 209.022C421.927 208.94 421.588 208.848 421.364 208.749L422.259 205.704C422.938 205.886 423.543 205.965 424.073 205.94C424.604 205.915 425.072 205.716 425.478 205.343C425.892 204.971 426.257 204.362 426.572 203.516L427.032 202.249L420.046 182.909H424.024L428.859 197.724H429.057L433.892 182.909H437.882L430.015 204.548C429.65 205.542 429.186 206.383 428.622 207.071C428.059 207.767 427.388 208.289 426.609 208.637C425.83 208.985 424.927 209.159 423.899 209.159ZM437.238 207.506V198.781H438.792C439.189 198.416 439.525 197.981 439.798 197.476C440.08 196.97 440.316 196.37 440.507 195.674C440.706 194.978 440.871 194.166 441.004 193.238C441.137 192.301 441.253 191.232 441.352 190.031L441.949 182.909H454.924V198.781H457.858V207.506H454.228V202H440.917V207.506H437.238ZM442.769 198.781H451.295V186.091H445.28L444.882 190.031C444.691 192.036 444.451 193.776 444.161 195.251C443.871 196.718 443.407 197.894 442.769 198.781ZM469.018 202.385C467.137 202.385 465.517 201.983 464.158 201.18C462.808 200.368 461.764 199.228 461.026 197.762C460.297 196.287 459.932 194.559 459.932 192.579C459.932 190.623 460.297 188.9 461.026 187.408C461.764 185.917 462.791 184.753 464.109 183.916C465.434 183.079 466.984 182.661 468.757 182.661C469.834 182.661 470.878 182.839 471.889 183.195C472.9 183.551 473.807 184.111 474.611 184.873C475.415 185.635 476.049 186.625 476.513 187.843C476.977 189.053 477.209 190.524 477.209 192.256V193.573H462.033V190.789H473.567C473.567 189.811 473.368 188.945 472.97 188.191C472.573 187.429 472.013 186.828 471.293 186.389C470.58 185.95 469.743 185.73 468.782 185.73C467.738 185.73 466.826 185.987 466.047 186.501C465.277 187.007 464.68 187.669 464.258 188.49C463.843 189.302 463.636 190.184 463.636 191.137V193.312C463.636 194.588 463.86 195.674 464.307 196.569C464.763 197.463 465.397 198.147 466.209 198.619C467.021 199.083 467.97 199.315 469.055 199.315C469.76 199.315 470.402 199.216 470.982 199.017C471.562 198.81 472.063 198.503 472.486 198.097C472.908 197.691 473.231 197.19 473.455 196.593L476.973 197.227C476.691 198.263 476.185 199.17 475.456 199.949C474.735 200.72 473.828 201.321 472.734 201.751C471.649 202.174 470.41 202.385 469.018 202.385ZM493.571 190.851V194.07H483.23V190.851H493.571ZM484.274 182.909V202H480.632V182.909H484.274ZM496.168 182.909V202H492.539V182.909H496.168ZM498.072 186.116V182.909H514.18V186.116H507.953V202H504.324V186.116H498.072ZM520.207 189.472H525.751C528.087 189.472 529.885 190.052 531.145 191.212C532.404 192.372 533.034 193.867 533.034 195.699C533.034 196.892 532.752 197.965 532.189 198.918C531.625 199.871 530.801 200.625 529.715 201.18C528.63 201.727 527.308 202 525.751 202H517.411V182.909H521.052V198.793H525.751C526.819 198.793 527.698 198.516 528.386 197.961C529.073 197.397 529.417 196.68 529.417 195.81C529.417 194.891 529.073 194.141 528.386 193.561C527.698 192.972 526.819 192.678 525.751 192.678H520.207V189.472ZM535.743 202V182.909H539.46V202H535.743Z" fill="#00141F"/>
</g>
<rect x="147.5" y="117.5" width="629" height="144" rx="72" stroke="#00141F" stroke-width="3"/>
<g clip-path="url(#clip2_226_5304)">
<rect x="708" width="632" height="147" rx="73.5" fill="#F8F8F8"/>
<path d="M825.498 86V66.9091H829.214V74.9134H831.004L837.306 66.9091H841.904L834.509 76.1935L841.991 86H837.38L831.626 78.3686H829.214V86H825.498ZM846.63 93.1591C846.075 93.1591 845.569 93.1135 845.113 93.0224C844.658 92.9395 844.318 92.8484 844.094 92.7489L844.989 89.7038C845.669 89.8861 846.273 89.9648 846.804 89.94C847.334 89.9151 847.802 89.7163 848.208 89.3434C848.623 88.9705 848.987 88.3615 849.302 87.5163L849.762 86.2486L842.777 66.9091H846.754L851.589 81.7244H851.788L856.623 66.9091H860.612L852.745 88.5479C852.38 89.5423 851.916 90.3833 851.353 91.071C850.789 91.767 850.118 92.2891 849.339 92.6371C848.56 92.9851 847.657 93.1591 846.63 93.1591ZM860.329 86L860.316 82.7809H861C861.53 82.7809 861.973 82.669 862.33 82.4453C862.694 82.2133 862.993 81.8239 863.225 81.277C863.457 80.7301 863.635 79.9761 863.759 79.0149C863.883 78.0455 863.975 76.8274 864.033 75.3608L864.368 66.9091H877.692V86H874.05V70.1158H867.811L867.513 76.6037C867.438 78.178 867.276 79.5535 867.028 80.7301C866.788 81.9067 866.435 82.8886 865.971 83.6758C865.507 84.4547 864.911 85.0388 864.182 85.4283C863.453 85.8094 862.566 86 861.522 86H860.329ZM884.745 73.4716H890.288C892.625 73.4716 894.423 74.0516 895.682 75.2116C896.942 76.3717 897.571 77.8673 897.571 79.6985C897.571 80.8917 897.29 81.9647 896.726 82.9176C896.163 83.8705 895.338 84.6245 894.253 85.1797C893.167 85.7266 891.846 86 890.288 86H881.948V66.9091H885.59V82.7933H890.288C891.357 82.7933 892.235 82.5157 892.923 81.9606C893.611 81.3971 893.954 80.6804 893.954 79.8104C893.954 78.8906 893.611 78.1407 892.923 77.5607C892.235 76.9724 891.357 76.6783 890.288 76.6783H884.745V73.4716ZM897.987 70.1158V66.9091H914.095V70.1158H907.868V86H904.239V70.1158H897.987ZM919.674 93.1591C919.119 93.1591 918.614 93.1135 918.158 93.0224C917.702 92.9395 917.363 92.8484 917.139 92.7489L918.034 89.7038C918.713 89.8861 919.318 89.9648 919.848 89.94C920.379 89.9151 920.847 89.7163 921.253 89.3434C921.667 88.9705 922.032 88.3615 922.347 87.5163L922.807 86.2486L915.821 66.9091H919.799L924.634 81.7244H924.832L929.667 66.9091H933.657L925.79 88.5479C925.425 89.5423 924.961 90.3833 924.397 91.071C923.834 91.767 923.163 92.2891 922.384 92.6371C921.605 92.9851 920.702 93.1591 919.674 93.1591ZM936.45 93.1591V66.9091H940.079V70.0039H940.39C940.605 69.6062 940.916 69.1463 941.322 68.6243C941.728 68.1023 942.291 67.6465 943.012 67.2571C943.733 66.8594 944.686 66.6605 945.871 66.6605C947.412 66.6605 948.787 67.05 949.997 67.8288C951.207 68.6077 952.156 69.7305 952.843 71.1971C953.539 72.6637 953.887 74.4286 953.887 76.4918C953.887 78.555 953.544 80.3241 952.856 81.799C952.168 83.2656 951.224 84.3967 950.022 85.1921C948.821 85.9793 947.449 86.3729 945.908 86.3729C944.748 86.3729 943.799 86.1781 943.062 85.7887C942.333 85.3993 941.761 84.9435 941.347 84.4215C940.932 83.8995 940.613 83.4355 940.39 83.0295H940.166V93.1591H936.45ZM940.091 76.4545C940.091 77.7969 940.286 78.9735 940.675 79.9844C941.065 80.9953 941.628 81.7866 942.366 82.3583C943.103 82.9218 944.006 83.2035 945.075 83.2035C946.186 83.2035 947.114 82.9093 947.859 82.321C948.605 81.7244 949.169 80.9165 949.55 79.8974C949.939 78.8782 950.134 77.7306 950.134 76.4545C950.134 75.1951 949.943 74.064 949.562 73.0614C949.189 72.0588 948.626 71.2675 947.872 70.6875C947.126 70.1075 946.194 69.8175 945.075 69.8175C943.998 69.8175 943.087 70.0951 942.341 70.6502C941.603 71.2054 941.044 71.9801 940.663 72.9744C940.282 73.9687 940.091 75.1288 940.091 76.4545ZM970.29 74.8512V78.0703H959.949V74.8512H970.29ZM960.993 66.9091V86H957.351V66.9091H960.993ZM972.887 66.9091V86H969.258V66.9091H972.887ZM979.955 73.4716H985.499C987.835 73.4716 989.634 74.0516 990.893 75.2116C992.152 76.3717 992.782 77.8673 992.782 79.6985C992.782 80.8917 992.5 81.9647 991.937 82.9176C991.374 83.8705 990.549 84.6245 989.464 85.1797C988.378 85.7266 987.057 86 985.499 86H977.159V66.9091H980.801V82.7933H985.499C986.568 82.7933 987.446 82.5157 988.134 81.9606C988.821 81.3971 989.165 80.6804 989.165 79.8104C989.165 78.8906 988.821 78.1407 988.134 77.5607C987.446 76.9724 986.568 76.6783 985.499 76.6783H979.955V73.4716ZM995.492 86V66.9091H999.208V86H995.492ZM1011.72 86.3853C1009.84 86.3853 1008.22 85.9834 1006.86 85.1797C1005.51 84.3677 1004.47 83.2283 1003.73 81.7617C1003 80.2868 1002.64 78.5592 1002.64 76.5788C1002.64 74.6233 1003 72.8999 1003.73 71.4084C1004.47 69.9169 1005.5 68.7527 1006.81 67.9158C1008.14 67.079 1009.69 66.6605 1011.46 66.6605C1012.54 66.6605 1013.58 66.8387 1014.59 67.195C1015.61 67.5513 1016.51 68.1106 1017.32 68.8729C1018.12 69.6352 1018.75 70.6254 1019.22 71.8434C1019.68 73.0531 1019.91 74.5239 1019.91 76.2557V77.5732H1004.74V74.7891H1016.27C1016.27 73.8113 1016.07 72.9454 1015.68 72.1914C1015.28 71.4291 1014.72 70.8284 1014 70.3892C1013.28 69.95 1012.45 69.7305 1011.49 69.7305C1010.44 69.7305 1009.53 69.9873 1008.75 70.5011C1007.98 71.0065 1007.39 71.6694 1006.96 72.4897C1006.55 73.3017 1006.34 74.1842 1006.34 75.1371V77.3121C1006.34 78.5882 1006.57 79.6737 1007.01 80.5685C1007.47 81.4634 1008.1 82.147 1008.91 82.6193C1009.73 83.0833 1010.67 83.3153 1011.76 83.3153C1012.46 83.3153 1013.11 83.2159 1013.69 83.017C1014.27 82.8099 1014.77 82.5033 1015.19 82.0973C1015.61 81.6913 1015.94 81.19 1016.16 80.5934L1019.68 81.2273C1019.4 82.263 1018.89 83.1703 1018.16 83.9492C1017.44 84.7198 1016.53 85.3205 1015.44 85.7514C1014.35 86.174 1013.12 86.3853 1011.72 86.3853ZM1038.46 69.8796C1037.82 69.8879 1037.19 70.0412 1036.6 70.3395C1036 70.6378 1035.51 71.0355 1035.12 71.5327C1034.74 72.0298 1034.55 72.5933 1034.55 73.223H1031.04C1031.04 72.3281 1031.24 71.483 1031.64 70.6875C1032.04 69.892 1032.58 69.1919 1033.27 68.587C1033.95 67.9821 1034.75 67.5057 1035.64 67.1577C1036.54 66.8097 1037.48 66.6357 1038.46 66.6357C1040.26 66.6357 1041.78 67.0748 1043.02 67.9531C1044.27 68.8232 1045.22 69.9832 1045.87 71.4332C1046.52 72.875 1046.84 74.4576 1046.84 76.1811V76.8026C1046.84 78.526 1046.52 80.1128 1045.87 81.5629C1045.22 83.0129 1044.27 84.1729 1043.02 85.043C1041.78 85.913 1040.26 86.348 1038.46 86.348C1037.02 86.348 1035.74 86.0414 1034.62 85.4283C1033.5 84.8151 1032.62 83.9782 1031.99 82.9176C1031.36 81.8487 1031.04 80.6307 1031.04 79.2635H1034.55C1034.55 79.9429 1034.73 80.5727 1035.08 81.1527C1035.44 81.7327 1035.91 82.2009 1036.5 82.5572C1037.1 82.9052 1037.75 83.0833 1038.46 83.0916C1039.53 83.0833 1040.41 82.7602 1041.11 82.1222C1041.81 81.4841 1042.34 80.6845 1042.68 79.7234C1043.02 78.7539 1043.2 77.7803 1043.2 76.8026V76.1811C1043.2 75.1619 1043.02 74.1718 1042.68 73.2106C1042.34 72.2494 1041.81 71.4581 1041.11 70.8366C1040.41 70.2069 1039.53 69.8879 1038.46 69.8796ZM1044.5 74.9755V77.8342H1036.68V74.9755H1044.5ZM1063.21 74.8512V78.0703H1052.87V74.8512H1063.21ZM1053.91 66.9091V86H1050.27V66.9091H1053.91ZM1065.81 66.9091V86H1062.18V66.9091H1065.81ZM1067.71 70.1158V66.9091H1083.82V70.1158H1077.59V86H1073.96V70.1158H1067.71ZM1089.4 93.1591C1088.84 93.1591 1088.34 93.1135 1087.88 93.0224C1087.43 92.9395 1087.09 92.8484 1086.86 92.7489L1087.76 89.7038C1088.44 89.8861 1089.04 89.9648 1089.57 89.94C1090.1 89.9151 1090.57 89.7163 1090.98 89.3434C1091.39 88.9705 1091.76 88.3615 1092.07 87.5163L1092.53 86.2486L1085.55 66.9091H1089.52L1094.36 81.7244H1094.56L1099.39 66.9091H1103.38L1095.51 88.5479C1095.15 89.5423 1094.69 90.3833 1094.12 91.071C1093.56 91.767 1092.89 92.2891 1092.11 92.6371C1091.33 92.9851 1090.43 93.1591 1089.4 93.1591ZM1105.04 80.9538H1108.85C1108.9 81.7327 1109.25 82.3335 1109.9 82.756C1110.57 83.1786 1111.42 83.3899 1112.48 83.3899C1113.55 83.3899 1114.46 83.1621 1115.21 82.7063C1115.96 82.2423 1116.34 81.5256 1116.34 80.5561C1116.34 79.9761 1116.2 79.4706 1115.91 79.0398C1115.63 78.6006 1115.22 78.2609 1114.7 78.0206C1114.19 77.7803 1113.58 77.6602 1112.87 77.6602H1109.77V74.7393H1112.87C1113.93 74.7393 1114.71 74.4991 1115.24 74.0185C1115.76 73.5379 1116.02 72.9371 1116.02 72.2163C1116.02 71.4374 1115.74 70.8118 1115.17 70.3395C1114.62 69.8589 1113.84 69.6186 1112.85 69.6186C1111.84 69.6186 1111 69.8465 1110.33 70.3022C1109.66 70.7496 1109.3 71.3297 1109.27 72.0423H1105.52C1105.54 70.9734 1105.86 70.037 1106.49 69.2333C1107.12 68.4213 1107.96 67.7915 1109.02 67.3441C1110.09 66.8884 1111.3 66.6605 1112.66 66.6605C1114.08 66.6605 1115.31 66.8884 1116.34 67.3441C1117.38 67.7998 1118.18 68.4296 1118.74 69.2333C1119.31 70.037 1119.6 70.9609 1119.6 72.005C1119.6 73.0573 1119.28 73.919 1118.65 74.5902C1118.03 75.2531 1117.22 75.7295 1116.22 76.0195V76.2184C1116.96 76.2681 1117.61 76.4918 1118.18 76.8896C1118.75 77.2873 1119.2 77.8134 1119.52 78.468C1119.85 79.1226 1120.01 79.8642 1120.01 80.6928C1120.01 81.8612 1119.69 82.872 1119.04 83.7255C1118.4 84.579 1117.51 85.2377 1116.38 85.7017C1115.25 86.1574 1113.96 86.3853 1112.51 86.3853C1111.11 86.3853 1109.84 86.1657 1108.72 85.7266C1107.61 85.2791 1106.73 84.6494 1106.08 83.8374C1105.43 83.0253 1105.09 82.0642 1105.04 80.9538ZM1126.79 80.7923L1135.2 66.9091H1139.2V86H1135.56V72.1044L1127.19 86H1123.15V66.9091H1126.79V80.7923ZM1149.06 86.4226C1147.85 86.4226 1146.75 86.1989 1145.78 85.7514C1144.8 85.2957 1144.02 84.637 1143.45 83.7752C1142.89 82.9135 1142.61 81.857 1142.61 80.6058C1142.61 79.5286 1142.81 78.642 1143.23 77.946C1143.64 77.25 1144.2 76.699 1144.91 76.293C1145.61 75.887 1146.4 75.5804 1147.27 75.3732C1148.14 75.1661 1149.02 75.0086 1149.93 74.9009C1151.07 74.7683 1152 74.6606 1152.71 74.5778C1153.42 74.4866 1153.94 74.3416 1154.26 74.1428C1154.59 73.9439 1154.75 73.6207 1154.75 73.1733V73.0863C1154.75 72.0008 1154.44 71.1598 1153.83 70.5632C1153.22 69.9666 1152.32 69.6683 1151.12 69.6683C1149.87 69.6683 1148.88 69.9459 1148.16 70.5011C1147.45 71.0479 1146.96 71.657 1146.68 72.3281L1143.19 71.5327C1143.6 70.3726 1144.21 69.4363 1145 68.7237C1145.81 68.0028 1146.73 67.4808 1147.78 67.1577C1148.82 66.8262 1149.92 66.6605 1151.07 66.6605C1151.83 66.6605 1152.64 66.7517 1153.49 66.9339C1154.36 67.108 1155.16 67.4311 1155.9 67.9034C1156.66 68.3757 1157.28 69.051 1157.76 69.9293C1158.24 70.7994 1158.48 71.9304 1158.48 73.3224V86H1154.85V83.3899H1154.7C1154.46 83.8705 1154.1 84.3428 1153.62 84.8068C1153.14 85.2708 1152.52 85.6561 1151.77 85.9627C1151.01 86.2693 1150.11 86.4226 1149.06 86.4226ZM1149.86 83.4396C1150.89 83.4396 1151.77 83.2366 1152.5 82.8306C1153.24 82.4246 1153.8 81.8943 1154.18 81.2397C1154.57 80.5768 1154.76 79.8684 1154.76 79.1143V76.6534C1154.63 76.786 1154.37 76.9103 1153.99 77.0263C1153.62 77.134 1153.19 77.2293 1152.71 77.3121C1152.23 77.3867 1151.76 77.4571 1151.31 77.5234C1150.85 77.5814 1150.47 77.6312 1150.16 77.6726C1149.44 77.7637 1148.78 77.917 1148.19 78.1325C1147.6 78.3479 1147.13 78.6586 1146.77 79.0646C1146.42 79.4624 1146.25 79.9927 1146.25 80.6555C1146.25 81.5753 1146.59 82.2713 1147.27 82.7436C1147.95 83.2076 1148.81 83.4396 1149.86 83.4396ZM1170.77 86.3853C1168.92 86.3853 1167.33 85.9669 1166 85.13C1164.67 84.2848 1163.65 83.1206 1162.94 81.6374C1162.23 80.1542 1161.87 78.4556 1161.87 76.5415C1161.87 74.6026 1162.23 72.8916 1162.96 71.4084C1163.69 69.9169 1164.72 68.7527 1166.05 67.9158C1167.37 67.079 1168.93 66.6605 1170.73 66.6605C1172.18 66.6605 1173.47 66.9298 1174.61 67.4684C1175.74 67.9987 1176.66 68.7444 1177.36 69.7056C1178.06 70.6668 1178.48 71.7895 1178.61 73.0739H1174.99C1174.8 72.179 1174.34 71.4084 1173.63 70.7621C1172.92 70.1158 1171.98 69.7926 1170.79 69.7926C1169.76 69.7926 1168.85 70.0661 1168.07 70.6129C1167.3 71.1515 1166.7 71.9221 1166.27 72.9247C1165.84 73.919 1165.62 75.0956 1165.62 76.4545C1165.62 77.8466 1165.83 79.0481 1166.26 80.0589C1166.68 81.0698 1167.28 81.8529 1168.05 82.408C1168.83 82.9632 1169.74 83.2408 1170.79 83.2408C1171.5 83.2408 1172.14 83.1123 1172.71 82.8555C1173.29 82.5903 1173.77 82.2133 1174.16 81.7244C1174.56 81.2356 1174.84 80.6473 1174.99 79.9595H1178.61C1178.48 81.1941 1178.08 82.2962 1177.41 83.2656C1176.73 84.2351 1175.84 84.9974 1174.71 85.5526C1173.59 86.1077 1172.28 86.3853 1170.77 86.3853ZM1180.44 70.1158V66.9091H1196.55V70.1158H1190.32V86H1186.69V70.1158H1180.44ZM1202.58 73.4716H1208.12C1210.46 73.4716 1212.25 74.0516 1213.51 75.2116C1214.77 76.3717 1215.4 77.8673 1215.4 79.6985C1215.4 80.8917 1215.12 81.9647 1214.56 82.9176C1213.99 83.8705 1213.17 84.6245 1212.08 85.1797C1211 85.7266 1209.68 86 1208.12 86H1199.78V66.9091H1203.42V82.7933H1208.12C1209.19 82.7933 1210.07 82.5157 1210.75 81.9606C1211.44 81.3971 1211.79 80.6804 1211.79 79.8104C1211.79 78.8906 1211.44 78.1407 1210.75 77.5607C1210.07 76.9724 1209.19 76.6783 1208.12 76.6783H1202.58V73.4716ZM1218.11 86V66.9091H1221.83V86H1218.11Z" fill="#00141F"/>
</g>
<rect x="709.5" y="1.5" width="629" height="144" rx="72" stroke="#00141F" stroke-width="3"/>
<g clip-path="url(#clip3_226_5304)">
<rect x="708" y="230" width="632" height="147" rx="73.5" fill="#F8F8F8"/>
<path d="M873.498 316V296.909H889.072V316H885.43V300.116H877.115V316H873.498ZM893.34 323.159V296.909H896.969V300.004H897.28C897.496 299.606 897.806 299.146 898.212 298.624C898.618 298.102 899.182 297.647 899.903 297.257C900.624 296.859 901.576 296.661 902.761 296.661C904.303 296.661 905.678 297.05 906.888 297.829C908.098 298.608 909.046 299.73 909.734 301.197C910.43 302.664 910.778 304.429 910.778 306.492C910.778 308.555 910.434 310.324 909.746 311.799C909.059 313.266 908.114 314.397 906.913 315.192C905.711 315.979 904.34 316.373 902.799 316.373C901.639 316.373 900.69 316.178 899.952 315.789C899.223 315.399 898.652 314.944 898.237 314.422C897.823 313.9 897.504 313.435 897.28 313.029H897.056V323.159H893.34ZM896.982 306.455C896.982 307.797 897.177 308.973 897.566 309.984C897.956 310.995 898.519 311.787 899.256 312.358C899.994 312.922 900.897 313.203 901.966 313.203C903.076 313.203 904.004 312.909 904.75 312.321C905.496 311.724 906.059 310.917 906.44 309.897C906.83 308.878 907.025 307.731 907.025 306.455C907.025 305.195 906.834 304.064 906.453 303.061C906.08 302.059 905.516 301.268 904.762 300.688C904.017 300.107 903.085 299.817 901.966 299.817C900.889 299.817 899.977 300.095 899.232 300.65C898.494 301.205 897.935 301.98 897.554 302.974C897.172 303.969 896.982 305.129 896.982 306.455ZM922.47 316.385C920.589 316.385 918.969 315.983 917.61 315.18C916.259 314.368 915.215 313.228 914.478 311.762C913.749 310.287 913.384 308.559 913.384 306.579C913.384 304.623 913.749 302.9 914.478 301.408C915.215 299.917 916.243 298.753 917.56 297.916C918.886 297.079 920.436 296.661 922.209 296.661C923.286 296.661 924.33 296.839 925.341 297.195C926.352 297.551 927.259 298.111 928.063 298.873C928.867 299.635 929.5 300.625 929.964 301.843C930.428 303.053 930.66 304.524 930.66 306.256V307.573H915.485V304.789H927.019C927.019 303.811 926.82 302.945 926.422 302.191C926.024 301.429 925.465 300.828 924.744 300.389C924.032 299.95 923.195 299.73 922.234 299.73C921.19 299.73 920.278 299.987 919.499 300.501C918.729 301.007 918.132 301.669 917.709 302.49C917.295 303.302 917.088 304.184 917.088 305.137V307.312C917.088 308.588 917.312 309.674 917.759 310.569C918.215 311.463 918.849 312.147 919.661 312.619C920.473 313.083 921.422 313.315 922.507 313.315C923.211 313.315 923.854 313.216 924.434 313.017C925.014 312.81 925.515 312.503 925.937 312.097C926.36 311.691 926.683 311.19 926.907 310.593L930.424 311.227C930.143 312.263 929.637 313.17 928.908 313.949C928.187 314.72 927.28 315.321 926.186 315.751C925.101 316.174 923.862 316.385 922.47 316.385ZM932.219 321.506V312.781H933.773C934.171 312.416 934.506 311.981 934.78 311.476C935.062 310.97 935.298 310.37 935.488 309.674C935.687 308.978 935.853 308.166 935.985 307.238C936.118 306.301 936.234 305.232 936.333 304.031L936.93 296.909H949.906V312.781H952.839V321.506H949.21V316H935.898V321.506H932.219ZM937.75 312.781H946.277V300.091H940.261L939.863 304.031C939.673 306.036 939.432 307.776 939.142 309.251C938.852 310.718 938.388 311.894 937.75 312.781ZM955.771 316V296.909H971.345V316H967.703V300.116H959.388V316H955.771ZM975.613 323.159V296.909H979.243V300.004H979.553C979.769 299.606 980.08 299.146 980.486 298.624C980.892 298.102 981.455 297.647 982.176 297.257C982.897 296.859 983.85 296.661 985.035 296.661C986.576 296.661 987.951 297.05 989.161 297.829C990.371 298.608 991.32 299.73 992.007 301.197C992.703 302.664 993.051 304.429 993.051 306.492C993.051 308.555 992.707 310.324 992.02 311.799C991.332 313.266 990.387 314.397 989.186 315.192C987.984 315.979 986.613 316.373 985.072 316.373C983.912 316.373 982.963 316.178 982.226 315.789C981.497 315.399 980.925 314.944 980.51 314.422C980.096 313.9 979.777 313.435 979.553 313.029H979.33V323.159H975.613ZM979.255 306.455C979.255 307.797 979.45 308.973 979.839 309.984C980.229 310.995 980.792 311.787 981.53 312.358C982.267 312.922 983.17 313.203 984.239 313.203C985.349 313.203 986.278 312.909 987.023 312.321C987.769 311.724 988.332 310.917 988.714 309.897C989.103 308.878 989.298 307.731 989.298 306.455C989.298 305.195 989.107 304.064 988.726 303.061C988.353 302.059 987.79 301.268 987.036 300.688C986.29 300.107 985.358 299.817 984.239 299.817C983.162 299.817 982.251 300.095 981.505 300.65C980.767 301.205 980.208 301.98 979.827 302.974C979.446 303.969 979.255 305.129 979.255 306.455ZM1000.16 310.792L1008.57 296.909H1012.57V316H1008.93V302.104L1000.55 316H996.515V296.909H1000.16V310.792ZM1029.81 304.851V308.07H1019.47V304.851H1029.81ZM1020.51 296.909V316H1016.87V296.909H1020.51ZM1032.41 296.909V316H1028.78V296.909H1032.41ZM1040.32 310.792L1048.73 296.909H1052.74V316H1049.09V302.104L1040.72 316H1036.68V296.909H1040.32V310.792ZM1067.75 311.401L1073.91 296.909H1077.12L1069.13 316H1066.37L1058.54 296.909H1061.71L1067.75 311.401ZM1060.67 296.909V316H1057.03V296.909H1060.67ZM1074.92 316V296.909H1078.53V316H1074.92ZM1088.34 316.423C1087.13 316.423 1086.04 316.199 1085.06 315.751C1084.08 315.296 1083.31 314.637 1082.74 313.775C1082.17 312.913 1081.89 311.857 1081.89 310.606C1081.89 309.529 1082.1 308.642 1082.51 307.946C1082.93 307.25 1083.49 306.699 1084.19 306.293C1084.9 305.887 1085.68 305.58 1086.55 305.373C1087.42 305.166 1088.31 305.009 1089.21 304.901C1090.36 304.768 1091.28 304.661 1092 304.578C1092.71 304.487 1093.23 304.342 1093.55 304.143C1093.87 303.944 1094.04 303.621 1094.04 303.173V303.086C1094.04 302.001 1093.73 301.16 1093.12 300.563C1092.51 299.967 1091.61 299.668 1090.41 299.668C1089.16 299.668 1088.17 299.946 1087.45 300.501C1086.74 301.048 1086.24 301.657 1085.97 302.328L1082.48 301.533C1082.89 300.373 1083.5 299.436 1084.29 298.724C1085.09 298.003 1086.02 297.481 1087.06 297.158C1088.11 296.826 1089.2 296.661 1090.36 296.661C1091.12 296.661 1091.93 296.752 1092.78 296.934C1093.64 297.108 1094.45 297.431 1095.19 297.903C1095.95 298.376 1096.56 299.051 1097.04 299.929C1097.52 300.799 1097.76 301.93 1097.76 303.322V316H1094.13V313.39H1093.99C1093.75 313.871 1093.39 314.343 1092.9 314.807C1092.42 315.271 1091.81 315.656 1091.05 315.963C1090.3 316.269 1089.4 316.423 1088.34 316.423ZM1089.15 313.44C1090.18 313.44 1091.06 313.237 1091.79 312.831C1092.52 312.425 1093.08 311.894 1093.46 311.24C1093.85 310.577 1094.05 309.868 1094.05 309.114V306.653C1093.92 306.786 1093.66 306.91 1093.28 307.026C1092.9 307.134 1092.48 307.229 1092 307.312C1091.52 307.387 1091.05 307.457 1090.59 307.523C1090.14 307.581 1089.76 307.631 1089.45 307.673C1088.73 307.764 1088.07 307.917 1087.47 308.132C1086.88 308.348 1086.41 308.659 1086.06 309.065C1085.71 309.462 1085.53 309.993 1085.53 310.656C1085.53 311.575 1085.87 312.271 1086.55 312.744C1087.23 313.208 1088.1 313.44 1089.15 313.44ZM1099.65 300.116V296.909H1115.75V300.116H1109.53V316H1105.9V300.116H1099.65ZM1126.32 316.385C1124.44 316.385 1122.82 315.983 1121.46 315.18C1120.11 314.368 1119.07 313.228 1118.33 311.762C1117.6 310.287 1117.24 308.559 1117.24 306.579C1117.24 304.623 1117.6 302.9 1118.33 301.408C1119.07 299.917 1120.1 298.753 1121.41 297.916C1122.74 297.079 1124.29 296.661 1126.06 296.661C1127.14 296.661 1128.18 296.839 1129.2 297.195C1130.21 297.551 1131.11 298.111 1131.92 298.873C1132.72 299.635 1133.35 300.625 1133.82 301.843C1134.28 303.053 1134.51 304.524 1134.51 306.256V307.573H1119.34V304.789H1130.87C1130.87 303.811 1130.67 302.945 1130.28 302.191C1129.88 301.429 1129.32 300.828 1128.6 300.389C1127.89 299.95 1127.05 299.73 1126.09 299.73C1125.04 299.73 1124.13 299.987 1123.35 300.501C1122.58 301.007 1121.99 301.669 1121.56 302.49C1121.15 303.302 1120.94 304.184 1120.94 305.137V307.312C1120.94 308.588 1121.17 309.674 1121.61 310.569C1122.07 311.463 1122.7 312.147 1123.52 312.619C1124.33 313.083 1125.28 313.315 1126.36 313.315C1127.07 313.315 1127.71 313.216 1128.29 313.017C1128.87 312.81 1129.37 312.503 1129.79 312.097C1130.21 311.691 1130.54 311.19 1130.76 310.593L1134.28 311.227C1134 312.263 1133.49 313.17 1132.76 313.949C1132.04 314.72 1131.13 315.321 1130.04 315.751C1128.96 316.174 1127.72 316.385 1126.32 316.385ZM1136.43 316L1136.42 312.781H1137.11C1137.64 312.781 1138.08 312.669 1138.44 312.445C1138.8 312.213 1139.1 311.824 1139.33 311.277C1139.56 310.73 1139.74 309.976 1139.86 309.015C1139.99 308.045 1140.08 306.827 1140.14 305.361L1140.47 296.909H1153.8V316H1150.16V300.116H1143.92L1143.62 306.604C1143.54 308.178 1143.38 309.554 1143.13 310.73C1142.89 311.907 1142.54 312.889 1142.08 313.676C1141.61 314.455 1141.02 315.039 1140.29 315.428C1139.56 315.809 1138.67 316 1137.63 316H1136.43ZM1161.7 310.792L1170.11 296.909H1174.11V316H1170.47V302.104L1162.09 316H1158.05V296.909H1161.7V310.792Z" fill="#00141F"/>
</g>
<rect x="709.5" y="231.5" width="629" height="144" rx="72" stroke="#00141F" stroke-width="3"/>
<g clip-path="url(#clip4_226_5304)">
<rect x="529" y="346" width="632" height="147" rx="73.5" fill="#F8F8F8"/>
<path d="M697.498 432V412.909H713.072V432H709.43V416.116H701.115V432H697.498ZM719.006 439.159C718.451 439.159 717.945 439.114 717.489 439.022C717.034 438.94 716.694 438.848 716.47 438.749L717.365 435.704C718.045 435.886 718.649 435.965 719.18 435.94C719.71 435.915 720.178 435.716 720.584 435.343C720.998 434.971 721.363 434.362 721.678 433.516L722.138 432.249L715.153 412.909H719.13L723.965 427.724H724.164L728.999 412.909H732.988L725.121 434.548C724.756 435.542 724.292 436.383 723.729 437.071C723.165 437.767 722.494 438.289 721.715 438.637C720.936 438.985 720.033 439.159 719.006 439.159ZM734.712 416.116V412.909H750.82V416.116H744.593V432H740.964V416.116H734.712ZM761.39 432.385C759.509 432.385 757.889 431.983 756.53 431.18C755.18 430.368 754.136 429.228 753.398 427.762C752.669 426.287 752.304 424.559 752.304 422.579C752.304 420.623 752.669 418.9 753.398 417.408C754.136 415.917 755.163 414.753 756.48 413.916C757.806 413.079 759.356 412.661 761.129 412.661C762.206 412.661 763.25 412.839 764.261 413.195C765.272 413.551 766.179 414.111 766.983 414.873C767.787 415.635 768.421 416.625 768.885 417.843C769.349 419.053 769.581 420.524 769.581 422.256V423.573H754.405V420.789H765.939C765.939 419.811 765.74 418.945 765.342 418.191C764.945 417.429 764.385 416.828 763.664 416.389C762.952 415.95 762.115 415.73 761.154 415.73C760.11 415.73 759.198 415.987 758.419 416.501C757.649 417.007 757.052 417.669 756.63 418.49C756.215 419.302 756.008 420.184 756.008 421.137V423.312C756.008 424.588 756.232 425.674 756.679 426.569C757.135 427.463 757.769 428.147 758.581 428.619C759.393 429.083 760.342 429.315 761.427 429.315C762.131 429.315 762.774 429.216 763.354 429.017C763.934 428.81 764.435 428.503 764.858 428.097C765.28 427.691 765.603 427.19 765.827 426.593L769.344 427.227C769.063 428.263 768.557 429.17 767.828 429.949C767.107 430.72 766.2 431.321 765.106 431.751C764.021 432.174 762.782 432.385 761.39 432.385ZM773.004 412.909H776.646V428.781H783.245V412.909H786.887V428.781H793.487V412.909H797.129V432H773.004V412.909ZM809.619 432.385C807.738 432.385 806.118 431.983 804.759 431.18C803.408 430.368 802.364 429.228 801.627 427.762C800.898 426.287 800.533 424.559 800.533 422.579C800.533 420.623 800.898 418.9 801.627 417.408C802.364 415.917 803.392 414.753 804.709 413.916C806.035 413.079 807.585 412.661 809.358 412.661C810.435 412.661 811.479 412.839 812.49 413.195C813.501 413.551 814.408 414.111 815.212 414.873C816.016 415.635 816.649 416.625 817.113 417.843C817.577 419.053 817.809 420.524 817.809 422.256V423.573H802.634V420.789H814.168C814.168 419.811 813.969 418.945 813.571 418.191C813.173 417.429 812.614 416.828 811.893 416.389C811.181 415.95 810.344 415.73 809.383 415.73C808.339 415.73 807.427 415.987 806.648 416.501C805.878 417.007 805.281 417.669 804.858 418.49C804.444 419.302 804.237 420.184 804.237 421.137V423.312C804.237 424.588 804.461 425.674 804.908 426.569C805.364 427.463 805.998 428.147 806.81 428.619C807.622 429.083 808.571 429.315 809.656 429.315C810.36 429.315 811.003 429.216 811.583 429.017C812.163 428.81 812.664 428.503 813.086 428.097C813.509 427.691 813.832 427.19 814.056 426.593L817.573 427.227C817.292 428.263 816.786 429.17 816.057 429.949C815.336 430.72 814.429 431.321 813.335 431.751C812.25 432.174 811.011 432.385 809.619 432.385ZM829.274 432.385C827.427 432.385 825.836 431.967 824.502 431.13C823.176 430.285 822.157 429.121 821.444 427.637C820.731 426.154 820.375 424.456 820.375 422.542C820.375 420.603 820.74 418.892 821.469 417.408C822.198 415.917 823.226 414.753 824.551 413.916C825.877 413.079 827.439 412.661 829.237 412.661C830.687 412.661 831.98 412.93 833.115 413.468C834.25 413.999 835.166 414.744 835.862 415.706C836.566 416.667 836.984 417.79 837.117 419.074H833.5C833.301 418.179 832.846 417.408 832.133 416.762C831.429 416.116 830.484 415.793 829.299 415.793C828.263 415.793 827.356 416.066 826.577 416.613C825.807 417.152 825.206 417.922 824.775 418.925C824.344 419.919 824.129 421.096 824.129 422.455C824.129 423.847 824.34 425.048 824.763 426.059C825.185 427.07 825.782 427.853 826.552 428.408C827.331 428.963 828.247 429.241 829.299 429.241C830.004 429.241 830.642 429.112 831.213 428.855C831.793 428.59 832.278 428.213 832.667 427.724C833.065 427.236 833.343 426.647 833.5 425.96H837.117C836.984 427.194 836.583 428.296 835.911 429.266C835.24 430.235 834.341 430.997 833.214 431.553C832.096 432.108 830.782 432.385 829.274 432.385ZM838.946 416.116V412.909H855.054V416.116H848.827V432H845.198V416.116H838.946ZM858.285 432V412.909H866.202C868.357 412.909 870.063 413.369 871.323 414.289C872.582 415.2 873.212 416.439 873.212 418.005C873.212 419.124 872.856 420.01 872.143 420.665C871.431 421.319 870.486 421.759 869.309 421.982C870.163 422.082 870.946 422.339 871.659 422.753C872.371 423.159 872.943 423.706 873.374 424.393C873.813 425.081 874.032 425.902 874.032 426.854C874.032 427.865 873.771 428.76 873.249 429.539C872.727 430.31 871.969 430.915 870.975 431.354C869.989 431.785 868.8 432 867.408 432H858.285ZM861.777 428.893H867.408C868.328 428.893 869.048 428.673 869.57 428.234C870.092 427.795 870.353 427.198 870.353 426.444C870.353 425.558 870.092 424.862 869.57 424.356C869.048 423.842 868.328 423.586 867.408 423.586H861.777V428.893ZM861.777 420.864H866.239C866.936 420.864 867.532 420.764 868.029 420.565C868.535 420.366 868.92 420.085 869.185 419.72C869.459 419.347 869.595 418.908 869.595 418.403C869.595 417.665 869.293 417.089 868.688 416.675C868.083 416.261 867.255 416.054 866.202 416.054H861.777V420.864ZM885.637 432.385C883.756 432.385 882.136 431.983 880.777 431.18C879.427 430.368 878.383 429.228 877.645 427.762C876.916 426.287 876.552 424.559 876.552 422.579C876.552 420.623 876.916 418.9 877.645 417.408C878.383 415.917 879.41 414.753 880.728 413.916C882.053 413.079 883.603 412.661 885.376 412.661C886.453 412.661 887.497 412.839 888.508 413.195C889.519 413.551 890.426 414.111 891.23 414.873C892.034 415.635 892.668 416.625 893.132 417.843C893.596 419.053 893.828 420.524 893.828 422.256V423.573H878.652V420.789H890.186C890.186 419.811 889.987 418.945 889.59 418.191C889.192 417.429 888.633 416.828 887.912 416.389C887.199 415.95 886.362 415.73 885.401 415.73C884.357 415.73 883.445 415.987 882.667 416.501C881.896 417.007 881.299 417.669 880.877 418.49C880.463 419.302 880.255 420.184 880.255 421.137V423.312C880.255 424.588 880.479 425.674 880.927 426.569C881.382 427.463 882.016 428.147 882.828 428.619C883.64 429.083 884.589 429.315 885.674 429.315C886.379 429.315 887.021 429.216 887.601 429.017C888.181 428.81 888.682 428.503 889.105 428.097C889.527 427.691 889.851 427.19 890.074 426.593L893.592 427.227C893.31 428.263 892.805 429.17 892.075 429.949C891.354 430.72 890.447 431.321 889.353 431.751C888.268 432.174 887.029 432.385 885.637 432.385ZM910.19 420.851V424.07H899.849V420.851H910.19ZM900.893 412.909V432H897.251V412.909H900.893ZM912.787 412.909V432H909.158V412.909H912.787ZM929.998 420.851V424.07H919.657V420.851H929.998ZM920.701 412.909V432H917.059V412.909H920.701ZM932.595 412.909V432H928.966V412.909H932.595ZM940.508 426.792L948.923 412.909H952.925V432H949.283V418.104L940.906 432H936.867V412.909H940.508V426.792ZM957.221 432V412.909H960.938V420.913H962.727L969.029 412.909H973.628L966.232 422.194L973.715 432H969.104L963.349 424.369H960.938V432H957.221ZM979.543 426.792L987.957 412.909H991.96V432H988.318V418.104L979.941 432H975.901V412.909H979.543V426.792Z" fill="#00141F"/>
</g>
<rect x="530.5" y="347.5" width="629" height="144" rx="72" stroke="#00141F" stroke-width="3"/>
<g clip-path="url(#clip5_226_5304)">
<rect y="460" width="632" height="147" rx="73.5" fill="#F8F8F8"/>
<path d="M193.14 540.792L201.554 526.909H205.556V546H201.915V532.104L193.538 546H189.498V526.909H193.14V540.792ZM217.894 546.385C216.047 546.385 214.456 545.967 213.122 545.13C211.796 544.285 210.777 543.121 210.064 541.637C209.352 540.154 208.995 538.456 208.995 536.542C208.995 534.603 209.36 532.892 210.089 531.408C210.818 529.917 211.846 528.753 213.171 527.916C214.497 527.079 216.059 526.661 217.857 526.661C219.307 526.661 220.6 526.93 221.735 527.468C222.87 527.999 223.786 528.744 224.482 529.706C225.186 530.667 225.605 531.79 225.737 533.074H222.12C221.921 532.179 221.466 531.408 220.753 530.762C220.049 530.116 219.104 529.793 217.919 529.793C216.884 529.793 215.976 530.066 215.197 530.613C214.427 531.152 213.826 531.922 213.395 532.925C212.964 533.919 212.749 535.096 212.749 536.455C212.749 537.847 212.96 539.048 213.383 540.059C213.805 541.07 214.402 541.853 215.173 542.408C215.951 542.963 216.867 543.241 217.919 543.241C218.624 543.241 219.262 543.112 219.833 542.855C220.413 542.59 220.898 542.213 221.288 541.724C221.685 541.236 221.963 540.647 222.12 539.96H225.737C225.605 541.194 225.203 542.296 224.532 543.266C223.86 544.235 222.961 544.997 221.834 545.553C220.716 546.108 219.403 546.385 217.894 546.385ZM237.053 546.385C235.205 546.385 233.614 545.967 232.28 545.13C230.954 544.285 229.935 543.121 229.223 541.637C228.51 540.154 228.154 538.456 228.154 536.542C228.154 534.603 228.518 532.892 229.247 531.408C229.977 529.917 231.004 528.753 232.33 527.916C233.656 527.079 235.218 526.661 237.016 526.661C238.466 526.661 239.758 526.93 240.893 527.468C242.029 527.999 242.944 528.744 243.64 529.706C244.345 530.667 244.763 531.79 244.896 533.074H241.279C241.08 532.179 240.624 531.408 239.912 530.762C239.207 530.116 238.263 529.793 237.078 529.793C236.042 529.793 235.135 530.066 234.356 530.613C233.585 531.152 232.984 531.922 232.554 532.925C232.123 533.919 231.907 535.096 231.907 536.455C231.907 537.847 232.119 539.048 232.541 540.059C232.964 541.07 233.56 541.853 234.331 542.408C235.11 542.963 236.025 543.241 237.078 543.241C237.782 543.241 238.42 543.112 238.992 542.855C239.572 542.59 240.057 542.213 240.446 541.724C240.844 541.236 241.121 540.647 241.279 539.96H244.896C244.763 541.194 244.361 542.296 243.69 543.266C243.019 544.235 242.12 544.997 240.993 545.553C239.874 546.108 238.561 546.385 237.053 546.385ZM246.666 546L246.653 542.781H247.337C247.867 542.781 248.311 542.669 248.667 542.445C249.031 542.213 249.33 541.824 249.562 541.277C249.794 540.73 249.972 539.976 250.096 539.015C250.22 538.045 250.312 536.827 250.37 535.361L250.705 526.909H264.029V546H260.387V530.116H254.148L253.85 536.604C253.775 538.178 253.614 539.554 253.365 540.73C253.125 541.907 252.773 542.889 252.309 543.676C251.845 544.455 251.248 545.039 250.519 545.428C249.79 545.809 248.903 546 247.859 546H246.666ZM276.513 546.385C274.632 546.385 273.012 545.983 271.653 545.18C270.303 544.368 269.259 543.228 268.521 541.762C267.792 540.287 267.428 538.559 267.428 536.579C267.428 534.623 267.792 532.9 268.521 531.408C269.259 529.917 270.286 528.753 271.604 527.916C272.929 527.079 274.479 526.661 276.252 526.661C277.329 526.661 278.373 526.839 279.384 527.195C280.395 527.551 281.302 528.111 282.106 528.873C282.91 529.635 283.544 530.625 284.008 531.843C284.472 533.053 284.704 534.524 284.704 536.256V537.573H269.528V534.789H281.062C281.062 533.811 280.863 532.945 280.466 532.191C280.068 531.429 279.509 530.828 278.788 530.389C278.075 529.95 277.238 529.73 276.277 529.73C275.233 529.73 274.321 529.987 273.543 530.501C272.772 531.007 272.175 531.669 271.753 532.49C271.339 533.302 271.131 534.184 271.131 535.137V537.312C271.131 538.588 271.355 539.674 271.803 540.569C272.258 541.463 272.892 542.147 273.704 542.619C274.516 543.083 275.465 543.315 276.55 543.315C277.255 543.315 277.897 543.216 278.477 543.017C279.057 542.81 279.558 542.503 279.981 542.097C280.403 541.691 280.727 541.19 280.95 540.593L284.468 541.227C284.186 542.263 283.68 543.17 282.951 543.949C282.23 544.72 281.323 545.321 280.229 545.751C279.144 546.174 277.905 546.385 276.513 546.385ZM286.263 551.506V542.781H287.816C288.214 542.416 288.55 541.981 288.823 541.476C289.105 540.97 289.341 540.37 289.532 539.674C289.73 538.978 289.896 538.166 290.029 537.238C290.161 536.301 290.277 535.232 290.377 534.031L290.973 526.909H303.949V542.781H306.882V551.506H303.253V546H289.942V551.506H286.263ZM291.794 542.781H300.32V530.091H294.304L293.907 534.031C293.716 536.036 293.476 537.776 293.186 539.251C292.896 540.718 292.432 541.894 291.794 542.781ZM317.856 546.385C316.067 546.385 314.505 545.975 313.171 545.155C311.837 544.335 310.801 543.187 310.063 541.712C309.326 540.237 308.957 538.514 308.957 536.542C308.957 534.561 309.326 532.829 310.063 531.346C310.801 529.863 311.837 528.711 313.171 527.891C314.505 527.071 316.067 526.661 317.856 526.661C319.646 526.661 321.208 527.071 322.542 527.891C323.876 528.711 324.912 529.863 325.649 531.346C326.387 532.829 326.756 534.561 326.756 536.542C326.756 538.514 326.387 540.237 325.649 541.712C324.912 543.187 323.876 544.335 322.542 545.155C321.208 545.975 319.646 546.385 317.856 546.385ZM317.869 543.266C319.029 543.266 319.99 542.959 320.752 542.346C321.515 541.733 322.078 540.917 322.443 539.897C322.816 538.878 323.002 537.755 323.002 536.529C323.002 535.311 322.816 534.192 322.443 533.173C322.078 532.146 321.515 531.321 320.752 530.7C319.99 530.078 319.029 529.768 317.869 529.768C316.7 529.768 315.731 530.078 314.96 530.7C314.198 531.321 313.631 532.146 313.258 533.173C312.893 534.192 312.711 535.311 312.711 536.529C312.711 537.755 312.893 538.878 313.258 539.897C313.631 540.917 314.198 541.733 314.96 542.346C315.731 542.959 316.7 543.266 317.869 543.266ZM330.204 546V526.909H338.121C340.275 526.909 341.982 527.369 343.242 528.289C344.501 529.2 345.131 530.439 345.131 532.005C345.131 533.124 344.775 534.01 344.062 534.665C343.349 535.319 342.405 535.759 341.228 535.982C342.082 536.082 342.865 536.339 343.577 536.753C344.29 537.159 344.862 537.706 345.292 538.393C345.732 539.081 345.951 539.902 345.951 540.854C345.951 541.865 345.69 542.76 345.168 543.539C344.646 544.31 343.888 544.915 342.894 545.354C341.908 545.785 340.719 546 339.327 546H330.204ZM333.696 542.893H339.327C340.246 542.893 340.967 542.673 341.489 542.234C342.011 541.795 342.272 541.198 342.272 540.444C342.272 539.558 342.011 538.862 341.489 538.356C340.967 537.842 340.246 537.586 339.327 537.586H333.696V542.893ZM333.696 534.864H338.158C338.854 534.864 339.451 534.764 339.948 534.565C340.453 534.366 340.839 534.085 341.104 533.72C341.377 533.347 341.514 532.908 341.514 532.403C341.514 531.665 341.212 531.089 340.607 530.675C340.002 530.261 339.173 530.054 338.121 530.054H333.696V534.864ZM354.884 546.423C353.674 546.423 352.58 546.199 351.602 545.751C350.625 545.296 349.85 544.637 349.278 543.775C348.715 542.913 348.433 541.857 348.433 540.606C348.433 539.529 348.64 538.642 349.054 537.946C349.469 537.25 350.028 536.699 350.732 536.293C351.437 535.887 352.224 535.58 353.094 535.373C353.964 535.166 354.851 535.009 355.754 534.901C356.897 534.768 357.825 534.661 358.538 534.578C359.25 534.487 359.768 534.342 360.091 534.143C360.415 533.944 360.576 533.621 360.576 533.173V533.086C360.576 532.001 360.27 531.16 359.656 530.563C359.052 529.967 358.148 529.668 356.947 529.668C355.696 529.668 354.71 529.946 353.989 530.501C353.276 531.048 352.783 531.657 352.51 532.328L349.017 531.533C349.431 530.373 350.036 529.436 350.832 528.724C351.636 528.003 352.559 527.481 353.603 527.158C354.648 526.826 355.745 526.661 356.897 526.661C357.659 526.661 358.467 526.752 359.321 526.934C360.183 527.108 360.986 527.431 361.732 527.903C362.486 528.376 363.103 529.051 363.584 529.929C364.065 530.799 364.305 531.93 364.305 533.322V546H360.676V543.39H360.526C360.286 543.871 359.926 544.343 359.445 544.807C358.965 545.271 358.347 545.656 357.593 545.963C356.839 546.269 355.936 546.423 354.884 546.423ZM355.692 543.44C356.719 543.44 357.597 543.237 358.326 542.831C359.064 542.425 359.623 541.894 360.004 541.24C360.394 540.577 360.589 539.868 360.589 539.114V536.653C360.456 536.786 360.199 536.91 359.818 537.026C359.445 537.134 359.018 537.229 358.538 537.312C358.057 537.387 357.589 537.457 357.133 537.523C356.678 537.581 356.296 537.631 355.99 537.673C355.269 537.764 354.61 537.917 354.014 538.132C353.425 538.348 352.953 538.659 352.597 539.065C352.249 539.462 352.075 539.993 352.075 540.656C352.075 541.575 352.414 542.271 353.094 542.744C353.773 543.208 354.639 543.44 355.692 543.44ZM366.187 530.116V526.909H382.295V530.116H376.068V546H372.439V530.116H366.187ZM392.865 546.385C390.984 546.385 389.364 545.983 388.005 545.18C386.655 544.368 385.61 543.228 384.873 541.762C384.144 540.287 383.779 538.559 383.779 536.579C383.779 534.623 384.144 532.9 384.873 531.408C385.61 529.917 386.638 528.753 387.955 527.916C389.281 527.079 390.831 526.661 392.604 526.661C393.681 526.661 394.725 526.839 395.736 527.195C396.747 527.551 397.654 528.111 398.458 528.873C399.262 529.635 399.896 530.625 400.36 531.843C400.824 533.053 401.056 534.524 401.056 536.256V537.573H385.88V534.789H397.414C397.414 533.811 397.215 532.945 396.817 532.191C396.42 531.429 395.86 530.828 395.139 530.389C394.427 529.95 393.59 529.73 392.629 529.73C391.585 529.73 390.673 529.987 389.894 530.501C389.124 531.007 388.527 531.669 388.105 532.49C387.69 533.302 387.483 534.184 387.483 535.137V537.312C387.483 538.588 387.707 539.674 388.154 540.569C388.61 541.463 389.244 542.147 390.056 542.619C390.868 543.083 391.817 543.315 392.902 543.315C393.606 543.315 394.249 543.216 394.829 543.017C395.409 542.81 395.91 542.503 396.333 542.097C396.755 541.691 397.078 541.19 397.302 540.593L400.819 541.227C400.538 542.263 400.032 543.17 399.303 543.949C398.582 544.72 397.675 545.321 396.581 545.751C395.496 546.174 394.257 546.385 392.865 546.385ZM402.975 546L402.963 542.781H403.646C404.176 542.781 404.62 542.669 404.976 542.445C405.341 542.213 405.639 541.824 405.871 541.277C406.103 540.73 406.281 539.976 406.405 539.015C406.53 538.045 406.621 536.827 406.679 535.361L407.014 526.909H420.338V546H416.697V530.116H410.457L410.159 536.604C410.084 538.178 409.923 539.554 409.674 540.73C409.434 541.907 409.082 542.889 408.618 543.676C408.154 544.455 407.557 545.039 406.828 545.428C406.099 545.809 405.212 546 404.168 546H402.975ZM428.236 540.792L436.65 526.909H440.653V546H437.011V532.104L428.634 546H424.594V526.909H428.236V540.792Z" fill="#00141F"/>
</g>
<rect x="1.5" y="461.5" width="629" height="144" rx="72" stroke="#00141F" stroke-width="3"/>
<g clip-path="url(#clip6_226_5304)">
<rect x="708" y="460" width="632" height="147" rx="73.5" fill="#F8F8F8"/>
<path d="M928.714 552.5V520.545H932.43V552.5H928.714ZM928.714 546.385C927.363 546.385 926.133 546.153 925.022 545.689C923.912 545.217 922.955 544.546 922.151 543.676C921.348 542.806 920.726 541.766 920.287 540.556C919.856 539.346 919.641 538.008 919.641 536.542C919.641 535.058 919.856 533.712 920.287 532.502C920.726 531.292 921.348 530.252 922.151 529.382C922.955 528.512 923.912 527.841 925.022 527.369C926.133 526.897 927.363 526.661 928.714 526.661H929.634V546.385H928.714ZM928.714 543.253H929.236V529.793H928.714C927.819 529.793 927.04 529.975 926.377 530.339C925.714 530.696 925.163 531.189 924.724 531.819C924.285 532.44 923.953 533.157 923.73 533.969C923.514 534.781 923.407 535.638 923.407 536.542C923.407 537.751 923.601 538.866 923.991 539.885C924.38 540.896 924.969 541.712 925.756 542.333C926.543 542.947 927.529 543.253 928.714 543.253ZM932.43 546.385H931.498V526.661H932.43C933.781 526.661 935.011 526.897 936.121 527.369C937.232 527.841 938.185 528.512 938.98 529.382C939.784 530.252 940.401 531.292 940.832 532.502C941.271 533.712 941.491 535.058 941.491 536.542C941.491 538.008 941.271 539.346 940.832 540.556C940.401 541.766 939.784 542.806 938.98 543.676C938.185 544.546 937.232 545.217 936.121 545.689C935.011 546.153 933.781 546.385 932.43 546.385ZM932.43 543.253C933.325 543.253 934.104 543.079 934.767 542.731C935.43 542.375 935.981 541.886 936.42 541.265C936.859 540.635 937.186 539.918 937.402 539.114C937.617 538.302 937.725 537.445 937.725 536.542C937.725 535.34 937.53 534.23 937.141 533.211C936.759 532.183 936.175 531.359 935.388 530.737C934.601 530.107 933.615 529.793 932.43 529.793H931.896V543.253H932.43ZM944.92 553.159V526.909H948.55V530.004H948.86C949.076 529.606 949.386 529.146 949.792 528.624C950.198 528.102 950.762 527.647 951.483 527.257C952.204 526.859 953.157 526.661 954.341 526.661C955.883 526.661 957.258 527.05 958.468 527.829C959.678 528.608 960.626 529.73 961.314 531.197C962.01 532.664 962.358 534.429 962.358 536.492C962.358 538.555 962.014 540.324 961.327 541.799C960.639 543.266 959.694 544.397 958.493 545.192C957.291 545.979 955.92 546.373 954.379 546.373C953.219 546.373 952.27 546.178 951.533 545.789C950.803 545.399 950.232 544.944 949.817 544.422C949.403 543.9 949.084 543.435 948.86 543.029H948.637V553.159H944.92ZM948.562 536.455C948.562 537.797 948.757 538.973 949.146 539.984C949.536 540.995 950.099 541.787 950.836 542.358C951.574 542.922 952.477 543.203 953.546 543.203C954.656 543.203 955.584 542.909 956.33 542.321C957.076 541.724 957.639 540.917 958.02 539.897C958.41 538.878 958.605 537.731 958.605 536.455C958.605 535.195 958.414 534.064 958.033 533.061C957.66 532.059 957.097 531.268 956.343 530.688C955.597 530.107 954.665 529.817 953.546 529.817C952.469 529.817 951.557 530.095 950.812 530.65C950.074 531.205 949.515 531.98 949.134 532.974C948.753 533.969 948.562 535.129 948.562 536.455ZM969.464 540.792L977.878 526.909H981.88V546H978.238V532.104L969.861 546H965.822V526.909H969.464V540.792ZM984.673 546L984.66 542.781H985.344C985.874 542.781 986.317 542.669 986.674 542.445C987.038 542.213 987.337 541.824 987.569 541.277C987.801 540.73 987.979 539.976 988.103 539.015C988.227 538.045 988.318 536.827 988.376 535.361L988.712 526.909H1002.04V546H998.394V530.116H992.155L991.857 536.604C991.782 538.178 991.62 539.554 991.372 540.73C991.132 541.907 990.779 542.889 990.315 543.676C989.851 544.455 989.255 545.039 988.526 545.428C987.796 545.809 986.91 546 985.866 546H984.673ZM1011.85 546.423C1010.64 546.423 1009.54 546.199 1008.57 545.751C1007.59 545.296 1006.81 544.637 1006.24 543.775C1005.68 542.913 1005.4 541.857 1005.4 540.606C1005.4 539.529 1005.6 538.642 1006.02 537.946C1006.43 537.25 1006.99 536.699 1007.7 536.293C1008.4 535.887 1009.19 535.58 1010.06 535.373C1010.93 535.166 1011.81 535.009 1012.72 534.901C1013.86 534.768 1014.79 534.661 1015.5 534.578C1016.21 534.487 1016.73 534.342 1017.06 534.143C1017.38 533.944 1017.54 533.621 1017.54 533.173V533.086C1017.54 532.001 1017.23 531.16 1016.62 530.563C1016.02 529.967 1015.11 529.668 1013.91 529.668C1012.66 529.668 1011.67 529.946 1010.95 530.501C1010.24 531.048 1009.75 531.657 1009.47 532.328L1005.98 531.533C1006.4 530.373 1007 529.436 1007.8 528.724C1008.6 528.003 1009.52 527.481 1010.57 527.158C1011.61 526.826 1012.71 526.661 1013.86 526.661C1014.62 526.661 1015.43 526.752 1016.28 526.934C1017.15 527.108 1017.95 527.431 1018.7 527.903C1019.45 528.376 1020.07 529.051 1020.55 529.929C1021.03 530.799 1021.27 531.93 1021.27 533.322V546H1017.64V543.39H1017.49C1017.25 543.871 1016.89 544.343 1016.41 544.807C1015.93 545.271 1015.31 545.656 1014.56 545.963C1013.8 546.269 1012.9 546.423 1011.85 546.423ZM1012.66 543.44C1013.68 543.44 1014.56 543.237 1015.29 542.831C1016.03 542.425 1016.59 541.894 1016.97 541.24C1017.36 540.577 1017.55 539.868 1017.55 539.114V536.653C1017.42 536.786 1017.16 536.91 1016.78 537.026C1016.41 537.134 1015.98 537.229 1015.5 537.312C1015.02 537.387 1014.55 537.457 1014.1 537.523C1013.64 537.581 1013.26 537.631 1012.95 537.673C1012.23 537.764 1011.57 537.917 1010.98 538.132C1010.39 538.348 1009.92 538.659 1009.56 539.065C1009.21 539.462 1009.04 539.993 1009.04 540.656C1009.04 541.575 1009.38 542.271 1010.06 542.744C1010.74 543.208 1011.6 543.44 1012.66 543.44ZM1038.46 534.851V538.07H1028.12V534.851H1038.46ZM1029.16 526.909V546H1025.52V526.909H1029.16ZM1041.05 526.909V546H1037.43V526.909H1041.05ZM1053.37 546.385C1051.52 546.385 1049.93 545.967 1048.6 545.13C1047.27 544.285 1046.25 543.121 1045.54 541.637C1044.83 540.154 1044.47 538.456 1044.47 536.542C1044.47 534.603 1044.83 532.892 1045.56 531.408C1046.29 529.917 1047.32 528.753 1048.65 527.916C1049.97 527.079 1051.53 526.661 1053.33 526.661C1054.78 526.661 1056.07 526.93 1057.21 527.468C1058.34 527.999 1059.26 528.744 1059.96 529.706C1060.66 530.667 1061.08 531.79 1061.21 533.074H1057.59C1057.4 532.179 1056.94 531.408 1056.23 530.762C1055.52 530.116 1054.58 529.793 1053.39 529.793C1052.36 529.793 1051.45 530.066 1050.67 530.613C1049.9 531.152 1049.3 531.922 1048.87 532.925C1048.44 533.919 1048.22 535.096 1048.22 536.455C1048.22 537.847 1048.43 539.048 1048.86 540.059C1049.28 541.07 1049.88 541.853 1050.65 542.408C1051.43 542.963 1052.34 543.241 1053.39 543.241C1054.1 543.241 1054.74 543.112 1055.31 542.855C1055.89 542.59 1056.37 542.213 1056.76 541.724C1057.16 541.236 1057.44 540.647 1057.59 539.96H1061.21C1061.08 541.194 1060.68 542.296 1060.01 543.266C1059.33 544.235 1058.43 544.997 1057.31 545.553C1056.19 546.108 1054.88 546.385 1053.37 546.385ZM1072.71 546.385C1070.83 546.385 1069.21 545.983 1067.85 545.18C1066.5 544.368 1065.46 543.228 1064.72 541.762C1063.99 540.287 1063.63 538.559 1063.63 536.579C1063.63 534.623 1063.99 532.9 1064.72 531.408C1065.46 529.917 1066.49 528.753 1067.8 527.916C1069.13 527.079 1070.68 526.661 1072.45 526.661C1073.53 526.661 1074.57 526.839 1075.58 527.195C1076.59 527.551 1077.5 528.111 1078.31 528.873C1079.11 529.635 1079.74 530.625 1080.21 531.843C1080.67 533.053 1080.9 534.524 1080.9 536.256V537.573H1065.73V534.789H1077.26C1077.26 533.811 1077.06 532.945 1076.67 532.191C1076.27 531.429 1075.71 530.828 1074.99 530.389C1074.27 529.95 1073.44 529.73 1072.48 529.73C1071.43 529.73 1070.52 529.987 1069.74 530.501C1068.97 531.007 1068.38 531.669 1067.95 532.49C1067.54 533.302 1067.33 534.184 1067.33 535.137V537.312C1067.33 538.588 1067.55 539.674 1068 540.569C1068.46 541.463 1069.09 542.147 1069.9 542.619C1070.72 543.083 1071.66 543.315 1072.75 543.315C1073.45 543.315 1074.1 543.216 1074.68 543.017C1075.26 542.81 1075.76 542.503 1076.18 542.097C1076.6 541.691 1076.93 541.19 1077.15 540.593L1080.67 541.227C1080.39 542.263 1079.88 543.17 1079.15 543.949C1078.43 544.72 1077.52 545.321 1076.43 545.751C1075.34 546.174 1074.1 546.385 1072.71 546.385ZM1084.33 553.159V526.909H1087.96V530.004H1088.27C1088.48 529.606 1088.79 529.146 1089.2 528.624C1089.61 528.102 1090.17 527.647 1090.89 527.257C1091.61 526.859 1092.56 526.661 1093.75 526.661C1095.29 526.661 1096.66 527.05 1097.87 527.829C1099.08 528.608 1100.03 529.73 1100.72 531.197C1101.42 532.664 1101.76 534.429 1101.76 536.492C1101.76 538.555 1101.42 540.324 1100.73 541.799C1100.05 543.266 1099.1 544.397 1097.9 545.192C1096.7 545.979 1095.33 546.373 1093.79 546.373C1092.63 546.373 1091.68 546.178 1090.94 545.789C1090.21 545.399 1089.64 544.944 1089.22 544.422C1088.81 543.9 1088.49 543.435 1088.27 543.029H1088.04V553.159H1084.33ZM1087.97 536.455C1087.97 537.797 1088.16 538.973 1088.55 539.984C1088.94 540.995 1089.51 541.787 1090.24 542.358C1090.98 542.922 1091.88 543.203 1092.95 543.203C1094.06 543.203 1094.99 542.909 1095.74 542.321C1096.48 541.724 1097.05 540.917 1097.43 539.897C1097.82 538.878 1098.01 537.731 1098.01 536.455C1098.01 535.195 1097.82 534.064 1097.44 533.061C1097.07 532.059 1096.5 531.268 1095.75 530.688C1095 530.107 1094.07 529.817 1092.95 529.817C1091.88 529.817 1090.96 530.095 1090.22 530.65C1089.48 531.205 1088.92 531.98 1088.54 532.974C1088.16 533.969 1087.97 535.129 1087.97 536.455ZM1108.03 533.472H1113.57C1115.9 533.472 1117.7 534.052 1118.96 535.212C1120.22 536.372 1120.85 537.867 1120.85 539.699C1120.85 540.892 1120.57 541.965 1120.01 542.918C1119.44 543.871 1118.62 544.625 1117.53 545.18C1116.45 545.727 1115.13 546 1113.57 546H1105.23V526.909H1108.87V542.793H1113.57C1114.64 542.793 1115.52 542.516 1116.2 541.961C1116.89 541.397 1117.23 540.68 1117.23 539.81C1117.23 538.891 1116.89 538.141 1116.2 537.561C1115.52 536.972 1114.64 536.678 1113.57 536.678H1108.03V533.472ZM1123.56 546V526.909H1127.28V546H1123.56Z" fill="#00141F"/>
</g>
<rect x="709.5" y="461.5" width="629" height="144" rx="72" stroke="#00141F" stroke-width="3"/>
<g clip-path="url(#clip7_226_5304)">
<rect y="230" width="632" height="147" rx="73.5" fill="#F8F8F8"/>
<path d="M144.883 316V300.078H140.309C139.224 300.078 138.379 300.331 137.774 300.837C137.169 301.342 136.866 302.005 136.866 302.825C136.866 303.637 137.144 304.292 137.699 304.789C138.263 305.278 139.05 305.522 140.061 305.522H145.964V308.53H140.061C138.652 308.53 137.434 308.298 136.407 307.834C135.387 307.362 134.6 306.695 134.045 305.833C133.498 304.971 133.225 303.952 133.225 302.776C133.225 301.574 133.507 300.538 134.07 299.668C134.642 298.79 135.458 298.111 136.518 297.63C137.587 297.149 138.851 296.909 140.309 296.909H148.376V316H144.883ZM132.355 316L137.737 306.355H141.54L136.158 316H132.355ZM151.491 310.954H155.295C155.344 311.733 155.697 312.333 156.351 312.756C157.014 313.179 157.872 313.39 158.924 313.39C159.993 313.39 160.904 313.162 161.658 312.706C162.412 312.242 162.789 311.526 162.789 310.556C162.789 309.976 162.644 309.471 162.354 309.04C162.073 308.601 161.671 308.261 161.149 308.021C160.635 307.78 160.026 307.66 159.322 307.66H156.214V304.739H159.322C160.374 304.739 161.161 304.499 161.683 304.018C162.205 303.538 162.466 302.937 162.466 302.216C162.466 301.437 162.184 300.812 161.621 300.339C161.066 299.859 160.291 299.619 159.297 299.619C158.286 299.619 157.445 299.846 156.774 300.302C156.103 300.75 155.75 301.33 155.717 302.042H151.964C151.989 300.973 152.312 300.037 152.933 299.233C153.563 298.421 154.408 297.792 155.469 297.344C156.538 296.888 157.751 296.661 159.11 296.661C160.527 296.661 161.754 296.888 162.789 297.344C163.825 297.8 164.625 298.43 165.188 299.233C165.76 300.037 166.046 300.961 166.046 302.005C166.046 303.057 165.731 303.919 165.101 304.59C164.48 305.253 163.668 305.73 162.665 306.02V306.218C163.403 306.268 164.057 306.492 164.629 306.89C165.201 307.287 165.648 307.813 165.971 308.468C166.294 309.123 166.456 309.864 166.456 310.693C166.456 311.861 166.133 312.872 165.486 313.725C164.848 314.579 163.962 315.238 162.827 315.702C161.7 316.157 160.411 316.385 158.961 316.385C157.553 316.385 156.289 316.166 155.17 315.727C154.06 315.279 153.178 314.649 152.523 313.837C151.877 313.025 151.533 312.064 151.491 310.954ZM172.39 303.472H177.933C180.27 303.472 182.068 304.052 183.327 305.212C184.587 306.372 185.217 307.867 185.217 309.699C185.217 310.892 184.935 311.965 184.371 312.918C183.808 313.871 182.983 314.625 181.898 315.18C180.813 315.727 179.491 316 177.933 316H169.593V296.909H173.235V312.793H177.933C179.002 312.793 179.88 312.516 180.568 311.961C181.256 311.397 181.6 310.68 181.6 309.81C181.6 308.891 181.256 308.141 180.568 307.561C179.88 306.972 179.002 306.678 177.933 306.678H172.39V303.472ZM187.926 316V296.909H191.642V316H187.926ZM195.929 316V296.909H199.646V304.913H201.436L207.737 296.909H212.336L204.94 306.194L212.423 316H207.812L202.057 308.369H199.646V316H195.929ZM221.865 316.385C220.075 316.385 218.513 315.975 217.179 315.155C215.845 314.335 214.809 313.187 214.072 311.712C213.334 310.237 212.966 308.514 212.966 306.542C212.966 304.561 213.334 302.829 214.072 301.346C214.809 299.863 215.845 298.711 217.179 297.891C218.513 297.071 220.075 296.661 221.865 296.661C223.655 296.661 225.216 297.071 226.55 297.891C227.885 298.711 228.92 299.863 229.658 301.346C230.395 302.829 230.764 304.561 230.764 306.542C230.764 308.514 230.395 310.237 229.658 311.712C228.92 313.187 227.885 314.335 226.55 315.155C225.216 315.975 223.655 316.385 221.865 316.385ZM221.877 313.266C223.037 313.266 223.998 312.959 224.761 312.346C225.523 311.733 226.086 310.917 226.451 309.897C226.824 308.878 227.01 307.755 227.01 306.529C227.01 305.311 226.824 304.192 226.451 303.173C226.086 302.146 225.523 301.321 224.761 300.7C223.998 300.078 223.037 299.768 221.877 299.768C220.709 299.768 219.739 300.078 218.969 300.7C218.207 301.321 217.639 302.146 217.266 303.173C216.901 304.192 216.719 305.311 216.719 306.529C216.719 307.755 216.901 308.878 217.266 309.897C217.639 310.917 218.207 311.733 218.969 312.346C219.739 312.959 220.709 313.266 221.877 313.266ZM234.212 316V296.909H242.129C244.284 296.909 245.991 297.369 247.25 298.289C248.51 299.2 249.139 300.439 249.139 302.005C249.139 303.124 248.783 304.01 248.07 304.665C247.358 305.319 246.413 305.759 245.237 305.982C246.09 306.082 246.873 306.339 247.586 306.753C248.298 307.159 248.87 307.706 249.301 308.393C249.74 309.081 249.96 309.902 249.96 310.854C249.96 311.865 249.699 312.76 249.177 313.539C248.655 314.31 247.896 314.915 246.902 315.354C245.916 315.785 244.727 316 243.335 316H234.212ZM237.705 312.893H243.335C244.255 312.893 244.976 312.673 245.498 312.234C246.02 311.795 246.281 311.198 246.281 310.444C246.281 309.558 246.02 308.862 245.498 308.356C244.976 307.842 244.255 307.586 243.335 307.586H237.705V312.893ZM237.705 304.864H242.167C242.863 304.864 243.459 304.764 243.956 304.565C244.462 304.366 244.847 304.085 245.112 303.72C245.386 303.347 245.522 302.908 245.522 302.403C245.522 301.665 245.22 301.089 244.615 300.675C244.01 300.261 243.182 300.054 242.129 300.054H237.705V304.864ZM256.133 303.472H261.676C264.013 303.472 265.811 304.052 267.07 305.212C268.33 306.372 268.96 307.867 268.96 309.699C268.96 310.892 268.678 311.965 268.114 312.918C267.551 313.871 266.726 314.625 265.641 315.18C264.556 315.727 263.234 316 261.676 316H253.336V296.909H256.978V312.793H261.676C262.745 312.793 263.623 312.516 264.311 311.961C264.999 311.397 265.343 310.68 265.343 309.81C265.343 308.891 264.999 308.141 264.311 307.561C263.623 306.972 262.745 306.678 261.676 306.678H256.133V303.472ZM271.669 316V296.909H275.385V316H271.669ZM287.9 316.385C286.02 316.385 284.4 315.983 283.041 315.18C281.69 314.368 280.646 313.228 279.909 311.762C279.179 310.287 278.815 308.559 278.815 306.579C278.815 304.623 279.179 302.9 279.909 301.408C280.646 299.917 281.674 298.753 282.991 297.916C284.317 297.079 285.866 296.661 287.639 296.661C288.717 296.661 289.761 296.839 290.772 297.195C291.782 297.551 292.69 298.111 293.493 298.873C294.297 299.635 294.931 300.625 295.395 301.843C295.859 303.053 296.091 304.524 296.091 306.256V307.573H280.915V304.789H292.449C292.449 303.811 292.251 302.945 291.853 302.191C291.455 301.429 290.896 300.828 290.175 300.389C289.462 299.95 288.625 299.73 287.664 299.73C286.62 299.73 285.709 299.987 284.93 300.501C284.159 301.007 283.563 301.669 283.14 302.49C282.726 303.302 282.519 304.184 282.519 305.137V307.312C282.519 308.588 282.742 309.674 283.19 310.569C283.646 311.463 284.279 312.147 285.091 312.619C285.904 313.083 286.852 313.315 287.938 313.315C288.642 313.315 289.284 313.216 289.864 313.017C290.444 312.81 290.946 312.503 291.368 312.097C291.791 311.691 292.114 311.19 292.338 310.593L295.855 311.227C295.573 312.263 295.068 313.17 294.339 313.949C293.618 314.72 292.71 315.321 291.617 315.751C290.531 316.174 289.292 316.385 287.9 316.385ZM314.64 299.88C313.993 299.888 313.372 300.041 312.775 300.339C312.179 300.638 311.686 301.036 311.296 301.533C310.915 302.03 310.724 302.593 310.724 303.223H307.22C307.22 302.328 307.418 301.483 307.816 300.688C308.214 299.892 308.757 299.192 309.444 298.587C310.132 297.982 310.923 297.506 311.818 297.158C312.713 296.81 313.654 296.636 314.64 296.636C316.438 296.636 317.958 297.075 319.201 297.953C320.452 298.823 321.401 299.983 322.047 301.433C322.694 302.875 323.017 304.458 323.017 306.181V306.803C323.017 308.526 322.694 310.113 322.047 311.563C321.401 313.013 320.452 314.173 319.201 315.043C317.958 315.913 316.438 316.348 314.64 316.348C313.198 316.348 311.918 316.041 310.799 315.428C309.68 314.815 308.802 313.978 308.164 312.918C307.534 311.849 307.22 310.631 307.22 309.263H310.724C310.724 309.943 310.903 310.573 311.259 311.153C311.615 311.733 312.088 312.201 312.676 312.557C313.272 312.905 313.927 313.083 314.64 313.092C315.709 313.083 316.591 312.76 317.287 312.122C317.991 311.484 318.513 310.685 318.853 309.723C319.201 308.754 319.375 307.78 319.375 306.803V306.181C319.375 305.162 319.201 304.172 318.853 303.211C318.513 302.249 317.991 301.458 317.287 300.837C316.591 300.207 315.709 299.888 314.64 299.88ZM320.68 304.975V307.834H312.862V304.975H320.68ZM339.388 304.851V308.07H329.047V304.851H339.388ZM330.091 296.909V316H326.449V296.909H330.091ZM341.986 296.909V316H338.356V296.909H341.986ZM343.889 300.116V296.909H359.997V300.116H353.771V316H350.141V300.116H343.889ZM365.577 323.159C365.022 323.159 364.517 323.114 364.061 323.022C363.605 322.94 363.265 322.848 363.042 322.749L363.937 319.704C364.616 319.886 365.221 319.965 365.751 319.94C366.281 319.915 366.75 319.716 367.156 319.343C367.57 318.971 367.935 318.362 368.249 317.516L368.709 316.249L361.724 296.909H365.701L370.536 311.724H370.735L375.57 296.909H379.56L371.692 318.548C371.328 319.542 370.864 320.383 370.3 321.071C369.737 321.767 369.066 322.289 368.287 322.637C367.508 322.985 366.605 323.159 365.577 323.159ZM381.221 310.954H385.025C385.074 311.733 385.426 312.333 386.081 312.756C386.744 313.179 387.601 313.39 388.654 313.39C389.723 313.39 390.634 313.162 391.388 312.706C392.142 312.242 392.519 311.526 392.519 310.556C392.519 309.976 392.374 309.471 392.084 309.04C391.802 308.601 391.401 308.261 390.879 308.021C390.365 307.78 389.756 307.66 389.052 307.66H385.944V304.739H389.052C390.104 304.739 390.891 304.499 391.413 304.018C391.935 303.538 392.196 302.937 392.196 302.216C392.196 301.437 391.914 300.812 391.351 300.339C390.796 299.859 390.021 299.619 389.027 299.619C388.016 299.619 387.175 299.846 386.504 300.302C385.832 300.75 385.48 301.33 385.447 302.042H381.694C381.718 300.973 382.042 300.037 382.663 299.233C383.293 298.421 384.138 297.792 385.199 297.344C386.267 296.888 387.481 296.661 388.84 296.661C390.257 296.661 391.483 296.888 392.519 297.344C393.555 297.8 394.355 298.43 394.918 299.233C395.49 300.037 395.776 300.961 395.776 302.005C395.776 303.057 395.461 303.919 394.831 304.59C394.21 305.253 393.398 305.73 392.395 306.02V306.218C393.132 306.268 393.787 306.492 394.359 306.89C394.93 307.287 395.378 307.813 395.701 308.468C396.024 309.123 396.186 309.864 396.186 310.693C396.186 311.861 395.863 312.872 395.216 313.725C394.578 314.579 393.692 315.238 392.557 315.702C391.43 316.157 390.141 316.385 388.691 316.385C387.282 316.385 386.019 316.166 384.9 315.727C383.79 315.279 382.907 314.649 382.253 313.837C381.607 313.025 381.263 312.064 381.221 310.954ZM402.965 310.792L411.379 296.909H415.381V316H411.74V302.104L403.363 316H399.323V296.909H402.965V310.792ZM425.234 316.423C424.024 316.423 422.93 316.199 421.952 315.751C420.975 315.296 420.2 314.637 419.628 313.775C419.065 312.913 418.783 311.857 418.783 310.606C418.783 309.529 418.99 308.642 419.404 307.946C419.819 307.25 420.378 306.699 421.082 306.293C421.787 305.887 422.574 305.58 423.444 305.373C424.314 305.166 425.201 305.009 426.104 304.901C427.247 304.768 428.175 304.661 428.888 304.578C429.6 304.487 430.118 304.342 430.441 304.143C430.765 303.944 430.926 303.621 430.926 303.173V303.086C430.926 302.001 430.62 301.16 430.006 300.563C429.402 299.967 428.498 299.668 427.297 299.668C426.046 299.668 425.06 299.946 424.339 300.501C423.626 301.048 423.133 301.657 422.86 302.328L419.367 301.533C419.781 300.373 420.386 299.436 421.182 298.724C421.986 298.003 422.909 297.481 423.953 297.158C424.998 296.826 426.095 296.661 427.247 296.661C428.009 296.661 428.817 296.752 429.671 296.934C430.533 297.108 431.336 297.431 432.082 297.903C432.836 298.376 433.453 299.051 433.934 299.929C434.415 300.799 434.655 301.93 434.655 303.322V316H431.026V313.39H430.876C430.636 313.871 430.276 314.343 429.795 314.807C429.315 315.271 428.697 315.656 427.943 315.963C427.189 316.269 426.286 316.423 425.234 316.423ZM426.042 313.44C427.069 313.44 427.947 313.237 428.676 312.831C429.414 312.425 429.973 311.894 430.354 311.24C430.744 310.577 430.939 309.868 430.939 309.114V306.653C430.806 306.786 430.549 306.91 430.168 307.026C429.795 307.134 429.368 307.229 428.888 307.312C428.407 307.387 427.939 307.457 427.483 307.523C427.028 307.581 426.646 307.631 426.34 307.673C425.619 307.764 424.96 307.917 424.364 308.132C423.775 308.348 423.303 308.659 422.947 309.065C422.599 309.462 422.425 309.993 422.425 310.656C422.425 311.575 422.764 312.271 423.444 312.744C424.123 313.208 424.989 313.44 426.042 313.44ZM446.946 316.385C445.098 316.385 443.508 315.967 442.173 315.13C440.848 314.285 439.829 313.121 439.116 311.637C438.403 310.154 438.047 308.456 438.047 306.542C438.047 304.603 438.412 302.892 439.141 301.408C439.87 299.917 440.897 298.753 442.223 297.916C443.549 297.079 445.111 296.661 446.909 296.661C448.359 296.661 449.652 296.93 450.787 297.468C451.922 297.999 452.838 298.744 453.534 299.706C454.238 300.667 454.656 301.79 454.789 303.074H451.172C450.973 302.179 450.517 301.408 449.805 300.762C449.101 300.116 448.156 299.793 446.971 299.793C445.935 299.793 445.028 300.066 444.249 300.613C443.479 301.152 442.878 301.922 442.447 302.925C442.016 303.919 441.801 305.096 441.801 306.455C441.801 307.847 442.012 309.048 442.434 310.059C442.857 311.07 443.454 311.853 444.224 312.408C445.003 312.963 445.919 313.241 446.971 313.241C447.675 313.241 448.313 313.112 448.885 312.855C449.465 312.59 449.95 312.213 450.339 311.724C450.737 311.236 451.015 310.647 451.172 309.96H454.789C454.656 311.194 454.254 312.296 453.583 313.266C452.912 314.235 452.013 314.997 450.886 315.553C449.768 316.108 448.454 316.385 446.946 316.385ZM456.618 300.116V296.909H472.726V300.116H466.499V316H462.87V300.116H456.618ZM478.753 303.472H484.297C486.633 303.472 488.431 304.052 489.691 305.212C490.95 306.372 491.58 307.867 491.58 309.699C491.58 310.892 491.298 311.965 490.735 312.918C490.171 313.871 489.347 314.625 488.261 315.18C487.176 315.727 485.854 316 484.297 316H475.957V296.909H479.599V312.793H484.297C485.366 312.793 486.244 312.516 486.932 311.961C487.619 311.397 487.963 310.68 487.963 309.81C487.963 308.891 487.619 308.141 486.932 307.561C486.244 306.972 485.366 306.678 484.297 306.678H478.753V303.472ZM494.29 316V296.909H498.006V316H494.29Z" fill="#00141F"/>
</g>
<rect x="1.5" y="231.5" width="629" height="144" rx="72" stroke="#00141F" stroke-width="3"/>
<defs>
<clipPath id="clip0_226_5304">
<rect width="632" height="147" rx="73.5" fill="white"/>
</clipPath>
<clipPath id="clip1_226_5304">
<rect x="146" y="116" width="632" height="147" rx="73.5" fill="white"/>
</clipPath>
<clipPath id="clip2_226_5304">
<rect x="708" width="632" height="147" rx="73.5" fill="white"/>
</clipPath>
<clipPath id="clip3_226_5304">
<rect x="708" y="230" width="632" height="147" rx="73.5" fill="white"/>
</clipPath>
<clipPath id="clip4_226_5304">
<rect x="529" y="346" width="632" height="147" rx="73.5" fill="white"/>
</clipPath>
<clipPath id="clip5_226_5304">
<rect y="460" width="632" height="147" rx="73.5" fill="white"/>
</clipPath>
<clipPath id="clip6_226_5304">
<rect x="708" y="460" width="632" height="147" rx="73.5" fill="white"/>
</clipPath>
<clipPath id="clip7_226_5304">
<rect y="230" width="632" height="147" rx="73.5" fill="white"/>
</clipPath>
</defs>
</svg>
