<svg width="204" height="272" viewBox="0 0 204 272" fill="none" xmlns="http://www.w3.org/2000/svg">
<path d="M186.073 78.2204L184.482 79.4185L186.073 80.6167C196.622 88.562 202.5 97.8962 202.5 107.709C202.5 117.522 196.622 126.857 186.073 134.802L184.482 136L186.073 137.198C196.622 145.143 202.5 154.478 202.5 164.291C202.5 174.104 196.622 183.438 186.073 191.383L184.482 192.581L186.073 193.78C196.622 201.725 202.5 211.059 202.5 220.872C202.5 234.118 191.75 246.512 173.453 255.684C155.244 264.811 129.984 270.5 102 270.5C74.0164 270.5 48.7561 264.811 30.5473 255.684C12.2498 246.512 1.5 234.118 1.5 220.872C1.5 211.059 7.37821 201.725 17.9274 193.78L19.5182 192.581L17.9274 191.383C7.37821 183.438 1.5 174.104 1.5 164.291C1.5 154.478 7.37821 145.143 17.9274 137.198L19.5182 136L17.9274 134.802C7.37821 126.857 1.5 117.522 1.5 107.709C1.5 97.8962 7.37821 88.562 17.9274 80.6167L19.5182 79.4185L17.9274 78.2204C7.37821 70.2751 1.5 60.9409 1.5 51.1278C1.5 37.8815 12.2498 25.4876 30.5473 16.316C48.7561 7.18871 74.0164 1.5 102 1.5C129.984 1.5 155.244 7.18871 173.453 16.316C191.75 25.4876 202.5 37.8815 202.5 51.1278C202.5 60.9409 196.622 70.2751 186.073 78.2204Z" stroke="#00141F" stroke-width="3"/>
</svg>
