<svg width="1340" height="425" viewBox="0 0 1340 425" fill="none" xmlns="http://www.w3.org/2000/svg">
<path fill-rule="evenodd" clip-rule="evenodd" d="M364 95C361.704 97.0091 360.227 98.7894 358 101C356.932 102.06 355.052 102.894 354 104C345.53 112.666 337.857 122.453 331 133C331.008 132.987 330.992 133.013 331 133C322.788 145.636 315.898 159.665 310 175C308.361 179.439 307.359 184.582 306 189C305.543 190.486 304.426 191.516 304 193C303.636 194.268 303.341 195.734 303 197C297.412 217.778 295.356 237.702 296 258C296.446 273.168 298.452 286.278 302 298C302.039 298.128 301.961 297.872 302 298C305.334 308.874 309.979 319.111 316 327C328.561 343.025 347.177 351 371 351C371.434 351 371.568 351.004 372 351C400.799 350.705 426.218 339.929 449 320C449.092 319.92 449.909 320.08 450 320C453.423 316.99 456.713 313.454 460 310C461.103 308.845 461.928 308.182 463 307C472.72 296.286 481.764 283.936 489 271C494.138 261.815 498.114 252.305 502 242C503.576 237.93 505.663 234.06 507 230C507.017 229.948 506.983 230.052 507 230C513.433 210.417 517.123 191.351 518 172C518.138 168.945 518 166.049 518 163C518 148.276 515.88 134.646 513 123C513.018 123.071 512.982 122.928 513 123C512.58 121.317 512.48 119.619 512 118C508.892 107.517 504.639 98.7772 499 91C486.872 73.6758 468.689 65 444 65C443.349 65 442.648 64.9904 442 65C424.062 65.265 406.413 68.4008 391 76C381.51 80.6788 372.532 87.5408 364 95C364.013 94.9888 363.987 95.0112 364 95ZM393 111C389.54 117.083 386.361 123.602 383 131C382.922 131.171 382.078 131.828 382 132C377.254 142.496 372.549 153.88 368 167C368.026 166.925 367.974 167.075 368 167C367.634 168.056 367.364 169.927 367 171C364.524 178.291 362.417 185.926 360 194C360.068 193.772 359.932 194.228 360 194C359.126 196.929 357.866 199.968 357 203C351.32 222.877 346.705 240.089 344 256C344.006 255.962 343.994 256.038 344 256C341.355 271.591 340.786 285.221 341 297C341.093 300.314 340.685 304.043 341 307C341.017 307.161 340.982 306.84 341 307C343.621 330.56 354.139 343.416 371 344C371.429 344.015 371.562 344 372 344C389.326 344 405.84 330.419 421 304C424.496 297.759 427.576 290.573 431 283C431.009 282.98 430.991 283.02 431 283C438.497 266.409 445.848 246.975 453 224C453.045 223.854 452.955 223.146 453 223C453.859 220.234 455.146 217.858 456 215C461.729 195.61 466.073 178.691 469 163C471.826 147.849 473.787 134.702 474 123C474.06 118.296 473.368 113.049 473 109C473.019 109.201 472.982 108.797 473 109C470.697 85.2532 461.276 72.8476 444 72C443.361 71.9686 442.66 72 442 72C424.714 72 408.414 84.3782 394 109C393.606 109.673 393.392 110.309 393 111ZM490 371C456.536 399.561 416.505 415 371 415C355.375 415 349.599 407.758 335 403C331.798 401.956 328.116 401.292 325 400C322.204 398.84 309.717 402.366 307 401C291.348 393.135 276.974 382.276 265 367V366C247.482 343.047 238.061 315.632 234 288C222.697 316.587 213.512 343.091 206 366L192 401H6L32 327C39.1577 303.74 50.2358 269.289 65 225V224C67.3944 217.023 69.9268 212.034 72 206L5 164L32 111C47.674 80.6995 67.4925 53.0189 93 33C113.858 16.5505 143.097 0 177 0C194.447 0 213.871 4.46031 232 17C249.333 6.71253 270.271 0 293 0C314.323 0 337.285 6.20547 357 22C382.984 7.958 412.57 0 444 0C485.508 0 525.666 15.7063 552 53C554.13 55.961 556.126 58.9284 558 62C560.557 59.4571 562.353 57.4744 565 55C598.574 23.1755 639.003 0 687 0C698.732 0 710.87 2.03406 722 6H864C874.907 2.37806 886.605 0 899 0C919.955 0 945.657 5.60641 966 25C987.805 10.3829 1013.15 0 1042 0C1065.1 0 1089.15 6.91064 1108 24C1128.76 9.76483 1152.88 0 1181 0C1208.71 0 1235.86 10.7683 1256 33C1276.09 54.6554 1284 81.2812 1284 107C1284 115.663 1282.39 124.666 1281 133C1279.63 140.536 1277.39 149.386 1275 158V159C1272.63 167.072 1270.36 174.505 1268 181C1266.69 184.589 1264.36 191.299 1261 201L1336 237L1301 297C1283.89 325.866 1262.67 352.07 1238 374C1210.44 398.498 1176.06 416 1136 416C1112.07 416 1086.27 407.831 1066 386C1064.61 384.505 1063.25 383.538 1062 382L1053 410H746C733.795 413.771 720.686 416 707 416C687.834 416 666.744 411.383 648 398C629.368 408.855 607.926 416 584 416C548.715 416 517.916 401.611 495 377C493.193 375.06 491.634 373.02 490 371ZM1109 294C1107.25 300.712 1105.57 306.451 1105 311C1104.72 313.202 1105 315.305 1105 317C1105 327.828 1107.37 335.937 1113 342C1118.63 348.063 1126.04 351 1136 351C1146.46 351 1156.66 348.77 1167 344C1176.36 339.68 1185.74 333.234 1195 325C1199.92 320.63 1204.44 316.755 1209 312C1209.19 311.799 1209.81 311.202 1210 311C1212.84 308.012 1215.3 305.139 1218 302C1219.14 300.681 1219.89 299.345 1221 298C1224.98 293.185 1229.34 288.157 1233 283C1237.12 277.19 1241.28 271.244 1245 265C1245.11 264.817 1244.89 264.183 1245 264L1239 261C1232.67 271.278 1225.45 280.486 1218 289C1213.21 294.478 1208.26 300.252 1203 305C1200.34 307.404 1197.54 309.073 1195 311C1192.29 313.056 1189.58 314.486 1187 316C1179.81 320.225 1173.14 323 1167 323C1163.32 323 1161.08 320.898 1160 317C1159.55 315.385 1159 313.283 1159 311C1159 310.094 1158.81 309.379 1159 308C1159.02 307.823 1159.97 307.184 1160 307C1160.3 305.051 1160.35 302.816 1161 300C1161.66 297.138 1161.97 293.758 1163 290C1163.61 287.759 1165.26 285.559 1166 283C1166.46 281.426 1166.49 279.694 1167 278C1167.9 274.976 1168.94 271.408 1170 268C1170.95 264.951 1171.93 262.356 1173 259C1173.58 257.184 1174.38 254.906 1175 253C1175.7 250.836 1176.25 248.28 1177 246C1178.88 240.286 1180.82 234.442 1183 228C1184.71 222.937 1186.11 217.512 1188 212C1188.02 211.935 1188.98 212.065 1189 212C1190.86 206.438 1192.58 199.62 1196 190C1196.57 188.4 1197.39 186.712 1198 185C1200.67 177.258 1203.32 170.78 1205 166C1206.05 163.025 1206.34 160.828 1207 159C1208.41 155.131 1210.31 150.584 1212 145C1212.39 143.709 1212.59 142.383 1213 141C1214.59 135.287 1216.11 130.085 1217 126C1217.26 124.799 1217.8 124.06 1218 123C1218.05 122.745 1217.96 122.246 1218 122C1218.87 116.803 1219 111.764 1219 107C1219 105.22 1219.15 103.685 1219 102C1218.1 91.7998 1214.32 82.6909 1208 76C1201.07 68.2041 1192.26 65 1181 65C1173.37 65 1164.97 66.4236 1157 70C1150.91 72.7327 1145.29 76.1793 1139 81C1134.53 84.4296 1129.57 88.5137 1125 93C1123.02 94.937 1120.99 96.866 1119 99C1118.28 99.7722 1117.72 101.202 1117 102C1116.8 102.221 1116.2 101.778 1116 102C1114.68 103.468 1114.33 105.446 1113 107C1111.53 108.719 1110.48 110.176 1109 112C1108.81 112.232 1108.19 112.766 1108 113C1104.48 117.364 1101.58 122.044 1098 127C1095.94 129.852 1093.08 132.952 1091 136C1091.01 135.992 1090.99 136.008 1091 136C1088.01 140.382 1085.02 145.213 1082 150C1074.86 161.301 1068.36 173.442 1061 187H1057C1057.19 186.397 1056.81 185.597 1057 185C1058.16 181.414 1059.94 178.354 1061 175C1068.03 152.663 1072.36 135.041 1075 123C1075.01 122.964 1074.99 123.036 1075 123C1076.57 115.818 1077 110.5 1077 107C1077 105.214 1077.11 103.679 1077 102C1076.28 91.4598 1073.23 82.351 1068 76C1068.12 76.1495 1067.88 75.8475 1068 76C1065.85 73.3333 1063.78 70.7178 1061 69C1055.96 65.8905 1049.11 65 1042 65C1033.66 65 1024.98 66.9 1016 71C1008.96 74.2156 1001.44 78.2624 994 84C990.245 86.8968 986.855 90.4603 983 94C980.57 96.2316 978.424 98.4674 976 101C975.794 101.215 975.206 101.782 975 102C971.824 105.351 969.166 109.132 966 113C962.289 117.534 957.698 121.756 954 127C954.003 126.996 953.997 127.004 954 127C953.714 127.405 954.286 127.591 954 128C951.848 131.085 949.148 134.674 947 138C937.9 152.093 929.019 168.588 920 187H915C915.176 186.34 915.827 185.654 916 185C917.445 179.536 918.763 174.048 920 169C926.217 143.639 930.032 123.862 931 109C931.002 108.969 930.998 109.031 931 109C931.082 107.731 930.957 106.193 931 105C931.049 103.652 931 102.25 931 101C931 89.8977 928.447 81.0202 924 75C922.18 72.5368 920.564 70.6124 918 69C913.141 65.9442 906.534 65 899 65C891.288 65 883.181 67.266 874 72C868.227 74.977 861.354 78.1509 855 83C854.374 83.4778 854.621 84.5041 854 85C852.695 86.042 851.283 86.8777 850 88C849.551 88.3932 848.447 88.5969 848 89C844.492 92.1652 841.341 96.2275 838 100C836.537 101.652 835.431 103.232 834 105C830.769 108.994 827.068 113.412 824 118C821.332 121.991 818.544 126.559 816 131C814.236 134.079 812.704 136.705 811 140L817 144C817.141 143.781 816.859 143.218 817 143C819.791 138.678 823.353 134.821 826 131C827.033 129.51 827.989 128.414 829 127C835.214 118.306 840.615 110.809 846 105C846.458 104.506 846.548 104.473 847 104C852.058 98.7047 857.693 94.6813 862 92C866.418 89.2498 870.372 87 874 87C881.258 87 885.143 91.9048 886 101C886.115 102.218 886 103.619 886 105C886 108.05 885.427 111.281 885 115C884.766 117.035 884.362 119.764 884 122C883.854 122.903 884.167 123.064 884 124C883.401 127.352 882.867 131.228 882 135C880.809 140.182 878.697 146.026 877 152C876.572 153.508 876.461 154.441 876 156C875.237 158.581 874.851 161.28 874 164C873.158 166.69 871.928 170.175 871 173C870.809 173.525 870.354 173.996 870 175C869.732 175.761 869.362 176.964 869 178C868.147 180.441 867.374 183.031 866 187C863.58 193.992 860.035 202.266 856 214C853.511 221.237 851.103 229.96 848 239C847.889 239.322 847.112 239.675 847 240C846.401 241.744 846.621 243.189 846 245C845.404 246.787 844.583 249.249 844 251C840.779 260.679 837.832 269.403 835 278C834.832 278.511 834.167 279.493 834 280C833.849 280.46 834.15 280.543 834 281C827.766 299.951 822.286 316.46 818 330C816.192 335.711 814.461 341.251 813 346H865C871.642 326.076 881.595 297.438 895 262C895.054 261.856 894.946 262.144 895 262C895.529 260.602 896.461 259.422 897 258C897.846 255.631 899.147 253.322 900 251C905.098 237.12 909.669 223.188 915 211C916.507 207.555 918.475 205.309 920 202C921.575 198.582 923.405 195.274 925 192C925.263 191.46 924.736 191.537 925 191C925.109 190.779 925.891 190.221 926 190C926.014 189.971 925.986 190.029 926 190C931.366 179.139 936.411 169.24 942 160C942.896 158.519 944.099 156.439 945 155C950.2 146.698 955.608 138.917 961 132C963.838 128.374 966.308 125.186 969 122C975.965 113.755 983.018 107.299 989 102C989.247 101.781 988.754 101.214 989 101C989.037 100.968 989.963 101.032 990 101C992.022 99.2426 993.092 97.4154 995 96C1002.9 90.1416 1010.05 87 1016 87C1024.23 87 1029 92.4717 1029 102C1029 102.738 1028.7 104.273 1028 107C1027.89 107.437 1027.13 107.512 1027 108C1026.8 108.747 1027.24 110.133 1027 111C1026.17 113.992 1024.33 117.582 1023 122C1022.92 122.265 1023.08 122.73 1023 123C1022 126.299 1021.27 129.936 1020 134C1018.96 137.325 1017.22 141.162 1016 145C1015.41 146.858 1014.63 148.022 1014 150C1013.83 150.529 1014.17 151.462 1014 152C1013.36 153.995 1012.68 155.887 1012 158C1011.77 158.721 1011.24 159.265 1011 160C1010.07 162.888 1009.01 165.899 1008 169C1008.01 168.96 1007.99 169.04 1008 169C1007.81 169.598 1008.2 170.394 1008 171C1007.32 173.103 1006.72 175.802 1006 178C1005.41 179.808 1004.61 181.127 1004 183C1002.58 187.345 1000.54 192.308 999 197L951 346H1006C1012.06 327.376 1017.94 307.923 1024 288C1028.07 275.416 1032.22 263.03 1037 251C1042.01 238.4 1048.21 225.993 1054 214C1054.05 213.895 1053.95 213.105 1054 213C1054.94 211.056 1056.04 209.928 1057 208C1057.65 206.705 1058.35 206.287 1059 205C1059.65 203.72 1060.35 202.256 1061 201C1062.89 197.345 1064.13 193.448 1066 190C1066 189.994 1066 190.006 1066 190C1068.56 185.29 1071.48 180.324 1074 176C1078.65 168.028 1083.46 160.661 1088 154C1088.81 152.812 1089.19 152.146 1090 151C1092.53 147.398 1095.5 144.19 1098 141C1100.81 137.445 1103.29 134.232 1106 131C1108.15 128.436 1109.92 125.361 1112 123C1114.36 120.321 1115.72 118.417 1118 116C1120.9 112.932 1124.23 109.646 1127 107C1127.71 106.318 1128.3 105.654 1129 105C1129.81 104.249 1130.2 103.714 1131 103C1131.37 102.665 1131.63 102.327 1132 102C1134.87 99.4751 1138.5 96.8558 1141 95C1147.95 89.8525 1152.86 87 1157 87C1165.66 87 1170 92.4717 1170 102C1170 103.413 1170.38 104.948 1170 107C1169.75 108.314 1169.4 109.423 1169 111C1168.87 111.491 1168.14 112.484 1168 113C1168.01 112.962 1167.99 113.038 1168 113C1167.95 113.237 1168.05 113.755 1168 114C1168.03 113.843 1167.97 114.154 1168 114C1167.39 116.837 1166.11 120.168 1165 124C1164.77 124.778 1165.25 126.181 1165 127C1164.93 127.241 1164.07 126.755 1164 127C1163.76 127.801 1164.26 129.161 1164 130C1163.42 131.868 1162.58 133.195 1162 135C1161.29 137.207 1160.71 139.887 1160 142C1159.13 144.569 1157.87 146.57 1157 149C1156.69 149.863 1156.33 151.067 1156 152C1155.35 153.811 1154.75 155.925 1154 158C1152.88 161.099 1151.34 164.312 1150 168C1149.94 168.173 1150.06 168.825 1150 169C1149.51 170.348 1149.52 171.574 1149 173C1148.12 175.41 1146.79 177.784 1146 180C1146.03 179.927 1145.97 180.073 1146 180C1145.43 181.607 1144.53 183.495 1144 185C1142.43 189.435 1141.18 193.457 1140 197C1140.03 196.919 1139.97 197.082 1140 197C1140.02 196.935 1139.98 197.064 1140 197C1137.4 204.366 1134.15 214.974 1129 230C1123.8 245.159 1119.03 256.338 1116 265C1112.97 273.662 1111.6 283.605 1109 294ZM790 70H745L728 105H726C725.967 104.77 726.035 104.228 726 104C724.7 95.4515 722.922 88.1455 719 82C717.504 79.6564 714.877 77.9941 713 76C706.503 68.6372 697.829 65 687 65C682.945 65 679.045 64.4184 675 65C652.69 68.2076 632 81.1021 610 102C608.901 103.025 607.079 103.961 606 105C606.012 104.988 605.988 105.012 606 105C596.777 113.884 588.809 123.098 581 133C573.543 142.455 566.168 152.617 560 163C555.515 170.551 551.804 177.959 548 186C546.723 188.701 545.17 191.349 544 194C534.862 214.713 528.569 233.29 526 251C526.011 250.923 525.989 251.077 526 251C525.017 257.845 525 264.604 525 271C525 276.738 525.514 282.91 526 288C527.244 301.034 529.571 311.213 534 320C536.328 324.618 539.792 329.555 543 333C554.695 345.56 567.974 351 584 351C590.017 351 595.889 350.084 602 348C605.032 346.966 608.945 345.547 612 344C621.407 339.236 630.372 332.627 640 323C643.008 319.992 646.145 316.257 649 313C650.586 311.19 652.461 309.887 654 308C654.899 306.897 655.117 305.129 656 304C663.809 294.017 670.456 283.039 677 271H678C677.943 271.205 678.057 271.796 678 272C677.609 273.407 677.361 274.669 677 276C673.006 290.724 671.311 300.483 671 306C670.974 306.466 671 307.6 671 308C671 328.98 677.321 342.189 690 348C693.296 349.511 696.847 350.514 701 351C702.968 351.23 704.84 351 707 351C715.689 351 724.364 349.56 733 346C737.911 343.976 743.107 341.175 748 338C752.038 335.38 755.974 332.404 760 329C767.256 322.866 774.782 315.679 782 307C782.119 306.857 781.881 306.144 782 306C782.803 305.029 783.197 305.002 784 304C784.288 303.641 784.712 302.363 785 302C793.511 291.252 802.541 279.294 811 265C811.123 264.793 810.877 264.208 811 264L805 261C800.031 268.868 794.811 275.637 790 282C787.256 285.63 784.693 288.86 782 292C777.39 297.375 772.459 302.059 768 306C763.383 310.081 758.455 313.457 754 316C746.635 320.204 739.923 323 733 323C728.995 323 726.153 321.315 724 319C721.866 316.706 720.315 313.569 720 309C719.974 308.616 720.014 308.4 720 308C719.986 307.576 720 306.442 720 306C720 302.986 720.32 299.47 721 295C721.148 294.025 720.819 293.044 721 292C721.414 289.606 722.416 286.758 723 284C723.011 283.946 722.988 284.054 723 284C723.032 283.848 722.967 284.153 723 284C723.735 280.569 725.007 276.983 726 273C727.101 268.584 728.583 263.095 730 258C730.567 255.962 730.382 254.146 731 252C734.76 238.932 739.361 225.094 745 208C745.623 206.112 746.354 203.937 747 202L790 70ZM709 170C707.526 175.628 705.927 180.704 704 187C703.98 187.065 704.02 187.934 704 188C704.006 187.978 703.994 188.022 704 188C702.009 194.853 699.216 201.542 697 208C691.387 224.352 685.06 238.181 678 252C677.57 252.843 677.436 254.167 677 255C676.356 256.231 675.656 256.79 675 258C673.296 261.124 672.762 264.051 671 267C670.738 267.438 670.263 268.566 670 269C666.129 275.39 662.149 281.444 658 287C652.75 294.031 647.696 300.305 642 306C641.335 306.665 640.658 307.365 640 308C637.438 310.472 634.455 312.983 632 315C623.414 322.055 615.275 325.514 608 327C606.059 327.396 603.848 328 602 328C593.878 328 588.006 324.897 584 318C581.275 313.307 579.82 306.885 579 299C578.647 295.607 578 291.985 578 288C578 283.386 579.183 277.214 580 271C582.097 255.049 586.519 234.493 594 208C594.023 207.92 593.977 208.08 594 208C603.999 172.646 615.8 143.75 629 122C629.045 121.926 628.955 122.074 629 122C629.459 121.246 629.537 120.738 630 120C643.846 97.8484 657.373 83.416 671 77C676.556 74.384 681.48 73 687 73C694.906 73 701.374 76.0381 706 82C706.063 82.0813 705.938 81.9176 706 82C708.978 85.9278 711.408 91.5537 713 98C713.013 98.0546 712.987 97.9452 713 98C713.646 100.644 714.585 103.935 715 107C715.743 112.49 716 118.16 716 125C716 136.233 713.789 151.709 709 170ZM133 84C131.213 85.4006 129.749 87.4433 128 89C122.685 93.7301 117.967 98.828 113 105C112.235 105.95 110.757 107.016 110 108C107.451 111.317 105.456 114.295 103 118C101.125 120.829 98.8205 123.944 97 127C94.4673 131.251 92.427 136.311 90 141C90.0098 140.981 89.9902 141.019 90 141L95 144C95.0899 143.859 94.9103 144.14 95 144C98.9649 137.814 103.312 132.151 107 127C113.188 118.358 118.591 110.728 124 105C129.51 99.1644 134.299 94.8114 139 92C139.01 91.994 139.99 92.006 140 92C144.359 89.3984 148.337 88 152 88C159.555 88 163.034 92.4357 164 101C164.006 101.049 163.995 100.951 164 101C164.131 102.214 165 103.616 165 105C165 110.437 163.738 115.899 163 122C162.99 122.08 163.01 122.92 163 123C162.936 123.524 163.07 123.471 163 124C162.962 124.292 163.04 124.706 163 125C161.848 133.436 160.519 142.333 158 152C157.954 152.176 157.046 152.823 157 153C155.546 158.536 153.9 164.063 152 170C151.717 170.884 152.293 172.107 152 173C151.782 173.6 151.431 173.774 151 175C150.693 175.873 150.415 177.809 150 179C146.652 188.594 139.37 206.793 129 237C129.012 236.964 128.988 237.036 129 237C128.136 239.518 126.913 242.339 126 245C125.404 246.787 124.583 249.249 124 251C120.414 261.776 117.104 271.565 114 281C107.701 300.15 102.31 316.375 98 330C96.2456 335.546 95.4248 341.37 94 346H145C153.198 320.999 163.923 292.431 176 262C176.056 261.858 175.944 262.142 176 262C176.63 260.414 177.36 258.6 178 257C178.866 254.848 179.15 253.106 180 251C184.822 239.048 189.709 227.481 194 217C195.551 213.212 196.519 210.596 198 207C200.107 201.885 203.033 196.727 205 192C205.232 191.443 204.77 190.552 205 190C205.03 189.928 204.97 190.072 205 190C205.062 189.851 205.938 190.148 206 190C213.395 172.261 219.637 157.112 225 145C225.357 144.193 225.652 142.782 226 142C226.773 140.265 226.272 138.612 227 137C228.817 132.978 230.459 129.256 232 126C232.867 124.168 234.221 122.59 235 121C235.918 119.2 236.088 117.654 237 116C237.709 114.716 238.295 113.196 239 112C241.55 107.675 244.496 104.167 247 101C247.352 100.555 247.649 100.422 248 100C249.234 98.516 250.777 97.2015 252 96C252.027 95.9733 251.973 96.0265 252 96C257.172 90.9428 262.026 88 267 88C267.56 88.0701 268.451 88.7486 269 89C270.122 89.5136 270.925 89.7295 272 91C273.532 92.8107 275.564 95.6519 277 99C277.112 99.2611 276.889 99.7295 277 100C277 100.464 276.969 100.598 277 101C277.085 102.098 277.683 103.366 278 104C278.793 107.489 278.902 110.15 280 113C280.237 113.615 280.749 114.414 281 115C282.53 118.567 284.942 121.538 287 124C288.753 126.098 289.864 127.704 292 129C292.388 129.236 293.599 129.791 294 130C294.536 130.28 294.441 130.768 295 131C297.738 132.138 300.719 132 304 132C307.055 132 310.366 132.01 313 131C316.341 129.719 319.336 126.906 322 124C327.198 118.37 330 110.961 330 101C330 100.563 330.01 100.43 330 100C329.945 97.7366 329.344 95.0644 329 93C328.931 92.5854 329.081 92.4065 329 92C328.137 87.6581 326.194 83.4268 324 80C324.01 80.0153 323.99 79.9847 324 80C322.616 77.8475 320.91 75.7906 319 74C316.493 71.4931 314.217 69.5395 311 68C308.43 66.7701 305.022 65.6125 302 65C299.001 64.3923 296.444 65 293 65C284.904 65 276.286 66.4893 269 70C269.22 69.8907 268.78 70.1061 269 70C268.463 70.2677 267.533 70.7131 267 71C259.156 75.2226 251.883 81.6123 245 90C242.648 92.793 240.464 96.2964 238 100C237.716 100.427 237.286 100.561 237 101C234.373 105.039 231.753 109.938 229 115C228.673 115.601 228.329 116.384 228 117C227.829 117.32 227.171 117.676 227 118C227.02 117.962 226.98 118.038 227 118C226.441 119.058 227.564 119.9 227 121C225.453 124.015 223.586 126.673 222 130C221.674 130.683 221.327 131.304 221 132C220.781 132.465 220.219 133.529 220 134C213.122 148.771 205.59 166.454 198 187H194C194.037 186.863 193.963 187.137 194 187C194.1 186.626 193.901 185.372 194 185C195.496 179.367 196.735 174.232 198 169C204.003 144.166 208.197 123.791 209 108C209.009 107.828 208.992 108.17 209 108C209.042 107.126 208.975 105.846 209 105C209.04 103.666 209 102.264 209 101C209 83.6392 203.874 72.934 193 68C190.53 66.8791 187.032 65.4796 184 65C181.733 64.6414 179.581 65 177 65C169.288 65 161.181 67.1028 152 72C146.227 75.0796 139.355 78.9837 133 84Z" fill="#F8F8F8"/>
<path d="M361 90H374V103H361V90Z" fill="#F8F8F8"/>
<path d="M348 90H361V103H348V90Z" fill="#F8F8F8"/>
<path d="M348 103H361V116H348V103Z" fill="#F8F8F8"/>
<path d="M335 116H348V129H335V116Z" fill="#F8F8F8"/>
<path d="M322 129H335V142H322V129Z" fill="#F8F8F8"/>
<path d="M322 142H335V155H322V142Z" fill="#F8F8F8"/>
<path d="M309 155H322V168H309V155Z" fill="#F8F8F8"/>
<path d="M309 168H322V181H309V168Z" fill="#F8F8F8"/>
<path d="M296 181H309V194H296V181Z" fill="#F8F8F8"/>
<path d="M296 194H309V207H296V194Z" fill="#F8F8F8"/>
<path d="M296 207H309V220H296V207Z" fill="#F8F8F8"/>
<path d="M296 218H309V231H296V218Z" fill="#F8F8F8"/>
<path d="M283 231H296V244H283V231Z" fill="#F8F8F8"/>
<path d="M283 244H296V257H283V244Z" fill="#F8F8F8"/>
<path d="M283 257H296V270H283V257Z" fill="#F8F8F8"/>
<path d="M296 270H309V283H296V270Z" fill="#F8F8F8"/>
<path d="M296 283H309V296H296V283Z" fill="#F8F8F8"/>
<path d="M296 296H309V309H296V296Z" fill="#F8F8F8"/>
<path d="M296 309H309V322H296V309Z" fill="#F8F8F8"/>
<path d="M309 322H322V335H309V322Z" fill="#F8F8F8"/>
<path d="M322 335H335V348H322V335Z" fill="#F8F8F8"/>
<path d="M335 335H348V348H335V335Z" fill="#F8F8F8"/>
<path d="M348 348H361V361H348V348Z" fill="#F8F8F8"/>
<path d="M361 348H374V361H361V348Z" fill="#F8F8F8"/>
<path d="M438 322H451V335H438V322Z" fill="#F8F8F8"/>
<path d="M412 335H425V348H412V335Z" fill="#F8F8F8"/>
<path d="M373 348H386V361H373V348Z" fill="#F8F8F8"/>
<path d="M386 348H399V361H386V348Z" fill="#F8F8F8"/>
<path d="M399 335H412V348H399V335Z" fill="#F8F8F8"/>
<path d="M425 322H438V335H425V322Z" fill="#F8F8F8"/>
<path d="M438 309H451V322H438V309Z" fill="#F8F8F8"/>
<path d="M451 309H464V322H451V309Z" fill="#F8F8F8"/>
<path d="M451 296H464V309H451V296Z" fill="#F8F8F8"/>
<path d="M477 270H490V283H477V270Z" fill="#F8F8F8"/>
<path d="M464 283H477V296H464V283Z" fill="#F8F8F8"/>
<path d="M464 296H477V309H464V296Z" fill="#F8F8F8"/>
<path d="M490 244H503V257H490V244Z" fill="#F8F8F8"/>
<path d="M490 257H503V270H490V257Z" fill="#F8F8F8"/>
<path d="M490 231H503V244H490V231Z" fill="#F8F8F8"/>
<path d="M503 231H516V244H503V231Z" fill="#F8F8F8"/>
<path d="M503 218H516V231H503V218Z" fill="#F8F8F8"/>
<path d="M516 168H529V181H516V168Z" fill="#F8F8F8"/>
<path d="M516 181H529V194H516V181Z" fill="#F8F8F8"/>
<path d="M503 194H516V207H503V194Z" fill="#F8F8F8"/>
<path d="M503 207H516V220H503V207Z" fill="#F8F8F8"/>
<path d="M516 155H529V168H516V155Z" fill="#F8F8F8"/>
<path d="M503 129H516V142H503V129Z" fill="#F8F8F8"/>
<path d="M516 142H529V155H516V142Z" fill="#F8F8F8"/>
<path d="M503 116H516V129H503V116Z" fill="#F8F8F8"/>
<path d="M490 90H503V103H490V90Z" fill="#F8F8F8"/>
<path d="M503 103H516V116H503V103Z" fill="#F8F8F8"/>
<path d="M464 65H477V78H464V65Z" fill="#F8F8F8"/>
<path d="M490 77H503V90H490V77Z" fill="#F8F8F8"/>
<path d="M438 65H451V78H438V65Z" fill="#F8F8F8"/>
<path d="M451 65H464V78H451V65Z" fill="#F8F8F8"/>
<path d="M477 65H490V78H477V65Z" fill="#F8F8F8"/>
<path d="M399 65H412V78H399V65Z" fill="#F8F8F8"/>
<path d="M386 65H399V78H386V65Z" fill="#F8F8F8"/>
<path d="M412 65H425V78H412V65Z" fill="#F8F8F8"/>
<path d="M425 65H438V78H425V65Z" fill="#F8F8F8"/>
<path d="M373 77H386V90H373V77Z" fill="#F8F8F8"/>
<path d="M373 116H386V129H373V116Z" fill="#F8F8F8"/>
<path d="M386 103H399V116H386V103Z" fill="#F8F8F8"/>
<path d="M373 129H386V142H373V129Z" fill="#F8F8F8"/>
<path d="M373 142H386V155H373V142Z" fill="#F8F8F8"/>
<path d="M361 155H374V168H361V155Z" fill="#F8F8F8"/>
<path d="M361 168H374V181H361V168Z" fill="#F8F8F8"/>
<path d="M361 181H374V194H361V181Z" fill="#F8F8F8"/>
<path d="M348 181H361V194H348V181Z" fill="#F8F8F8"/>
<path d="M348 194H361V207H348V194Z" fill="#F8F8F8"/>
<path d="M348 207H361V220H348V207Z" fill="#F8F8F8"/>
<path d="M348 218H361V231H348V218Z" fill="#F8F8F8"/>
<path d="M335 231H348V244H335V231Z" fill="#F8F8F8"/>
<path d="M335 244H348V257H335V244Z" fill="#F8F8F8"/>
<path d="M335 257H348V270H335V257Z" fill="#F8F8F8"/>
<path d="M335 270H348V283H335V270Z" fill="#F8F8F8"/>
<path d="M335 283H348V296H335V283Z" fill="#F8F8F8"/>
<path d="M335 296H348V309H335V296Z" fill="#F8F8F8"/>
<path d="M335 309H348V322H335V309Z" fill="#F8F8F8"/>
<path d="M335 322H348V335H335V322Z" fill="#F8F8F8"/>
<path d="M348 335H361V348H348V335Z" fill="#F8F8F8"/>
<path d="M361 335H374V348H361V335Z" fill="#F8F8F8"/>
<path d="M412 309H425V322H412V309Z" fill="#F8F8F8"/>
<path d="M399 322H412V335H399V322Z" fill="#F8F8F8"/>
<path d="M373 335H386V348H373V335Z" fill="#F8F8F8"/>
<path d="M386 335H399V348H386V335Z" fill="#F8F8F8"/>
<path d="M412 296H425V309H412V296Z" fill="#F8F8F8"/>
<path d="M425 283H438V296H425V283Z" fill="#F8F8F8"/>
<path d="M425 270H438V283H425V270Z" fill="#F8F8F8"/>
<path d="M451 218H464V231H451V218Z" fill="#F8F8F8"/>
<path d="M438 231H451V244H438V231Z" fill="#F8F8F8"/>
<path d="M438 244H451V257H438V244Z" fill="#F8F8F8"/>
<path d="M438 257H451V270H438V257Z" fill="#F8F8F8"/>
<path d="M451 207H464V220H451V207Z" fill="#F8F8F8"/>
<path d="M464 168H477V181H464V168Z" fill="#F8F8F8"/>
<path d="M451 181H464V194H451V181Z" fill="#F8F8F8"/>
<path d="M451 194H464V207H451V194Z" fill="#F8F8F8"/>
<path d="M464 155H477V168H464V155Z" fill="#F8F8F8"/>
<path d="M464 116H477V129H464V116Z" fill="#F8F8F8"/>
<path d="M464 129H477V142H464V129Z" fill="#F8F8F8"/>
<path d="M464 142H477V155H464V142Z" fill="#F8F8F8"/>
<path d="M464 103H477V116H464V103Z" fill="#F8F8F8"/>
<path d="M464 77H477V90H464V77Z" fill="#F8F8F8"/>
<path d="M464 90H477V103H464V90Z" fill="#F8F8F8"/>
<path d="M412 77H425V90H412V77Z" fill="#F8F8F8"/>
<path d="M399 90H412V103H399V90Z" fill="#F8F8F8"/>
<path d="M477 373H490V386H477V373Z" fill="#F8F8F8"/>
<path d="M451 386H468V399H451V386Z" fill="#F8F8F8"/>
<path d="M425 399H438V412H425V399Z" fill="#F8F8F8"/>
<path d="M373 412H386V425H373V412Z" fill="#F8F8F8"/>
<path d="M386 412H399V425H386V412Z" fill="#F8F8F8"/>
<path d="M399 399H412V412H399V399Z" fill="#F8F8F8"/>
<path d="M412 399H425V412H412V399Z" fill="#F8F8F8"/>
<path d="M438 395H451V412H438V395Z" fill="#F8F8F8"/>
<path d="M464 373H477V386H464V373Z" fill="#F8F8F8"/>
<path d="M361 412H374V425H361V412Z" fill="#F8F8F8"/>
<path d="M477 360H490V373H477V360Z" fill="#F8F8F8"/>
<path d="M257 360H270V373H257V360Z" fill="#F8F8F8"/>
<path d="M270 373H283V386H270V373Z" fill="#F8F8F8"/>
<path d="M283 374H335V402H283V374Z" fill="#F8F8F8"/>
<path d="M296 386H309V399H296V386Z" fill="#F8F8F8"/>
<path d="M330 399H343V408H330V399Z" fill="#F8F8F8"/>
<path d="M330 406H356V425H330V406Z" fill="#F8F8F8"/>
<path d="M348 412H361V425H348V412Z" fill="#F8F8F8"/>
<path d="M231 283H244V296H231V283Z" fill="#F8F8F8"/>
<path d="M227 292H244V309H227V292Z" fill="#F8F8F8"/>
<path d="M231 309H244V322H231V309Z" fill="#F8F8F8"/>
<path d="M231 322H257V335H231V322Z" fill="#F8F8F8"/>
<path d="M244 335H257V348H244V335Z" fill="#F8F8F8"/>
<path d="M244 348H263V361H244V348Z" fill="#F8F8F8"/>
<path d="M220 296H233V309H220V296Z" fill="#F8F8F8"/>
<path d="M220 309H233V322H220V309Z" fill="#F8F8F8"/>
<path d="M207 322H233V335H207V322Z" fill="#F8F8F8"/>
<path d="M207 335H220V348H207V335Z" fill="#F8F8F8"/>
<path d="M207 348H220V361H207V348Z" fill="#F8F8F8"/>
<path d="M194 360H220V373H194V360Z" fill="#F8F8F8"/>
<path d="M194 373H207V386H194V373Z" fill="#F8F8F8"/>
<path d="M194 386H207V399H194V386Z" fill="#F8F8F8"/>
<path d="M181 389H207V402H181V389Z" fill="#F8F8F8"/>
<path d="M24 322H39V335H24V322Z" fill="#F8F8F8"/>
<path d="M24 335H39V348H24V335Z" fill="#F8F8F8"/>
<path d="M13 348H26V361H13V348Z" fill="#F8F8F8"/>
<path d="M13 360H26V373H13V360Z" fill="#F8F8F8"/>
<path d="M13 373H26V388H13V373Z" fill="#F8F8F8"/>
<path d="M0 386H13V399H0V386Z" fill="#F8F8F8"/>
<path d="M0 389H13V402H0V389Z" fill="#F8F8F8"/>
<path d="M52 218H65V231H52V218Z" fill="#F8F8F8"/>
<path d="M52 231H65V244H52V231Z" fill="#F8F8F8"/>
<path d="M52 244H65V257H52V244Z" fill="#F8F8F8"/>
<path d="M37 257H65V270H37V257Z" fill="#F8F8F8"/>
<path d="M37 270H52V283H37V270Z" fill="#F8F8F8"/>
<path d="M37 283H52V296H37V283Z" fill="#F8F8F8"/>
<path d="M37 296H52V309H37V296Z" fill="#F8F8F8"/>
<path d="M24 309H39V322H24V309Z" fill="#F8F8F8"/>
<path d="M65 218H78V231H65V218Z" fill="#F8F8F8"/>
<path d="M65 207H78V220H65V207Z" fill="#F8F8F8"/>
<path d="M65 194H78V207H65V194Z" fill="#F8F8F8"/>
<path d="M22 116H35V129H22V116Z" fill="#F8F8F8"/>
<path d="M13 129H26V142H13V129Z" fill="#F8F8F8"/>
<path d="M0 142H34V155H0V142Z" fill="#F8F8F8"/>
<path d="M0 155H13V170H0V155Z" fill="#F8F8F8"/>
<path d="M22 103H39V116H22V103Z" fill="#F8F8F8"/>
<path d="M73 39H90V52H73V39Z" fill="#F8F8F8"/>
<path d="M60 52H77V65H60V52Z" fill="#F8F8F8"/>
<path d="M52 65H65V78H52V65Z" fill="#F8F8F8"/>
<path d="M34 77H53V90H34V77Z" fill="#F8F8F8"/>
<path d="M34 90H51V103H34V90Z" fill="#F8F8F8"/>
<path d="M86 26H103V39H86V26Z" fill="#F8F8F8"/>
<path d="M125 0H142V13H125V0Z" fill="#F8F8F8"/>
<path d="M103 13H116V26H103V13Z" fill="#F8F8F8"/>
<path d="M116 13H129V26H116V13Z" fill="#F8F8F8"/>
<path d="M142 0H155V13H142V0Z" fill="#F8F8F8"/>
<path d="M155 0H168V13H155V0Z" fill="#F8F8F8"/>
<path d="M168 0H181V13H168V0Z" fill="#F8F8F8"/>
<path d="M207 0H220V13H207V0Z" fill="#F8F8F8"/>
<path d="M181 0H194V13H181V0Z" fill="#F8F8F8"/>
<path d="M194 0H207V13H194V0Z" fill="#F8F8F8"/>
<path d="M220 0H252V22H220V0Z" fill="#F8F8F8"/>
<path d="M231 13H244V26H231V13Z" fill="#F8F8F8"/>
<path d="M244 0H257V13H244V0Z" fill="#F8F8F8"/>
<path d="M257 0H270V13H257V0Z" fill="#F8F8F8"/>
<path d="M270 0H283V13H270V0Z" fill="#F8F8F8"/>
<path d="M283 0H296V13H283V0Z" fill="#F8F8F8"/>
<path d="M322 0H335V13H322V0Z" fill="#F8F8F8"/>
<path d="M348 13H361V26H348V13Z" fill="#F8F8F8"/>
<path d="M296 0H309V13H296V0Z" fill="#F8F8F8"/>
<path d="M309 0H322V13H309V0Z" fill="#F8F8F8"/>
<path d="M335 0H348V17H335V0Z" fill="#F8F8F8"/>
<path d="M386 0H399V13H386V0Z" fill="#F8F8F8"/>
<path d="M361 13H374V26H361V13Z" fill="#F8F8F8"/>
<path d="M373 0H386V22H373V0Z" fill="#F8F8F8"/>
<path d="M399 0H412V13H399V0Z" fill="#F8F8F8"/>
<path d="M412 0H425V13H412V0Z" fill="#F8F8F8"/>
<path d="M425 0H438V13H425V0Z" fill="#F8F8F8"/>
<path d="M438 0H451V13H438V0Z" fill="#F8F8F8"/>
<path d="M477 0H490V13H477V0Z" fill="#F8F8F8"/>
<path d="M503 13H516V26H503V13Z" fill="#F8F8F8"/>
<path d="M522 26H541V43H522V26Z" fill="#F8F8F8"/>
<path d="M541 39H554V52H541V39Z" fill="#F8F8F8"/>
<path d="M451 0H464V13H451V0Z" fill="#F8F8F8"/>
<path d="M464 0H477V13H464V0Z" fill="#F8F8F8"/>
<path d="M490 0H505V13H490V0Z" fill="#F8F8F8"/>
<path d="M516 13H529V26H516V13Z" fill="#F8F8F8"/>
<path d="M541 52H554V65H541V52Z" fill="#F8F8F8"/>
<path d="M554 52H571V65H554V52Z" fill="#F8F8F8"/>
<path d="M625 0H644V13H625V0Z" fill="#F8F8F8"/>
<path d="M602 13H619V26H602V13Z" fill="#F8F8F8"/>
<path d="M580 26H593V39L580 45V26Z" fill="#F8F8F8"/>
<path d="M567 39H580V52H567V39Z" fill="#F8F8F8"/>
<path d="M593 26H606V39H593V26Z" fill="#F8F8F8"/>
<path d="M619 13H632V26H619V13Z" fill="#F8F8F8"/>
<path d="M645 0H658V13H645V0Z" fill="#F8F8F8"/>
<path d="M658 0H671V13H658V0Z" fill="#F8F8F8"/>
<path d="M670 0H683V13H670V0Z" fill="#F8F8F8"/>
<path d="M682 0H695V13H682V0Z" fill="#F8F8F8"/>
<path d="M695 0H708V13H695V0Z" fill="#F8F8F8"/>
<path d="M708 0H721V13H708V0Z" fill="#F8F8F8"/>
<path d="M721 0H734V13H721V0Z" fill="#F8F8F8"/>
<path d="M863 0H876V13H863V0Z" fill="#F8F8F8"/>
<path d="M876 0H889V13H876V0Z" fill="#F8F8F8"/>
<path d="M889 0H902V13H889V0Z" fill="#F8F8F8"/>
<path d="M928 0H941V13H928V0Z" fill="#F8F8F8"/>
<path d="M954 13H967V26H954V13Z" fill="#F8F8F8"/>
<path d="M902 0H915V13H902V0Z" fill="#F8F8F8"/>
<path d="M915 0H928V13H915V0Z" fill="#F8F8F8"/>
<path d="M941 0H954V26H941V0Z" fill="#F8F8F8"/>
<path d="M986 0H1005V13H986V0Z" fill="#F8F8F8"/>
<path d="M967 13H980V26H967V13Z" fill="#F8F8F8"/>
<path d="M979 13H992V26H979V13Z" fill="#F8F8F8"/>
<path d="M1005 0H1018V13H1005V0Z" fill="#F8F8F8"/>
<path d="M1018 0H1031V13H1018V0Z" fill="#F8F8F8"/>
<path d="M1031 0H1044V13H1031V0Z" fill="#F8F8F8"/>
<path d="M1070 0H1083V13H1070V0Z" fill="#F8F8F8"/>
<path d="M1096 13H1109V26H1096V13Z" fill="#F8F8F8"/>
<path d="M1044 0H1057V13H1044V0Z" fill="#F8F8F8"/>
<path d="M1057 0H1070V13H1057V0Z" fill="#F8F8F8"/>
<path d="M1083 0H1096V22H1083V0Z" fill="#F8F8F8"/>
<path d="M1133 0H1146V13H1133V0Z" fill="#F8F8F8"/>
<path d="M1109 13H1122V26H1109V13Z" fill="#F8F8F8"/>
<path d="M1120 0H1133V22H1120V0Z" fill="#F8F8F8"/>
<path d="M1146 0H1159V13H1146V0Z" fill="#F8F8F8"/>
<path d="M1159 0H1172V13H1159V0Z" fill="#F8F8F8"/>
<path d="M1172 0H1185V13H1172V0Z" fill="#F8F8F8"/>
<path d="M1211 0H1224V13H1211V0Z" fill="#F8F8F8"/>
<path d="M1237 13H1250V39H1237V13Z" fill="#F8F8F8"/>
<path d="M1250 26H1263V52H1250V26Z" fill="#F8F8F8"/>
<path d="M1185 0H1198V13H1185V0Z" fill="#F8F8F8"/>
<path d="M1198 0H1211V13H1198V0Z" fill="#F8F8F8"/>
<path d="M1224 0H1237V26H1224V0Z" fill="#F8F8F8"/>
<path d="M1263 39H1276V52H1263V39Z" fill="#F8F8F8"/>
<path d="M1263 52H1276V65H1263V52Z" fill="#F8F8F8"/>
<path d="M1275 65H1288V78H1275V65Z" fill="#F8F8F8"/>
<path d="M1275 77H1288V90H1275V77Z" fill="#F8F8F8"/>
<path d="M1275 90H1288V103H1275V90Z" fill="#F8F8F8"/>
<path d="M1275 103H1288V116H1275V103Z" fill="#F8F8F8"/>
<path d="M1275 116H1288V129H1275V116Z" fill="#F8F8F8"/>
<path d="M1275 129H1288V142H1275V129Z" fill="#F8F8F8"/>
<path d="M1275 142H1288V155H1275V142Z" fill="#F8F8F8"/>
<path d="M1263 155H1276V168H1263V155Z" fill="#F8F8F8"/>
<path d="M1263 168H1276V181H1263V168Z" fill="#F8F8F8"/>
<path d="M1263 181H1276V194H1263V181Z" fill="#F8F8F8"/>
<path d="M1250 194H1263V207H1250V194Z" fill="#F8F8F8"/>
<path d="M1327 231H1340V244H1327V231Z" fill="#F8F8F8"/>
<path d="M1318 244H1340V257H1318V244Z" fill="#F8F8F8"/>
<path d="M1314 257H1327V276H1314V257Z" fill="#F8F8F8"/>
<path d="M1301 270H1314V283H1301V270Z" fill="#F8F8F8"/>
<path d="M1295 283H1314V296H1295V283Z" fill="#F8F8F8"/>
<path d="M1288 296H1301V309H1288V296Z" fill="#F8F8F8"/>
<path d="M1288 309H1301V322H1288V309Z" fill="#F8F8F8"/>
<path d="M1267 313H1289V335H1267V313Z" fill="#F8F8F8"/>
<path d="M1263 335H1276V348H1263V335Z" fill="#F8F8F8"/>
<path d="M1250 348H1265V361H1250V348Z" fill="#F8F8F8"/>
<path d="M1237 360H1252V373H1237V360Z" fill="#F8F8F8"/>
<path d="M1237 373H1252V386H1237V373Z" fill="#F8F8F8"/>
<path d="M1224 373H1237V386H1224V373Z" fill="#F8F8F8"/>
<path d="M1211 380H1224V399H1211V380Z" fill="#F8F8F8"/>
<path d="M1185 399H1202V412H1185V399Z" fill="#F8F8F8"/>
<path d="M1133 412H1146V425H1133V412Z" fill="#F8F8F8"/>
<path d="M1146 412H1159V425H1146V412Z" fill="#F8F8F8"/>
<path d="M1159 403H1172V425H1159V403Z" fill="#F8F8F8"/>
<path d="M1172 399H1185V412H1172V399Z" fill="#F8F8F8"/>
<path d="M1198 386H1211V399H1198V386Z" fill="#F8F8F8"/>
<path d="M1070 386H1083V399H1070V386Z" fill="#F8F8F8"/>
<path d="M1081 399H1096V412H1081V399Z" fill="#F8F8F8"/>
<path d="M1096 399H1109V412H1096V399Z" fill="#F8F8F8"/>
<path d="M1109 412H1122V425H1109V412Z" fill="#F8F8F8"/>
<path d="M1120 412H1133V425H1120V412Z" fill="#F8F8F8"/>
<path d="M1057 373H1070V386H1057V373Z" fill="#F8F8F8"/>
<path d="M1096 348H1109V361H1096V348Z" fill="#F8F8F8"/>
<path d="M1083 360H1096V373H1083V360Z" fill="#F8F8F8"/>
<path d="M1070 373H1083V386H1070V373Z" fill="#F8F8F8"/>
<path d="M1057 386H1070V399H1057V386Z" fill="#F8F8F8"/>
<path d="M1044 393H1057V412H1044V393Z" fill="#F8F8F8"/>
<path d="M708 412H721V425H708V412Z" fill="#F8F8F8"/>
<path d="M721 412H740V425H721V412Z" fill="#F8F8F8"/>
<path d="M734 399H747V412H734V399Z" fill="#F8F8F8"/>
<path d="M695 412H708V425H695V412Z" fill="#F8F8F8"/>
<path d="M658 399H671V412H658V399Z" fill="#F8F8F8"/>
<path d="M645 399H658V412H645V399Z" fill="#F8F8F8"/>
<path d="M670 399H683V412H670V399Z" fill="#F8F8F8"/>
<path d="M678 412H695V425H678V412Z" fill="#F8F8F8"/>
<path d="M645 386H658V399H645V386Z" fill="#F8F8F8"/>
<path d="M632 399H645V412H632V399Z" fill="#F8F8F8"/>
<path d="M580 412H593V425H580V412Z" fill="#F8F8F8"/>
<path d="M593 412H606V425H593V412Z" fill="#F8F8F8"/>
<path d="M606 408H619V425H606V408Z" fill="#F8F8F8"/>
<path d="M619 399H632V412H619V399Z" fill="#F8F8F8"/>
<path d="M488 367H507V386H488V367Z" fill="#F8F8F8"/>
<path d="M503 386H516V399H503V386Z" fill="#F8F8F8"/>
<path d="M522 399H541V412H522V399Z" fill="#F8F8F8"/>
<path d="M516 386H529V399H516V386Z" fill="#F8F8F8"/>
<path d="M541 399H554V412H541V399Z" fill="#F8F8F8"/>
<path d="M554 412H567V425H554V412Z" fill="#F8F8F8"/>
<path d="M567 412H580V425H567V412Z" fill="#F8F8F8"/>
<path d="M1096 296H1109V309H1096V296Z" fill="#F8F8F8"/>
<path d="M1096 309H1109V322H1096V309Z" fill="#F8F8F8"/>
<path d="M1096 283H1109V296H1096V283Z" fill="#F8F8F8"/>
<path d="M1096 322H1109V335H1096V322Z" fill="#F8F8F8"/>
<path d="M1109 335H1122V348H1109V335Z" fill="#F8F8F8"/>
<path d="M1120 348H1133V361H1120V348Z" fill="#F8F8F8"/>
<path d="M1133 348H1146V361H1133V348Z" fill="#F8F8F8"/>
<path d="M1146 348H1159V361H1146V348Z" fill="#F8F8F8"/>
<path d="M1159 335H1172V348H1159V335Z" fill="#F8F8F8"/>
<path d="M1185 322H1198V335H1185V322Z" fill="#F8F8F8"/>
<path d="M1172 335H1185V348H1172V335Z" fill="#F8F8F8"/>
<path d="M1198 309H1211V322H1198V309Z" fill="#F8F8F8"/>
<path d="M1211 296H1224V309H1211V296Z" fill="#F8F8F8"/>
<path d="M1224 283H1237V296H1224V283Z" fill="#F8F8F8"/>
<path d="M1224 270H1237V283H1224V270Z" fill="#F8F8F8"/>
<path d="M1237 257H1250V270H1237V257Z" fill="#F8F8F8"/>
<path d="M1224 257H1237V270H1224V257Z" fill="#F8F8F8"/>
<path d="M1211 283H1224V296H1211V283Z" fill="#F8F8F8"/>
<path d="M1198 296H1211V309H1198V296Z" fill="#F8F8F8"/>
<path d="M1185 309H1198V322H1185V309Z" fill="#F8F8F8"/>
<path d="M1172 309H1185V322H1172V309Z" fill="#F8F8F8"/>
<path d="M1159 322H1172V335H1159V322Z" fill="#F8F8F8"/>
<path d="M1159 309H1172V322H1159V309Z" fill="#F8F8F8"/>
<path d="M1146 309H1159V322H1146V309Z" fill="#F8F8F8"/>
<path d="M1146 296H1159V309H1146V296Z" fill="#F8F8F8"/>
<path d="M1159 296H1172V309H1159V296Z" fill="#F8F8F8"/>
<path d="M1159 283H1172V296H1159V283Z" fill="#F8F8F8"/>
<path d="M1159 270H1172V283H1159V270Z" fill="#F8F8F8"/>
<path d="M1159 257H1172V270H1159V257Z" fill="#F8F8F8"/>
<path d="M1172 257H1185V270H1172V257Z" fill="#F8F8F8"/>
<path d="M1172 244H1185V257H1172V244Z" fill="#F8F8F8"/>
<path d="M1172 231H1185V244H1172V231Z" fill="#F8F8F8"/>
<path d="M1172 218H1185V231H1172V218Z" fill="#F8F8F8"/>
<path d="M1185 207H1198V220H1185V207Z" fill="#F8F8F8"/>
<path d="M1185 194H1198V207H1185V194Z" fill="#F8F8F8"/>
<path d="M1185 181H1198V194H1185V181Z" fill="#F8F8F8"/>
<path d="M1198 168H1211V181H1198V168Z" fill="#F8F8F8"/>
<path d="M1198 155H1211V168H1198V155Z" fill="#F8F8F8"/>
<path d="M1198 142H1211V155H1198V142Z" fill="#F8F8F8"/>
<path d="M1211 142H1224V155H1211V142Z" fill="#F8F8F8"/>
<path d="M1211 129H1224V142H1211V129Z" fill="#F8F8F8"/>
<path d="M1211 116H1224V129H1211V116Z" fill="#F8F8F8"/>
<path d="M1211 103H1224V116H1211V103Z" fill="#F8F8F8"/>
<path d="M1211 90H1224V103H1211V90Z" fill="#F8F8F8"/>
<path d="M1211 77H1224V90H1211V77Z" fill="#F8F8F8"/>
<path d="M1198 65H1211V78H1198V65Z" fill="#F8F8F8"/>
<path d="M1185 65H1198V78H1185V65Z" fill="#F8F8F8"/>
<path d="M1172 65H1185V78H1172V65Z" fill="#F8F8F8"/>
<path d="M1159 65H1172V78H1159V65Z" fill="#F8F8F8"/>
<path d="M1146 65H1159V78H1146V65Z" fill="#F8F8F8"/>
<path d="M1133 77H1146V90H1133V77Z" fill="#F8F8F8"/>
<path d="M1120 90H1133V103H1120V90Z" fill="#F8F8F8"/>
<path d="M1109 90H1122V103H1109V90Z" fill="#F8F8F8"/>
<path d="M1109 103H1122V116H1109V103Z" fill="#F8F8F8"/>
<path d="M1096 103H1109V116H1096V103Z" fill="#F8F8F8"/>
<path d="M1096 116H1109V129H1096V116Z" fill="#F8F8F8"/>
<path d="M1083 129H1096V142H1083V129Z" fill="#F8F8F8"/>
<path d="M1070 142H1083V155H1070V142Z" fill="#F8F8F8"/>
<path d="M1070 155H1083V168H1070V155Z" fill="#F8F8F8"/>
<path d="M1057 168H1070V181H1057V168Z" fill="#F8F8F8"/>
<path d="M1057 181H1070V194H1057V181Z" fill="#F8F8F8"/>
<path d="M1044 181H1057V194H1044V181Z" fill="#F8F8F8"/>
<path d="M1070 129H1083V142H1070V129Z" fill="#F8F8F8"/>
<path d="M1057 142H1070V155H1057V142Z" fill="#F8F8F8"/>
<path d="M1057 155H1070V168H1057V155Z" fill="#F8F8F8"/>
<path d="M1070 116H1083V129H1070V116Z" fill="#F8F8F8"/>
<path d="M1070 103H1083V116H1070V103Z" fill="#F8F8F8"/>
<path d="M1070 90H1083V103H1070V90Z" fill="#F8F8F8"/>
<path d="M1070 77H1083V90H1070V77Z" fill="#F8F8F8"/>
<path d="M1057 65H1070V78H1057V65Z" fill="#F8F8F8"/>
<path d="M1044 65H1057V78H1044V65Z" fill="#F8F8F8"/>
<path d="M1031 65H1044V78H1031V65Z" fill="#F8F8F8"/>
<path d="M1018 65H1031V78H1018V65Z" fill="#F8F8F8"/>
<path d="M1005 65H1018V78H1005V65Z" fill="#F8F8F8"/>
<path d="M992 77H1005V90H992V77Z" fill="#F8F8F8"/>
<path d="M979 90H992V103H979V90Z" fill="#F8F8F8"/>
<path d="M967 90H980V103H967V90Z" fill="#F8F8F8"/>
<path d="M967 103H980V116H967V103Z" fill="#F8F8F8"/>
<path d="M954 103H967V116H954V103Z" fill="#F8F8F8"/>
<path d="M954 116H967V129H954V116Z" fill="#F8F8F8"/>
<path d="M941 116H954V129H941V116Z" fill="#F8F8F8"/>
<path d="M941 129H954V142H941V129Z" fill="#F8F8F8"/>
<path d="M928 142H941V155H928V142Z" fill="#F8F8F8"/>
<path d="M928 155H941V168H928V155Z" fill="#F8F8F8"/>
<path d="M915 168H928V181H915V168Z" fill="#F8F8F8"/>
<path d="M915 181H928V194H915V181Z" fill="#F8F8F8"/>
<path d="M902 181H915V194H902V181Z" fill="#F8F8F8"/>
<path d="M928 103H941V116H928V103Z" fill="#F8F8F8"/>
<path d="M928 116H941V129H928V116Z" fill="#F8F8F8"/>
<path d="M915 129H928V142H915V129Z" fill="#F8F8F8"/>
<path d="M915 142H928V155H915V142Z" fill="#F8F8F8"/>
<path d="M915 155H928V168H915V155Z" fill="#F8F8F8"/>
<path d="M928 90H941V103H928V90Z" fill="#F8F8F8"/>
<path d="M928 77H941V90H928V77Z" fill="#F8F8F8"/>
<path d="M915 65H928V78H915V65Z" fill="#F8F8F8"/>
<path d="M902 65H915V78H902V65Z" fill="#F8F8F8"/>
<path d="M889 65H902V78H889V65Z" fill="#F8F8F8"/>
<path d="M863 65H876V78H863V65Z" fill="#F8F8F8"/>
<path d="M876 65H889V78H876V65Z" fill="#F8F8F8"/>
<path d="M850 77H863V90H850V77Z" fill="#F8F8F8"/>
<path d="M837 77H850V90H837V77Z" fill="#F8F8F8"/>
<path d="M837 90H850V103H837V90Z" fill="#F8F8F8"/>
<path d="M824 103H837V116H824V103Z" fill="#F8F8F8"/>
<path d="M812 116H825V129H812V116Z" fill="#F8F8F8"/>
<path d="M812 129H825V142H812V129Z" fill="#F8F8F8"/>
<path d="M799 129H812V142H799V129Z" fill="#F8F8F8"/>
<path d="M812 142H825V155H812V142Z" fill="#F8F8F8"/>
<path d="M824 129H837V142H824V129Z" fill="#F8F8F8"/>
<path d="M824 116H837V129H824V116Z" fill="#F8F8F8"/>
<path d="M837 103H850V116H837V103Z" fill="#F8F8F8"/>
<path d="M850 90H863V103H850V90Z" fill="#F8F8F8"/>
<path d="M863 77H876V90H863V77Z" fill="#F8F8F8"/>
<path d="M876 90H889V103H876V90Z" fill="#F8F8F8"/>
<path d="M876 103H889V116H876V103Z" fill="#F8F8F8"/>
<path d="M876 116H889V129H876V116Z" fill="#F8F8F8"/>
<path d="M876 129H889V142H876V129Z" fill="#F8F8F8"/>
<path d="M876 142H889V155H876V142Z" fill="#F8F8F8"/>
<path d="M863 155H876V168H863V155Z" fill="#F8F8F8"/>
<path d="M863 168H876V181H863V168Z" fill="#F8F8F8"/>
<path d="M863 181H876V194H863V181Z" fill="#F8F8F8"/>
<path d="M850 194H863V207H850V194Z" fill="#F8F8F8"/>
<path d="M850 207H863V220H850V207Z" fill="#F8F8F8"/>
<path d="M850 218H863V231H850V218Z" fill="#F8F8F8"/>
<path d="M837 231H850V244H837V231Z" fill="#F8F8F8"/>
<path d="M837 244H850V257H837V244Z" fill="#F8F8F8"/>
<path d="M837 257H850V270H837V257Z" fill="#F8F8F8"/>
<path d="M824 270H837V283H824V270Z" fill="#F8F8F8"/>
<path d="M824 283H837V296H824V283Z" fill="#F8F8F8"/>
<path d="M824 296H837V309H824V296Z" fill="#F8F8F8"/>
<path d="M812 309H825V322H812V309Z" fill="#F8F8F8"/>
<path d="M812 322H825V335H812V322Z" fill="#F8F8F8"/>
<path d="M812 335H825V348H812V335Z" fill="#F8F8F8"/>
<path d="M889 257H902V270H889V257Z" fill="#F8F8F8"/>
<path d="M889 270H902V283H889V270Z" fill="#F8F8F8"/>
<path d="M876 283H889V296H876V283Z" fill="#F8F8F8"/>
<path d="M876 296H889V309H876V296Z" fill="#F8F8F8"/>
<path d="M863 309H876V322H863V309Z" fill="#F8F8F8"/>
<path d="M863 322H876V335H863V322Z" fill="#F8F8F8"/>
<path d="M863 335H876V348H863V335Z" fill="#F8F8F8"/>
<path d="M889 244H902V257H889V244Z" fill="#F8F8F8"/>
<path d="M902 207H915V220H902V207Z" fill="#F8F8F8"/>
<path d="M902 218H915V231H902V218Z" fill="#F8F8F8"/>
<path d="M902 231H915V244H902V231Z" fill="#F8F8F8"/>
<path d="M915 194H928V207H915V194Z" fill="#F8F8F8"/>
<path d="M928 168H941V181H928V168Z" fill="#F8F8F8"/>
<path d="M941 155H954V168H941V155Z" fill="#F8F8F8"/>
<path d="M954 129H967V142H954V129Z" fill="#F8F8F8"/>
<path d="M941 142H954V155H941V142Z" fill="#F8F8F8"/>
<path d="M967 116H980V129H967V116Z" fill="#F8F8F8"/>
<path d="M979 103H992V116H979V103Z" fill="#F8F8F8"/>
<path d="M992 90H1005V103H992V90Z" fill="#F8F8F8"/>
<path d="M1005 77H1018V90H1005V77Z" fill="#F8F8F8"/>
<path d="M1018 90H1031V103H1018V90Z" fill="#F8F8F8"/>
<path d="M1018 103H1031V116H1018V103Z" fill="#F8F8F8"/>
<path d="M1018 116H1031V129H1018V116Z" fill="#F8F8F8"/>
<path d="M1018 129H1031V142H1018V129Z" fill="#F8F8F8"/>
<path d="M1005 142H1018V155H1005V142Z" fill="#F8F8F8"/>
<path d="M1005 155H1018V168H1005V155Z" fill="#F8F8F8"/>
<path d="M1005 168H1018V181H1005V168Z" fill="#F8F8F8"/>
<path d="M992 168H1005V181H992V168Z" fill="#F8F8F8"/>
<path d="M992 181H1005V194H992V181Z" fill="#F8F8F8"/>
<path d="M992 194H1005V207H992V194Z" fill="#F8F8F8"/>
<path d="M954 335H967V348H954V335Z" fill="#F8F8F8"/>
<path d="M967 335H980V348H967V335Z" fill="#F8F8F8"/>
<path d="M979 335H992V348H979V335Z" fill="#F8F8F8"/>
<path d="M992 335H1005V348H992V335Z" fill="#F8F8F8"/>
<path d="M1005 335H1018V348H1005V335Z" fill="#F8F8F8"/>
<path d="M941 335H954V348H941V335Z" fill="#F8F8F8"/>
<path d="M1018 283H1031V296H1018V283Z" fill="#F8F8F8"/>
<path d="M1018 296H1031V309H1018V296Z" fill="#F8F8F8"/>
<path d="M1005 309H1018V322H1005V309Z" fill="#F8F8F8"/>
<path d="M1005 322H1018V335H1005V322Z" fill="#F8F8F8"/>
<path d="M1031 244H1044V257H1031V244Z" fill="#F8F8F8"/>
<path d="M1031 257H1044V270H1031V257Z" fill="#F8F8F8"/>
<path d="M1018 270H1031V283H1018V270Z" fill="#F8F8F8"/>
<path d="M1044 218H1057V231H1044V218Z" fill="#F8F8F8"/>
<path d="M1031 231H1044V244H1031V231Z" fill="#F8F8F8"/>
<path d="M1044 207H1057V220H1044V207Z" fill="#F8F8F8"/>
<path d="M1057 194H1070V207H1057V194Z" fill="#F8F8F8"/>
<path d="M1070 168H1083V181H1070V168Z" fill="#F8F8F8"/>
<path d="M1083 142H1096V155H1083V142Z" fill="#F8F8F8"/>
<path d="M1096 129H1109V142H1096V129Z" fill="#F8F8F8"/>
<path d="M1109 116H1122V129H1109V116Z" fill="#F8F8F8"/>
<path d="M1120 103H1133V116H1120V103Z" fill="#F8F8F8"/>
<path d="M1133 90H1146V103H1133V90Z" fill="#F8F8F8"/>
<path d="M1146 77H1159V90H1146V77Z" fill="#F8F8F8"/>
<path d="M1159 90H1172V103H1159V90Z" fill="#F8F8F8"/>
<path d="M1159 77H1172V90H1159V77Z" fill="#F8F8F8"/>
<path d="M1159 103H1172V116H1159V103Z" fill="#F8F8F8"/>
<path d="M1159 116H1172V129H1159V116Z" fill="#F8F8F8"/>
<path d="M1159 129H1172V142H1159V129Z" fill="#F8F8F8"/>
<path d="M1146 142H1159V155H1146V142Z" fill="#F8F8F8"/>
<path d="M1146 155H1159V168H1146V155Z" fill="#F8F8F8"/>
<path d="M1146 168H1159V181H1146V168Z" fill="#F8F8F8"/>
<path d="M1133 168H1146V181H1133V168Z" fill="#F8F8F8"/>
<path d="M1133 181H1146V194H1133V181Z" fill="#F8F8F8"/>
<path d="M1133 194H1146V207H1133V194Z" fill="#F8F8F8"/>
<path d="M1133 207H1146V220H1133V207Z" fill="#F8F8F8"/>
<path d="M1120 218H1133V231H1120V218Z" fill="#F8F8F8"/>
<path d="M1120 231H1133V244H1120V231Z" fill="#F8F8F8"/>
<path d="M1120 244H1133V257H1120V244Z" fill="#F8F8F8"/>
<path d="M1109 257H1122V270H1109V257Z" fill="#F8F8F8"/>
<path d="M1109 270H1122V283H1109V270Z" fill="#F8F8F8"/>
<path d="M1109 283H1122V296H1109V283Z" fill="#F8F8F8"/>
<path d="M721 103H734V116H721V103Z" fill="#F8F8F8"/>
<path d="M708 77H721V90H708V77Z" fill="#F8F8F8"/>
<path d="M721 90H734V103H721V90Z" fill="#F8F8F8"/>
<path d="M708 65H721V78H708V65Z" fill="#F8F8F8"/>
<path d="M695 65H708V78H695V65Z" fill="#F8F8F8"/>
<path d="M682 65H695V78H682V65Z" fill="#F8F8F8"/>
<path d="M670 65H683V78H670V65Z" fill="#F8F8F8"/>
<path d="M645 65H658V78H645V65Z" fill="#F8F8F8"/>
<path d="M619 77H632V90H619V77Z" fill="#F8F8F8"/>
<path d="M606 90H619V103H606V90Z" fill="#F8F8F8"/>
<path d="M632 77H645V90H632V77Z" fill="#F8F8F8"/>
<path d="M658 65H671V78H658V65Z" fill="#F8F8F8"/>
<path d="M593 103H606V116H593V103Z" fill="#F8F8F8"/>
<path d="M580 116H593V129H580V116Z" fill="#F8F8F8"/>
<path d="M580 129H593V142H580V129Z" fill="#F8F8F8"/>
<path d="M567 129H580V142H567V129Z" fill="#F8F8F8"/>
<path d="M567 142H580V155H567V142Z" fill="#F8F8F8"/>
<path d="M554 155H567V168H554V155Z" fill="#F8F8F8"/>
<path d="M541 168H554V181H541V168Z" fill="#F8F8F8"/>
<path d="M541 181H554V194H541V181Z" fill="#F8F8F8"/>
<path d="M541 194H554V207H541V194Z" fill="#F8F8F8"/>
<path d="M528 194H541V207H528V194Z" fill="#F8F8F8"/>
<path d="M528 207H541V220H528V207Z" fill="#F8F8F8"/>
<path d="M528 218H541V231H528V218Z" fill="#F8F8F8"/>
<path d="M528 231H541V244H528V231Z" fill="#F8F8F8"/>
<path d="M516 244H529V257H516V244Z" fill="#F8F8F8"/>
<path d="M516 257H529V270H516V257Z" fill="#F8F8F8"/>
<path d="M516 270H529V283H516V270Z" fill="#F8F8F8"/>
<path d="M516 283H529V296H516V283Z" fill="#F8F8F8"/>
<path d="M516 296H529V309H516V296Z" fill="#F8F8F8"/>
<path d="M528 309H541V322H528V309Z" fill="#F8F8F8"/>
<path d="M528 322H541V335H528V322Z" fill="#F8F8F8"/>
<path d="M541 322H554V335H541V322Z" fill="#F8F8F8"/>
<path d="M541 335H554V348H541V335Z" fill="#F8F8F8"/>
<path d="M554 335H567V348H554V335Z" fill="#F8F8F8"/>
<path d="M567 348H580V361H567V348Z" fill="#F8F8F8"/>
<path d="M580 348H593V361H580V348Z" fill="#F8F8F8"/>
<path d="M593 348H606V361H593V348Z" fill="#F8F8F8"/>
<path d="M606 335H619V348H606V335Z" fill="#F8F8F8"/>
<path d="M632 322H645V335H632V322Z" fill="#F8F8F8"/>
<path d="M619 335H632V348H619V335Z" fill="#F8F8F8"/>
<path d="M645 309H658V322H645V309Z" fill="#F8F8F8"/>
<path d="M645 296H658V309H645V296Z" fill="#F8F8F8"/>
<path d="M670 270H683V283H670V270Z" fill="#F8F8F8"/>
<path d="M658 283H671V296H658V283Z" fill="#F8F8F8"/>
<path d="M670 283H683V296H670V283Z" fill="#F8F8F8"/>
<path d="M670 296H683V309H670V296Z" fill="#F8F8F8"/>
<path d="M670 309H683V322H670V309Z" fill="#F8F8F8"/>
<path d="M670 322H683V335H670V322Z" fill="#F8F8F8"/>
<path d="M670 335H683V348H670V335Z" fill="#F8F8F8"/>
<path d="M682 348H695V361H682V348Z" fill="#F8F8F8"/>
<path d="M695 348H708V361H695V348Z" fill="#F8F8F8"/>
<path d="M708 348H721V361H708V348Z" fill="#F8F8F8"/>
<path d="M721 348H734V361H721V348Z" fill="#F8F8F8"/>
<path d="M721 335H734V348H721V335Z" fill="#F8F8F8"/>
<path d="M734 335H747V348H734V335Z" fill="#F8F8F8"/>
<path d="M747 335H760V348H747V335Z" fill="#F8F8F8"/>
<path d="M747 322H760V335H747V322Z" fill="#F8F8F8"/>
<path d="M773 309H786V322H773V309Z" fill="#F8F8F8"/>
<path d="M760 322H773V335H760V322Z" fill="#F8F8F8"/>
<path d="M773 296H786V309H773V296Z" fill="#F8F8F8"/>
<path d="M799 270H812V283H799V270Z" fill="#F8F8F8"/>
<path d="M786 283H799V296H786V283Z" fill="#F8F8F8"/>
<path d="M799 257H812V270H799V257Z" fill="#F8F8F8"/>
<path d="M786 270H799V283H786V270Z" fill="#F8F8F8"/>
<path d="M773 283H786V296H773V283Z" fill="#F8F8F8"/>
<path d="M760 296H773V309H760V296Z" fill="#F8F8F8"/>
<path d="M747 309H760V322H747V309Z" fill="#F8F8F8"/>
<path d="M734 309H747V322H734V309Z" fill="#F8F8F8"/>
<path d="M721 322H734V335H721V322Z" fill="#F8F8F8"/>
<path d="M721 309H734V322H721V309Z" fill="#F8F8F8"/>
<path d="M708 309H721V322H708V309Z" fill="#F8F8F8"/>
<path d="M708 296H721V309H708V296Z" fill="#F8F8F8"/>
<path d="M708 283H721V296H708V283Z" fill="#F8F8F8"/>
<path d="M721 283H734V296H721V283Z" fill="#F8F8F8"/>
<path d="M721 270H734V283H721V270Z" fill="#F8F8F8"/>
<path d="M721 257H734V270H721V257Z" fill="#F8F8F8"/>
<path d="M721 244H734V257H721V244Z" fill="#F8F8F8"/>
<path d="M734 207H747V220H734V207Z" fill="#F8F8F8"/>
<path d="M734 218H747V231H734V218Z" fill="#F8F8F8"/>
<path d="M734 231H747V244H734V231Z" fill="#F8F8F8"/>
<path d="M734 194H747V207H734V194Z" fill="#F8F8F8"/>
<path d="M695 168H708V181H695V168Z" fill="#F8F8F8"/>
<path d="M695 181H708V194H695V181Z" fill="#F8F8F8"/>
<path d="M708 168H721V181H708V168Z" fill="#F8F8F8"/>
<path d="M695 194H708V207H695V194Z" fill="#F8F8F8"/>
<path d="M695 207H708V220H695V207Z" fill="#F8F8F8"/>
<path d="M682 207H695V220H682V207Z" fill="#F8F8F8"/>
<path d="M682 218H695V231H682V218Z" fill="#F8F8F8"/>
<path d="M682 231H695V244H682V231Z" fill="#F8F8F8"/>
<path d="M670 244H683V257H670V244Z" fill="#F8F8F8"/>
<path d="M670 257H683V270H670V257Z" fill="#F8F8F8"/>
<path d="M658 257H671V270H658V257Z" fill="#F8F8F8"/>
<path d="M658 270H671V283H658V270Z" fill="#F8F8F8"/>
<path d="M645 283H658V296H645V283Z" fill="#F8F8F8"/>
<path d="M632 296H645V309H632V296Z" fill="#F8F8F8"/>
<path d="M619 309H632V322H619V309Z" fill="#F8F8F8"/>
<path d="M606 322H619V335H606V322Z" fill="#F8F8F8"/>
<path d="M593 322H606V335H593V322Z" fill="#F8F8F8"/>
<path d="M580 309H593V322H580V309Z" fill="#F8F8F8"/>
<path d="M567 296H580V309H567V296Z" fill="#F8F8F8"/>
<path d="M567 283H580V296H567V283Z" fill="#F8F8F8"/>
<path d="M567 270H580V283H567V270Z" fill="#F8F8F8"/>
<path d="M580 207H593V220H580V207Z" fill="#F8F8F8"/>
<path d="M580 218H593V231H580V218Z" fill="#F8F8F8"/>
<path d="M580 231H593V244H580V231Z" fill="#F8F8F8"/>
<path d="M580 244H593V257H580V244Z" fill="#F8F8F8"/>
<path d="M580 257H593V270H580V257Z" fill="#F8F8F8"/>
<path d="M593 207H606V220H593V207Z" fill="#F8F8F8"/>
<path d="M619 116H632V129H619V116Z" fill="#F8F8F8"/>
<path d="M619 129H632V142H619V129Z" fill="#F8F8F8"/>
<path d="M606 142H619V155H606V142Z" fill="#F8F8F8"/>
<path d="M606 155H619V168H606V155Z" fill="#F8F8F8"/>
<path d="M593 168H606V181H593V168Z" fill="#F8F8F8"/>
<path d="M593 181H606V194H593V181Z" fill="#F8F8F8"/>
<path d="M593 194H606V207H593V194Z" fill="#F8F8F8"/>
<path d="M658 77H671V90H658V77Z" fill="#F8F8F8"/>
<path d="M645 90H658V103H645V90Z" fill="#F8F8F8"/>
<path d="M632 103H645V116H632V103Z" fill="#F8F8F8"/>
<path d="M695 77H708V90H695V77Z" fill="#F8F8F8"/>
<path d="M708 90H721V103H708V90Z" fill="#F8F8F8"/>
<path d="M708 103H721V116H708V103Z" fill="#F8F8F8"/>
<path d="M708 116H721V129H708V116Z" fill="#F8F8F8"/>
<path d="M708 129H721V142H708V129Z" fill="#F8F8F8"/>
<path d="M708 142H721V155H708V142Z" fill="#F8F8F8"/>
<path d="M708 155H721V168H708V155Z" fill="#F8F8F8"/>
<path d="M116 77H129V90H116V77Z" fill="#F8F8F8"/>
<path d="M129 77H142V90H129V77Z" fill="#F8F8F8"/>
<path d="M116 90H129V103H116V90Z" fill="#F8F8F8"/>
<path d="M103 103H116V116H103V103Z" fill="#F8F8F8"/>
<path d="M90 116H103V129H90V116Z" fill="#F8F8F8"/>
<path d="M90 129H103V142H90V129Z" fill="#F8F8F8"/>
<path d="M77 129H90V142H77V129Z" fill="#F8F8F8"/>
<path d="M90 142H103V155H90V142Z" fill="#F8F8F8"/>
<path d="M103 116H116V129H103V116Z" fill="#F8F8F8"/>
<path d="M116 103H129V116H116V103Z" fill="#F8F8F8"/>
<path d="M129 90H142V103H129V90Z" fill="#F8F8F8"/>
<path d="M142 77H155V90H142V77Z" fill="#F8F8F8"/>
<path d="M155 90H168V103H155V90Z" fill="#F8F8F8"/>
<path d="M155 103H168V116H155V103Z" fill="#F8F8F8"/>
<path d="M155 116H168V129H155V116Z" fill="#F8F8F8"/>
<path d="M155 129H168V142H155V129Z" fill="#F8F8F8"/>
<path d="M155 142H168V155H155V142Z" fill="#F8F8F8"/>
<path d="M142 155H155V168H142V155Z" fill="#F8F8F8"/>
<path d="M142 168H155V181H142V168Z" fill="#F8F8F8"/>
<path d="M142 181H155V194H142V181Z" fill="#F8F8F8"/>
<path d="M129 194H142V207H129V194Z" fill="#F8F8F8"/>
<path d="M129 207H142V220H129V207Z" fill="#F8F8F8"/>
<path d="M129 218H142V231H129V218Z" fill="#F8F8F8"/>
<path d="M116 231H129V244H116V231Z" fill="#F8F8F8"/>
<path d="M116 244H129V257H116V244Z" fill="#F8F8F8"/>
<path d="M116 257H129V270H116V257Z" fill="#F8F8F8"/>
<path d="M103 270H116V283H103V270Z" fill="#F8F8F8"/>
<path d="M103 283H116V296H103V283Z" fill="#F8F8F8"/>
<path d="M103 296H116V309H103V296Z" fill="#F8F8F8"/>
<path d="M90 309H103V322H90V309Z" fill="#F8F8F8"/>
<path d="M90 322H103V335H90V322Z" fill="#F8F8F8"/>
<path d="M90 335H103V348H90V335Z" fill="#F8F8F8"/>
<path d="M103 335H116V348H103V335Z" fill="#F8F8F8"/>
<path d="M116 335H129V348H116V335Z" fill="#F8F8F8"/>
<path d="M129 335H142V348H129V335Z" fill="#F8F8F8"/>
<path d="M142 335H155V348H142V335Z" fill="#F8F8F8"/>
<path d="M168 257H181V270H168V257Z" fill="#F8F8F8"/>
<path d="M168 270H181V283H168V270Z" fill="#F8F8F8"/>
<path d="M155 283H168V296H155V283Z" fill="#F8F8F8"/>
<path d="M155 296H168V309H155V296Z" fill="#F8F8F8"/>
<path d="M155 309H168V322H155V309Z" fill="#F8F8F8"/>
<path d="M142 322H155V335H142V322Z" fill="#F8F8F8"/>
<path d="M168 244H181V257H168V244Z" fill="#F8F8F8"/>
<path d="M181 218H194V231H181V218Z" fill="#F8F8F8"/>
<path d="M181 231H194V244H181V231Z" fill="#F8F8F8"/>
<path d="M181 207H194V220H181V207Z" fill="#F8F8F8"/>
<path d="M194 207H207V220H194V207Z" fill="#F8F8F8"/>
<path d="M194 194H207V207H194V194Z" fill="#F8F8F8"/>
<path d="M194 181H207V194H194V181Z" fill="#F8F8F8"/>
<path d="M220 142H233V155H220V142Z" fill="#F8F8F8"/>
<path d="M207 155H220V168H207V155Z" fill="#F8F8F8"/>
<path d="M207 168H220V181H207V168Z" fill="#F8F8F8"/>
<path d="M220 129H233V142H220V129Z" fill="#F8F8F8"/>
<path d="M231 116H244V129H231V116Z" fill="#F8F8F8"/>
<path d="M231 103H244V116H231V103Z" fill="#F8F8F8"/>
<path d="M244 90H257V103H244V90Z" fill="#F8F8F8"/>
<path d="M257 77H270V90H257V77Z" fill="#F8F8F8"/>
<path d="M270 90H283V103H270V90Z" fill="#F8F8F8"/>
<path d="M270 103H283V116H270V103Z" fill="#F8F8F8"/>
<path d="M283 116H296V129H283V116Z" fill="#F8F8F8"/>
<path d="M283 129H296V142H283V129Z" fill="#F8F8F8"/>
<path d="M296 129H309V142H296V129Z" fill="#F8F8F8"/>
<path d="M309 129H322V142H309V129Z" fill="#F8F8F8"/>
<path d="M309 116H322V129H309V116Z" fill="#F8F8F8"/>
<path d="M322 103H335V116H322V103Z" fill="#F8F8F8"/>
<path d="M322 116H335V129H322V116Z" fill="#F8F8F8"/>
<path d="M322 90H335V103H322V90Z" fill="#F8F8F8"/>
<path d="M322 77H335V90H322V77Z" fill="#F8F8F8"/>
<path d="M309 65H322V78H309V65Z" fill="#F8F8F8"/>
<path d="M296 65H309V78H296V65Z" fill="#F8F8F8"/>
<path d="M283 65H296V78H283V65Z" fill="#F8F8F8"/>
<path d="M270 65H283V78H270V65Z" fill="#F8F8F8"/>
<path d="M257 65H270V78H257V65Z" fill="#F8F8F8"/>
<path d="M244 77H257V90H244V77Z" fill="#F8F8F8"/>
<path d="M231 90H244V103H231V90Z" fill="#F8F8F8"/>
<path d="M220 103H233V116H220V103Z" fill="#F8F8F8"/>
<path d="M220 116H233V129H220V116Z" fill="#F8F8F8"/>
<path d="M207 129H220V142H207V129Z" fill="#F8F8F8"/>
<path d="M207 142H220V155H207V142Z" fill="#F8F8F8"/>
<path d="M194 168H207V181H194V168Z" fill="#F8F8F8"/>
<path d="M181 181H194V194H181V181Z" fill="#F8F8F8"/>
<path d="M207 103H220V116H207V103Z" fill="#F8F8F8"/>
<path d="M207 116H220V129H207V116Z" fill="#F8F8F8"/>
<path d="M194 129H207V142H194V129Z" fill="#F8F8F8"/>
<path d="M194 142H207V155H194V142Z" fill="#F8F8F8"/>
<path d="M194 155H207V168H194V155Z" fill="#F8F8F8"/>
<path d="M207 90H220V103H207V90Z" fill="#F8F8F8"/>
<path d="M194 65H207V78H194V65Z" fill="#F8F8F8"/>
<path d="M194 77H207V90H194V77Z" fill="#F8F8F8"/>
<path d="M181 65H194V78H181V65Z" fill="#F8F8F8"/>
<path d="M168 65H181V78H168V65Z" fill="#F8F8F8"/>
<path d="M142 65H155V78H142V65Z" fill="#F8F8F8"/>
<path d="M155 65H168V78H155V65Z" fill="#F8F8F8"/>
<path d="M13 389H26V402H13V389Z" fill="#F8F8F8"/>
<path d="M26 389H39V402H26V389Z" fill="#F8F8F8"/>
<path d="M39 389H52V402H39V389Z" fill="#F8F8F8"/>
<path d="M52 389H65V402H52V389Z" fill="#F8F8F8"/>
<path d="M65 389H78V402H65V389Z" fill="#F8F8F8"/>
<path d="M77 389H90V402H77V389Z" fill="#F8F8F8"/>
<path d="M90 389H103V402H90V389Z" fill="#F8F8F8"/>
<path d="M103 389H116V402H103V389Z" fill="#F8F8F8"/>
<path d="M116 389H129V402H116V389Z" fill="#F8F8F8"/>
<path d="M129 389H142V402H129V389Z" fill="#F8F8F8"/>
<path d="M142 389H155V402H142V389Z" fill="#F8F8F8"/>
<path d="M155 389H168V402H155V389Z" fill="#F8F8F8"/>
<path d="M168 389H181V402H168V389Z" fill="#F8F8F8"/>
<path d="M13 168H26V181H13V168Z" fill="#F8F8F8"/>
<path d="M39 181H54V194H39V181Z" fill="#F8F8F8"/>
<path d="M52 194H65V207H52V194Z" fill="#F8F8F8"/>
<path d="M26 176H39V193H26V176Z" fill="#F8F8F8"/>
<path d="M734 0H747V13H734V0Z" fill="#F8F8F8"/>
<path d="M747 0H760V13H747V0Z" fill="#F8F8F8"/>
<path d="M760 0H773V13H760V0Z" fill="#F8F8F8"/>
<path d="M773 0H786V13H773V0Z" fill="#F8F8F8"/>
<path d="M786 0H799V13H786V0Z" fill="#F8F8F8"/>
<path d="M799 0H812V13H799V0Z" fill="#F8F8F8"/>
<path d="M812 0H825V13H812V0Z" fill="#F8F8F8"/>
<path d="M824 0H837V13H824V0Z" fill="#F8F8F8"/>
<path d="M837 0H850V13H837V0Z" fill="#F8F8F8"/>
<path d="M850 0H863V13H850V0Z" fill="#F8F8F8"/>
<path d="M1271 207H1288V220H1271V207Z" fill="#F8F8F8"/>
<path d="M1301 218H1314V231H1301V218Z" fill="#F8F8F8"/>
<path d="M1263 194H1276V207H1263V194Z" fill="#F8F8F8"/>
<path d="M1288 207H1301V226H1288V207Z" fill="#F8F8F8"/>
<path d="M1314 218H1327V240H1314V218Z" fill="#F8F8F8"/>
<path d="M747 399H760V412H747V399Z" fill="#F8F8F8"/>
<path d="M760 399H773V412H760V399Z" fill="#F8F8F8"/>
<path d="M773 399H786V412H773V399Z" fill="#F8F8F8"/>
<path d="M786 399H799V412H786V399Z" fill="#F8F8F8"/>
<path d="M799 399H812V412H799V399Z" fill="#F8F8F8"/>
<path d="M812 399H825V412H812V399Z" fill="#F8F8F8"/>
<path d="M824 399H837V412H824V399Z" fill="#F8F8F8"/>
<path d="M837 399H850V412H837V399Z" fill="#F8F8F8"/>
<path d="M850 399H863V412H850V399Z" fill="#F8F8F8"/>
<path d="M863 399H876V412H863V399Z" fill="#F8F8F8"/>
<path d="M876 399H889V412H876V399Z" fill="#F8F8F8"/>
<path d="M889 399H902V412H889V399Z" fill="#F8F8F8"/>
<path d="M902 399H915V412H902V399Z" fill="#F8F8F8"/>
<path d="M915 399H928V412H915V399Z" fill="#F8F8F8"/>
<path d="M928 399H941V412H928V399Z" fill="#F8F8F8"/>
<path d="M941 399H954V412H941V399Z" fill="#F8F8F8"/>
<path d="M954 399H967V412H954V399Z" fill="#F8F8F8"/>
<path d="M967 399H980V412H967V399Z" fill="#F8F8F8"/>
<path d="M979 399H992V412H979V399Z" fill="#F8F8F8"/>
<path d="M992 399H1005V412H992V399Z" fill="#F8F8F8"/>
<path d="M1005 399H1018V412H1005V399Z" fill="#F8F8F8"/>
<path d="M1018 399H1031V412H1018V399Z" fill="#F8F8F8"/>
<path d="M1031 399H1044V412H1031V399Z" fill="#F8F8F8"/>
<path d="M824 335H837V348H824V335Z" fill="#F8F8F8"/>
<path d="M837 335H850V348H837V335Z" fill="#F8F8F8"/>
<path d="M850 335H863V348H850V335Z" fill="#F8F8F8"/>
<path d="M992 207H1005V220H992V207Z" fill="#F8F8F8"/>
<path d="M979 218H992V231H979V218Z" fill="#F8F8F8"/>
<path d="M979 231H992V244H979V231Z" fill="#F8F8F8"/>
<path d="M979 244H992V257H979V244Z" fill="#F8F8F8"/>
<path d="M967 257H980V270H967V257Z" fill="#F8F8F8"/>
<path d="M967 270H980V283H967V270Z" fill="#F8F8F8"/>
<path d="M967 283H980V296H967V283Z" fill="#F8F8F8"/>
<path d="M954 296H967V309H954V296Z" fill="#F8F8F8"/>
<path d="M954 309H967V322H954V309Z" fill="#F8F8F8"/>
<path d="M954 322H967V335H954V322Z" fill="#F8F8F8"/>
<path d="M786 65H799V78H786V65Z" fill="#F8F8F8"/>
<path d="M773 77H786V90H773V77Z" fill="#F8F8F8"/>
<path d="M773 90H786V103H773V90Z" fill="#F8F8F8"/>
<path d="M773 103H786V116H773V103Z" fill="#F8F8F8"/>
<path d="M760 116H773V129H760V116Z" fill="#F8F8F8"/>
<path d="M760 129H773V142H760V129Z" fill="#F8F8F8"/>
<path d="M760 142H773V155H760V142Z" fill="#F8F8F8"/>
<path d="M760 155H773V168H760V155Z" fill="#F8F8F8"/>
<path d="M747 168H760V181H747V168Z" fill="#F8F8F8"/>
<path d="M747 181H760V194H747V181Z" fill="#F8F8F8"/>
<path d="M747 194H760V207H747V194Z" fill="#F8F8F8"/>
<path d="M747 65H760V78H747V65Z" fill="#F8F8F8"/>
<path d="M760 65H773V78H760V65Z" fill="#F8F8F8"/>
<path d="M773 65H786V78H773V65Z" fill="#F8F8F8"/>
<path d="M734 65H747V78H734V65Z" fill="#F8F8F8"/>
<path d="M734 77H747V90H734V77Z" fill="#F8F8F8"/>
<path d="M320 98C320 107.956 317.194 116.373 312 122C307.239 127.195 300.926 130 294 130C280.582 130 273.329 120.047 269 101C268.567 100.134 268 98.7315 268 97C264.97 89.641 261.463 85.4329 258 85C247.612 85 237.254 96.9231 226 119C215.179 141.077 195.703 186.172 168 255C155.014 287.466 143.657 316.594 135 343H84C90.9256 320.49 101.283 287.154 116 243C131.15 198.846 140.269 174.762 142 170C150.657 143.594 155 120.614 155 102C155 90.7451 150.657 85 142 85C128.149 85 108.807 103.772 85 141L80 138C92.9856 112.893 107.984 94.5536 124 82C140.448 69.0136 154.447 62 167 62C188.21 62 199 73.7587 199 98C199 117.913 193.956 146.772 184 184H189C206.747 135.95 222.149 103.449 236 87C249.851 70.1176 265.253 62 283 62C294.254 62 302.507 65.5068 309 72C315.926 78.4932 320 86.7451 320 98Z" fill="#00141F"/>
<path d="M508 160C508 186.406 502.388 213.161 492 240C482.044 266.406 468.18 288.953 450 308C424.462 334.839 394.762 348 361 348C337.193 348 318.553 340.017 306 324C293.447 307.551 286.866 284.436 286 255C285.134 227.729 289.612 201.137 300 173C310.821 144.863 326.387 121.047 345 102C370.105 75.5943 399.805 62 434 62C458.673 62 476.88 70.6848 489 88C501.553 105.315 508 129.265 508 160ZM464 120C464.433 86.2353 453.643 69 432 69C414.253 69 397.717 82.0271 383 108C370.447 130.077 358.254 161.608 347 201C335.746 240.392 330.567 271.192 331 295C331.866 325.735 342.089 341 362 341C379.314 341 395.85 327.406 411 301C423.12 279.356 434.746 249.661 446 212C457.254 173.906 463.567 143.808 464 120Z" fill="#00141F"/>
<path d="M801 262C766.805 320.006 732.061 349 697 349C672.76 349 661 334.003 661 305C661 299.373 662.806 287.614 668 269H667C656.179 288.913 644.284 305.715 630 320C610.955 339.047 592.18 349 574 349C557.984 349 544.687 342.554 533 330C521.313 317.446 515 297.137 515 269C515 243.893 522.85 216.033 538 184C553.15 151.967 574.029 123.241 600 99C625.971 74.3258 651.596 62 678 62C688.821 62 697.507 65.641 704 73C710.926 80.359 715.269 89.8793 717 102H718L735 68H780L737 199C718.82 253.543 710 288.416 710 304C710 314.822 714.343 320 723 320C744.643 320 769.029 299.124 795 258L801 262ZM706 123C706 88.3695 697.045 70 678 70C658.955 70 640.478 85.8326 621 117C607.149 139.077 594.388 169.205 584 206C573.612 242.795 568 268.551 568 285C568 311.839 576.984 326 593 326C604.254 326 617.283 317.718 632 303C644.553 290.446 654.612 275.047 665 256C676.254 235.222 686.209 211.839 694 185C702.224 158.161 706 137.718 706 123Z" fill="#00141F"/>
<path d="M1235 262C1221.15 285.376 1204.48 305.685 1185 323C1165.52 340.315 1145.91 349 1126 349C1116.04 349 1107.63 346.06 1102 340C1096.37 333.94 1094 324.822 1094 314C1094 308.805 1095.4 301.956 1098 292C1100.6 281.611 1102.97 271.658 1106 263C1109.03 254.342 1112.81 242.151 1118 227C1123.19 211.849 1127.4 201.359 1130 194C1132.16 187.507 1135.54 179.523 1139 170C1142.46 160.477 1144.84 153.06 1147 147C1149.16 140.94 1151.84 133.926 1154 127C1156.16 120.074 1157.13 114.329 1158 110C1159.3 105.238 1160 101.597 1160 99C1160 89.4766 1155.66 85 1147 85C1141.37 85 1132.82 89.4766 1122 99C1111.18 108.523 1099.99 121.551 1087 138C1074.45 154.017 1061.42 175.594 1048 202C1034.58 228.406 1023.52 255.564 1014 285C1007.94 304.913 1002.06 324.386 996 343H941L989 194C1008.48 134.695 1019 102.896 1019 99C1019 89.4766 1014.22 85 1006 85C992.582 85 974.374 100.131 951 130C928.059 159.436 906.478 200.457 887 255C872.716 292.661 861.926 322.222 855 343H803C809.926 320.49 821.283 287.154 836 243C851.15 198.846 859.269 174.762 861 170C870.956 139.698 876 116.718 876 102C876 90.3122 872.224 85 864 85C850.582 85 831.24 103.339 807 141L801 138C813.986 112.893 828.552 93.5535 845 81C861.448 68.4465 876.447 62 889 62C910.21 62 921 73.7587 921 98C921 116.181 915.388 145.041 905 184H910C930.777 141.578 951.79 110.48 973 91C994.21 71.5204 1013.82 62 1032 62C1043.25 62 1050.94 66.2081 1057 74C1063.06 81.359 1066 91.0136 1066 104C1066 114.389 1059.85 141.145 1046 184H1049C1093.15 102.618 1134.64 62 1171 62C1182.25 62 1191.07 66.2081 1198 74C1205.36 81.7919 1209 91.4465 1209 104C1209 108.762 1208.87 113.805 1208 119C1207.13 123.762 1205.16 130.208 1203 138C1200.84 145.359 1198.73 151.238 1197 156C1195.27 160.762 1192.33 170.446 1188 183C1183.67 195.121 1180.16 203.507 1178 210C1158.52 266.707 1149 299.91 1149 309C1149 316.792 1151.81 320 1157 320C1167.39 320 1179.58 314.121 1193 302C1206.42 289.879 1217.61 274.882 1228 258L1235 262Z" fill="#00141F"/>
<path d="M320 98C320 107.956 317.194 116.373 312 122C307.239 127.195 300.926 130 294 130C280.582 130 273.329 120.047 269 101C268.567 100.134 268 98.7315 268 97C264.97 89.641 261.463 85.4329 258 85C247.612 85 237.254 96.9231 226 119C215.179 141.077 195.703 186.172 168 255C155.014 287.466 143.657 316.594 135 343H84C90.9256 320.49 101.283 287.154 116 243C131.15 198.846 140.269 174.762 142 170C150.657 143.594 155 120.614 155 102C155 90.7451 150.657 85 142 85C128.149 85 108.807 103.772 85 141L80 138C92.9856 112.893 107.984 94.5536 124 82C140.448 69.0136 154.447 62 167 62C188.21 62 199 73.7587 199 98C199 117.913 193.956 146.772 184 184H189C206.747 135.95 222.149 103.449 236 87C249.851 70.1176 265.253 62 283 62C294.254 62 302.507 65.5068 309 72C315.926 78.4932 320 86.7451 320 98Z" stroke="#00141F" stroke-width="30"/>
<path d="M508 160C508 186.406 502.388 213.161 492 240C482.044 266.406 468.18 288.953 450 308C424.462 334.839 394.762 348 361 348C337.193 348 318.553 340.017 306 324C293.447 307.551 286.866 284.436 286 255C285.134 227.729 289.612 201.137 300 173C310.821 144.863 326.387 121.047 345 102C370.105 75.5943 399.805 62 434 62C458.673 62 476.88 70.6848 489 88C501.553 105.315 508 129.265 508 160ZM464 120C464.433 86.2353 453.643 69 432 69C414.253 69 397.717 82.0271 383 108C370.447 130.077 358.254 161.608 347 201C335.746 240.392 330.567 271.192 331 295C331.866 325.735 342.089 341 362 341C379.314 341 395.85 327.406 411 301C423.12 279.356 434.746 249.661 446 212C457.254 173.906 463.567 143.808 464 120Z" stroke="#00141F" stroke-width="30"/>
<path d="M801 262C766.805 320.006 732.061 349 697 349C672.76 349 661 334.003 661 305C661 299.373 662.806 287.614 668 269H667C656.179 288.913 644.284 305.715 630 320C610.955 339.047 592.18 349 574 349C557.984 349 544.687 342.554 533 330C521.313 317.446 515 297.137 515 269C515 243.893 522.85 216.033 538 184C553.15 151.967 574.029 123.241 600 99C625.971 74.3258 651.596 62 678 62C688.821 62 697.507 65.641 704 73C710.926 80.359 715.269 89.8793 717 102H718L735 68H780L737 199C718.82 253.543 710 288.416 710 304C710 314.822 714.343 320 723 320C744.643 320 769.029 299.124 795 258L801 262ZM706 123C706 88.3695 697.045 70 678 70C658.955 70 640.478 85.8326 621 117C607.149 139.077 594.388 169.205 584 206C573.612 242.795 568 268.551 568 285C568 311.839 576.984 326 593 326C604.254 326 617.283 317.718 632 303C644.553 290.446 654.612 275.047 665 256C676.254 235.222 686.209 211.839 694 185C702.224 158.161 706 137.718 706 123Z" stroke="#00141F" stroke-width="30"/>
<path d="M1235 262C1221.15 285.376 1204.48 305.685 1185 323C1165.52 340.315 1145.91 349 1126 349C1116.04 349 1107.63 346.06 1102 340C1096.37 333.94 1094 324.822 1094 314C1094 308.805 1095.4 301.956 1098 292C1100.6 281.611 1102.97 271.658 1106 263C1109.03 254.342 1112.81 242.151 1118 227C1123.19 211.849 1127.4 201.359 1130 194C1132.16 187.507 1135.54 179.523 1139 170C1142.46 160.477 1144.84 153.06 1147 147C1149.16 140.94 1151.84 133.926 1154 127C1156.16 120.074 1157.13 114.329 1158 110C1159.3 105.238 1160 101.597 1160 99C1160 89.4766 1155.66 85 1147 85C1141.37 85 1132.82 89.4766 1122 99C1111.18 108.523 1099.99 121.551 1087 138C1074.45 154.017 1061.42 175.594 1048 202C1034.58 228.406 1023.52 255.564 1014 285C1007.94 304.913 1002.06 324.386 996 343H941L989 194C1008.48 134.695 1019 102.896 1019 99C1019 89.4766 1014.22 85 1006 85C992.582 85 974.374 100.131 951 130C928.059 159.436 906.478 200.457 887 255C872.716 292.661 861.926 322.222 855 343H803C809.926 320.49 821.283 287.154 836 243C851.15 198.846 859.269 174.762 861 170C870.956 139.698 876 116.718 876 102C876 90.3122 872.224 85 864 85C850.582 85 831.24 103.339 807 141L801 138C813.986 112.893 828.552 93.5535 845 81C861.448 68.4465 876.447 62 889 62C910.21 62 921 73.7587 921 98C921 116.181 915.388 145.041 905 184H910C930.777 141.578 951.79 110.48 973 91C994.21 71.5204 1013.82 62 1032 62C1043.25 62 1050.94 66.2081 1057 74C1063.06 81.359 1066 91.0136 1066 104C1066 114.389 1059.85 141.145 1046 184H1049C1093.15 102.618 1134.64 62 1171 62C1182.25 62 1191.07 66.2081 1198 74C1205.36 81.7919 1209 91.4465 1209 104C1209 108.762 1208.87 113.805 1208 119C1207.13 123.762 1205.16 130.208 1203 138C1200.84 145.359 1198.73 151.238 1197 156C1195.27 160.762 1192.33 170.446 1188 183C1183.67 195.121 1180.16 203.507 1178 210C1158.52 266.707 1149 299.91 1149 309C1149 316.792 1151.81 320 1157 320C1167.39 320 1179.58 314.121 1193 302C1206.42 289.879 1217.61 274.882 1228 258L1235 262Z" stroke="#00141F" stroke-width="30"/>
</svg>
