<svg width="1362" height="436" viewBox="0 0 1362 436" fill="none" xmlns="http://www.w3.org/2000/svg">
<rect x="383" y="101" width="13" height="13" fill="#F8F8F8"/>
<rect x="370" y="101" width="13" height="13" fill="#F8F8F8"/>
<rect x="370" y="114" width="13" height="13" fill="#F8F8F8"/>
<rect x="357" y="127" width="13" height="13" fill="#F8F8F8"/>
<rect x="344" y="140" width="13" height="13" fill="#F8F8F8"/>
<rect x="344" y="153" width="13" height="13" fill="#F8F8F8"/>
<rect x="331" y="166" width="13" height="13" fill="#F8F8F8"/>
<rect x="331" y="179" width="13" height="13" fill="#F8F8F8"/>
<rect x="318" y="192" width="13" height="13" fill="#F8F8F8"/>
<rect x="318" y="205" width="13" height="13" fill="#F8F8F8"/>
<rect x="318" y="218" width="13" height="13" fill="#F8F8F8"/>
<rect x="318" y="229" width="13" height="13" fill="#F8F8F8"/>
<rect x="305" y="242" width="13" height="13" fill="#F8F8F8"/>
<rect x="305" y="255" width="13" height="13" fill="#F8F8F8"/>
<rect x="305" y="268" width="13" height="13" fill="#F8F8F8"/>
<rect x="318" y="281" width="13" height="13" fill="#F8F8F8"/>
<rect x="318" y="294" width="13" height="13" fill="#F8F8F8"/>
<rect x="318" y="307" width="13" height="13" fill="#F8F8F8"/>
<rect x="318" y="320" width="13" height="13" fill="#F8F8F8"/>
<rect x="331" y="333" width="13" height="13" fill="#F8F8F8"/>
<rect x="344" y="346" width="13" height="13" fill="#F8F8F8"/>
<rect x="357" y="346" width="13" height="13" fill="#F8F8F8"/>
<rect x="370" y="359" width="13" height="13" fill="#F8F8F8"/>
<rect x="383" y="359" width="13" height="13" fill="#F8F8F8"/>
<rect x="460" y="333" width="13" height="13" fill="#F8F8F8"/>
<rect x="434" y="346" width="13" height="13" fill="#F8F8F8"/>
<rect x="395" y="359" width="13" height="13" fill="#F8F8F8"/>
<rect x="408" y="359" width="13" height="13" fill="#F8F8F8"/>
<rect x="421" y="346" width="13" height="13" fill="#F8F8F8"/>
<rect x="447" y="333" width="13" height="13" fill="#F8F8F8"/>
<rect x="460" y="320" width="13" height="13" fill="#F8F8F8"/>
<rect x="473" y="320" width="13" height="13" fill="#F8F8F8"/>
<rect x="473" y="307" width="13" height="13" fill="#F8F8F8"/>
<rect x="499" y="281" width="13" height="13" fill="#F8F8F8"/>
<rect x="486" y="294" width="13" height="13" fill="#F8F8F8"/>
<rect x="486" y="307" width="13" height="13" fill="#F8F8F8"/>
<rect x="512" y="255" width="13" height="13" fill="#F8F8F8"/>
<rect x="512" y="268" width="13" height="13" fill="#F8F8F8"/>
<rect x="512" y="242" width="13" height="13" fill="#F8F8F8"/>
<rect x="525" y="242" width="13" height="13" fill="#F8F8F8"/>
<rect x="525" y="229" width="13" height="13" fill="#F8F8F8"/>
<rect x="538" y="179" width="13" height="13" fill="#F8F8F8"/>
<rect x="538" y="192" width="13" height="13" fill="#F8F8F8"/>
<rect x="525" y="205" width="13" height="13" fill="#F8F8F8"/>
<rect x="525" y="218" width="13" height="13" fill="#F8F8F8"/>
<rect x="538" y="166" width="13" height="13" fill="#F8F8F8"/>
<rect x="525" y="140" width="13" height="13" fill="#F8F8F8"/>
<path d="M351 112C351 121.956 348.194 130.373 343 136C338.239 141.195 331.926 144 325 144C311.582 144 304.329 134.047 300 115C299.567 114.134 299 112.732 299 111C295.97 103.641 292.463 99.4329 289 99C278.612 99 268.254 110.923 257 133C246.179 155.077 226.703 200.172 199 269C186.014 301.466 174.657 330.594 166 357H115C121.926 334.49 132.283 301.154 147 257C162.15 212.846 171.269 188.762 173 184C181.657 157.594 186 134.614 186 116C186 104.745 181.657 99 173 99C159.149 99 139.807 117.772 116 155L111 152C123.986 126.893 138.984 108.554 155 96C171.448 83.0136 185.447 76 198 76C219.21 76 230 87.7587 230 112C230 131.913 224.956 160.772 215 198H220C237.747 149.95 253.149 117.449 267 101C280.851 84.1176 296.253 76 314 76C325.254 76 333.507 79.5068 340 86C346.926 92.4932 351 100.745 351 112Z" fill="#F8F8F8"/>
<path d="M539 174C539 200.406 533.388 227.161 523 254C513.044 280.406 499.18 302.953 481 322C455.462 348.839 425.762 362 392 362C368.193 362 349.553 354.017 337 338C324.447 321.551 317.866 298.436 317 269C316.134 241.729 320.612 215.137 331 187C341.821 158.863 357.387 135.047 376 116C401.105 89.5943 430.805 76 465 76C489.673 76 507.88 84.6848 520 102C532.553 119.315 539 143.265 539 174ZM495 134C495.433 100.235 484.643 83 463 83C445.253 83 428.717 96.0271 414 122C401.447 144.077 389.254 175.608 378 215C366.746 254.392 361.567 285.192 362 309C362.866 339.735 373.089 355 393 355C410.314 355 426.85 341.406 442 315C454.12 293.356 465.746 263.661 477 226C488.254 187.906 494.567 157.808 495 134Z" fill="#F8F8F8"/>
<path d="M832 276C797.805 334.006 763.061 363 728 363C703.76 363 692 348.003 692 319C692 313.373 693.806 301.614 699 283H698C687.179 302.913 675.284 319.715 661 334C641.955 353.047 623.18 363 605 363C588.984 363 575.687 356.554 564 344C552.313 331.446 546 311.137 546 283C546 257.893 553.85 230.033 569 198C584.15 165.967 605.029 137.241 631 113C656.971 88.3258 682.596 76 709 76C719.821 76 728.507 79.641 735 87C741.926 94.359 746.269 103.879 748 116H749L766 82H811L768 213C749.82 267.543 741 302.416 741 318C741 328.822 745.343 334 754 334C775.643 334 800.029 313.124 826 272L832 276ZM737 137C737 102.37 728.045 84 709 84C689.955 84 671.478 99.8326 652 131C638.149 153.077 625.388 183.205 615 220C604.612 256.795 599 282.551 599 299C599 325.839 607.984 340 624 340C635.254 340 648.283 331.718 663 317C675.553 304.446 685.612 289.047 696 270C707.254 249.222 717.209 225.839 725 199C733.224 172.161 737 151.718 737 137Z" fill="#F8F8F8"/>
<path d="M1266 276C1252.15 299.376 1235.48 319.685 1216 337C1196.52 354.315 1176.91 363 1157 363C1147.04 363 1138.63 360.06 1133 354C1127.37 347.94 1125 338.822 1125 328C1125 322.805 1126.4 315.956 1129 306C1131.6 295.611 1133.97 285.658 1137 277C1140.03 268.342 1143.81 256.151 1149 241C1154.19 225.849 1158.4 215.359 1161 208C1163.16 201.507 1166.54 193.523 1170 184C1173.46 174.477 1175.84 167.06 1178 161C1180.16 154.94 1182.84 147.926 1185 141C1187.16 134.074 1188.13 128.329 1189 124C1190.3 119.238 1191 115.597 1191 113C1191 103.477 1186.66 99 1178 99C1172.37 99 1163.82 103.477 1153 113C1142.18 122.523 1130.99 135.551 1118 152C1105.45 168.017 1092.42 189.594 1079 216C1065.58 242.406 1054.52 269.564 1045 299C1038.94 318.913 1033.06 338.386 1027 357H972L1020 208C1039.48 148.695 1050 116.896 1050 113C1050 103.477 1045.22 99 1037 99C1023.58 99 1005.37 114.131 982 144C959.059 173.436 937.478 214.457 918 269C903.716 306.661 892.926 336.222 886 357H834C840.926 334.49 852.283 301.154 867 257C882.15 212.846 890.269 188.762 892 184C901.956 153.698 907 130.718 907 116C907 104.312 903.224 99 895 99C881.582 99 862.24 117.339 838 155L832 152C844.986 126.893 859.552 107.554 876 95C892.448 82.4465 907.447 76 920 76C941.21 76 952 87.7587 952 112C952 130.181 946.388 159.041 936 198H941C961.777 155.578 982.79 124.48 1004 105C1025.21 85.5204 1044.82 76 1063 76C1074.25 76 1081.94 80.2081 1088 88C1094.06 95.359 1097 105.014 1097 118C1097 128.389 1090.85 155.145 1077 198H1080C1124.15 116.618 1165.64 76 1202 76C1213.25 76 1222.07 80.2081 1229 88C1236.36 95.7919 1240 105.446 1240 118C1240 122.762 1239.87 127.805 1239 133C1238.13 137.762 1236.16 144.208 1234 152C1231.84 159.359 1229.73 165.238 1228 170C1226.27 174.762 1223.33 184.446 1219 197C1214.67 209.121 1211.16 217.507 1209 224C1189.52 280.707 1180 313.91 1180 323C1180 330.792 1182.81 334 1188 334C1198.39 334 1210.58 328.121 1224 316C1237.42 303.879 1248.61 288.882 1259 272L1266 276Z" fill="#F8F8F8"/>
<rect x="538" y="153" width="13" height="13" fill="#F8F8F8"/>
<rect x="525" y="127" width="13" height="13" fill="#F8F8F8"/>
<rect x="512" y="101" width="13" height="13" fill="#F8F8F8"/>
<rect x="525" y="114" width="13" height="13" fill="#F8F8F8"/>
<rect x="486" y="76" width="13" height="13" fill="#F8F8F8"/>
<rect x="512" y="88" width="13" height="13" fill="#F8F8F8"/>
<rect x="460" y="76" width="13" height="13" fill="#F8F8F8"/>
<rect x="473" y="76" width="13" height="13" fill="#F8F8F8"/>
<rect x="499" y="76" width="13" height="13" fill="#F8F8F8"/>
<rect x="421" y="76" width="13" height="13" fill="#F8F8F8"/>
<rect x="408" y="76" width="13" height="13" fill="#F8F8F8"/>
<rect x="434" y="76" width="13" height="13" fill="#F8F8F8"/>
<rect x="447" y="76" width="13" height="13" fill="#F8F8F8"/>
<rect x="395" y="88" width="13" height="13" fill="#F8F8F8"/>
<rect x="395" y="127" width="13" height="13" fill="#F8F8F8"/>
<rect x="408" y="114" width="13" height="13" fill="#F8F8F8"/>
<rect x="395" y="140" width="13" height="13" fill="#F8F8F8"/>
<rect x="395" y="153" width="13" height="13" fill="#F8F8F8"/>
<rect x="383" y="166" width="13" height="13" fill="#F8F8F8"/>
<rect x="383" y="179" width="13" height="13" fill="#F8F8F8"/>
<rect x="383" y="192" width="13" height="13" fill="#F8F8F8"/>
<rect x="370" y="192" width="13" height="13" fill="#F8F8F8"/>
<rect x="370" y="205" width="13" height="13" fill="#F8F8F8"/>
<rect x="370" y="218" width="13" height="13" fill="#F8F8F8"/>
<rect x="370" y="229" width="13" height="13" fill="#F8F8F8"/>
<rect x="357" y="242" width="13" height="13" fill="#F8F8F8"/>
<rect x="357" y="255" width="13" height="13" fill="#F8F8F8"/>
<rect x="357" y="268" width="13" height="13" fill="#F8F8F8"/>
<rect x="357" y="281" width="13" height="13" fill="#F8F8F8"/>
<rect x="357" y="294" width="13" height="13" fill="#F8F8F8"/>
<rect x="357" y="307" width="13" height="13" fill="#F8F8F8"/>
<rect x="357" y="320" width="13" height="13" fill="#F8F8F8"/>
<rect x="357" y="333" width="13" height="13" fill="#F8F8F8"/>
<rect x="370" y="346" width="13" height="13" fill="#F8F8F8"/>
<rect x="383" y="346" width="13" height="13" fill="#F8F8F8"/>
<rect x="434" y="320" width="13" height="13" fill="#F8F8F8"/>
<rect x="421" y="333" width="13" height="13" fill="#F8F8F8"/>
<rect x="395" y="346" width="13" height="13" fill="#F8F8F8"/>
<rect x="408" y="346" width="13" height="13" fill="#F8F8F8"/>
<rect x="434" y="307" width="13" height="13" fill="#F8F8F8"/>
<rect x="447" y="294" width="13" height="13" fill="#F8F8F8"/>
<rect x="447" y="281" width="13" height="13" fill="#F8F8F8"/>
<rect x="473" y="229" width="13" height="13" fill="#F8F8F8"/>
<rect x="460" y="242" width="13" height="13" fill="#F8F8F8"/>
<rect x="460" y="255" width="13" height="13" fill="#F8F8F8"/>
<rect x="460" y="268" width="13" height="13" fill="#F8F8F8"/>
<rect x="473" y="218" width="13" height="13" fill="#F8F8F8"/>
<rect x="486" y="179" width="13" height="13" fill="#F8F8F8"/>
<rect x="473" y="192" width="13" height="13" fill="#F8F8F8"/>
<rect x="473" y="205" width="13" height="13" fill="#F8F8F8"/>
<rect x="486" y="166" width="13" height="13" fill="#F8F8F8"/>
<rect x="486" y="127" width="13" height="13" fill="#F8F8F8"/>
<rect x="486" y="140" width="13" height="13" fill="#F8F8F8"/>
<rect x="486" y="153" width="13" height="13" fill="#F8F8F8"/>
<rect x="486" y="114" width="13" height="13" fill="#F8F8F8"/>
<rect x="486" y="88" width="13" height="13" fill="#F8F8F8"/>
<rect x="486" y="101" width="13" height="13" fill="#F8F8F8"/>
<rect x="434" y="88" width="13" height="13" fill="#F8F8F8"/>
<rect x="421" y="101" width="13" height="13" fill="#F8F8F8"/>
<rect x="499" y="384" width="13" height="13" fill="#F8F8F8"/>
<rect x="458" y="396" width="20" height="13" fill="#F8F8F8"/>
<rect x="447" y="403" width="13" height="13" fill="#F8F8F8"/>
<rect x="395" y="423" width="13" height="13" fill="#F8F8F8"/>
<rect x="408" y="418" width="34" height="18" fill="#F8F8F8"/>
<rect x="416" y="410" width="26" height="13" fill="#F8F8F8"/>
<rect x="434" y="403" width="13" height="13" fill="#F8F8F8"/>
<rect x="460" y="393" width="22" height="23" fill="#F8F8F8"/>
<rect x="479" y="384" width="20" height="13" fill="#F8F8F8"/>
<rect x="383" y="423" width="13" height="13" fill="#F8F8F8"/>
<rect x="499" y="371" width="13" height="13" fill="#F8F8F8"/>
<rect x="282" y="371" width="31" height="13" fill="#F8F8F8"/>
<rect x="302" y="384" width="22" height="13" fill="#F8F8F8"/>
<rect x="322" y="395" width="36" height="21" fill="#F8F8F8"/>
<rect x="333" y="392" width="13" height="13" fill="#F8F8F8"/>
<rect x="352" y="410" width="13" height="9" fill="#F8F8F8"/>
<path d="M342 414H378V436H342V414Z" fill="#F8F8F8"/>
<rect x="370" y="423" width="13" height="13" fill="#F8F8F8"/>
<rect x="253" y="294" width="13" height="13" fill="#F8F8F8"/>
<rect x="249" y="303" width="17" height="17" fill="#F8F8F8"/>
<rect x="253" y="320" width="13" height="13" fill="#F8F8F8"/>
<rect x="253" y="333" width="26" height="13" fill="#F8F8F8"/>
<rect x="262" y="346" width="13" height="13" fill="#F8F8F8"/>
<rect x="262" y="355" width="25" height="17" fill="#F8F8F8"/>
<rect x="242" y="307" width="13" height="13" fill="#F8F8F8"/>
<rect x="242" y="320" width="13" height="13" fill="#F8F8F8"/>
<rect x="229" y="333" width="26" height="13" fill="#F8F8F8"/>
<rect x="229" y="346" width="13" height="13" fill="#F8F8F8"/>
<rect x="229" y="359" width="13" height="13" fill="#F8F8F8"/>
<rect x="216" y="361" width="26" height="32" fill="#F8F8F8"/>
<rect x="209" y="384" width="13" height="13" fill="#F8F8F8"/>
<rect x="209" y="395" width="13" height="13" fill="#F8F8F8"/>
<rect x="196" y="400" width="26" height="13" fill="#F8F8F8"/>
<rect x="40" y="333" width="24" height="13" fill="#F8F8F8"/>
<rect x="40" y="346" width="24" height="13" fill="#F8F8F8"/>
<rect x="20" y="353" width="30" height="18" fill="#F8F8F8"/>
<rect x="27" y="371" width="23" height="13" fill="#F8F8F8"/>
<rect x="27" y="384" width="23" height="15" fill="#F8F8F8"/>
<rect x="14" y="397" width="29" height="13" fill="#F8F8F8"/>
<rect x="14" y="400" width="29" height="13" fill="#F8F8F8"/>
<rect x="80" y="229" width="13" height="18" fill="#F8F8F8"/>
<rect x="80" y="247" width="13" height="33" fill="#F8F8F8"/>
<rect x="81" y="255" width="13" height="13" fill="#F8F8F8"/>
<rect x="60" y="276" width="21" height="13" fill="#F8F8F8"/>
<rect x="60" y="281" width="17" height="23" fill="#F8F8F8"/>
<rect x="60" y="294" width="11" height="13" fill="#F8F8F8"/>
<rect x="60" y="307" width="11" height="13" fill="#F8F8F8"/>
<rect x="40" y="320" width="24" height="13" fill="#F8F8F8"/>
<rect x="87" y="229" width="13" height="13" fill="#F8F8F8"/>
<rect x="87" y="218" width="13" height="13" fill="#F8F8F8"/>
<rect x="87" y="205" width="13" height="13" fill="#F8F8F8"/>
<rect x="44" y="127" width="13" height="13" fill="#F8F8F8"/>
<rect x="35" y="140" width="13" height="13" fill="#F8F8F8"/>
<rect x="22" y="153" width="34" height="13" fill="#F8F8F8"/>
<rect x="22" y="166" width="13" height="15" fill="#F8F8F8"/>
<rect x="44" y="114" width="17" height="13" fill="#F8F8F8"/>
<rect x="82" y="60" width="34" height="35" fill="#F8F8F8"/>
<rect x="147" y="11" width="17" height="13" fill="#F8F8F8"/>
<rect x="127" y="20" width="35" height="22" fill="#F8F8F8"/>
<rect x="107" y="40" width="31" height="22" fill="#F8F8F8"/>
<rect x="60" y="82" width="32" height="22" fill="#F8F8F8"/>
<rect x="38" y="104" width="33" height="22" fill="#F8F8F8"/>
<rect x="16" y="126" width="32" height="22" fill="#F8F8F8"/>
<rect x="16" y="148" width="22" height="22" fill="#F8F8F8"/>
<rect x="16" y="170" width="22" height="22" fill="#F8F8F8"/>
<rect x="38" y="192" width="44" height="22" fill="#F8F8F8"/>
<rect x="60" y="214" width="22" height="22" fill="#F8F8F8"/>
<rect x="74" y="211" width="22" height="22" fill="#F8F8F8"/>
<rect x="138" y="31" width="13" height="13" fill="#F8F8F8"/>
<rect x="164" y="11" width="13" height="13" fill="#F8F8F8"/>
<rect x="177" y="11" width="13" height="13" fill="#F8F8F8"/>
<rect x="190" y="11" width="13" height="13" fill="#F8F8F8"/>
<rect x="229" y="11" width="13" height="13" fill="#F8F8F8"/>
<rect x="203" y="11" width="13" height="13" fill="#F8F8F8"/>
<rect x="216" y="11" width="13" height="13" fill="#F8F8F8"/>
<rect x="242" y="11" width="32" height="22" fill="#F8F8F8"/>
<rect x="253" y="24" width="13" height="13" fill="#F8F8F8"/>
<rect x="266" y="11" width="13" height="13" fill="#F8F8F8"/>
<rect x="279" y="11" width="13" height="13" fill="#F8F8F8"/>
<rect x="292" y="11" width="13" height="13" fill="#F8F8F8"/>
<rect x="305" y="11" width="13" height="13" fill="#F8F8F8"/>
<rect x="344" y="11" width="13" height="13" fill="#F8F8F8"/>
<rect x="318" y="11" width="13" height="13" fill="#F8F8F8"/>
<rect x="331" y="11" width="13" height="13" fill="#F8F8F8"/>
<rect x="408" y="11" width="13" height="13" fill="#F8F8F8"/>
<rect x="395" y="11" width="13" height="22" fill="#F8F8F8"/>
<rect x="421" y="11" width="13" height="13" fill="#F8F8F8"/>
<rect x="434" y="11" width="13" height="13" fill="#F8F8F8"/>
<rect x="447" y="11" width="13" height="13" fill="#F8F8F8"/>
<rect x="460" y="11" width="13" height="13" fill="#F8F8F8"/>
<rect x="499" y="11" width="13" height="13" fill="#F8F8F8"/>
<rect x="525" y="24" width="13" height="13" fill="#F8F8F8"/>
<rect x="554" y="50" width="13" height="13" fill="#F8F8F8"/>
<rect x="473" y="11" width="13" height="13" fill="#F8F8F8"/>
<rect x="486" y="11" width="13" height="13" fill="#F8F8F8"/>
<rect x="512" y="11" width="15" height="23" fill="#F8F8F8"/>
<rect x="538" y="24" width="13" height="13" fill="#F8F8F8"/>
<rect x="563" y="63" width="13" height="13" fill="#F8F8F8"/>
<rect x="566" y="60" width="49" height="16" fill="#F8F8F8"/>
<rect x="647" y="3" width="58" height="17" fill="#F8F8F8"/>
<rect x="627" y="20" width="39" height="22" fill="#F8F8F8"/>
<path d="M607 40H620V60.5263L607 70V40Z" fill="#F8F8F8"/>
<rect x="589" y="64" width="23" height="13" fill="#F8F8F8"/>
<rect x="615" y="40" width="20" height="13" fill="#F8F8F8"/>
<rect x="616" y="45" width="13" height="13" fill="#F8F8F8"/>
<rect x="641" y="24" width="13" height="13" fill="#F8F8F8"/>
<rect x="667" y="11" width="13" height="13" fill="#F8F8F8"/>
<rect x="680" y="11" width="13" height="13" fill="#F8F8F8"/>
<rect x="692" y="11" width="13" height="13" fill="#F8F8F8"/>
<rect x="704" y="3" width="13" height="17" fill="#F8F8F8"/>
<rect x="717" y="3" width="13" height="17" fill="#F8F8F8"/>
<rect x="730" y="3" width="13" height="17" fill="#F8F8F8"/>
<rect x="743" y="3" width="13" height="17" fill="#F8F8F8"/>
<rect x="885" y="3" width="13" height="17" fill="#F8F8F8"/>
<rect x="898" y="3" width="13" height="17" fill="#F8F8F8"/>
<rect x="911" y="3" width="13" height="17" fill="#F8F8F8"/>
<rect x="950" y="3" width="13" height="17" fill="#F8F8F8"/>
<rect x="967" y="23" width="22" height="13" fill="#F8F8F8"/>
<rect x="924" y="3" width="13" height="17" fill="#F8F8F8"/>
<rect x="937" y="3" width="13" height="17" fill="#F8F8F8"/>
<rect x="955" y="3" width="16" height="34" fill="#F8F8F8"/>
<rect x="1008" y="3" width="19" height="21" fill="#F8F8F8"/>
<rect x="989" y="23" width="13" height="13" fill="#F8F8F8"/>
<rect x="1001" y="23" width="13" height="13" fill="#F8F8F8"/>
<rect x="1027" y="3" width="13" height="21" fill="#F8F8F8"/>
<rect x="1040" y="3" width="13" height="21" fill="#F8F8F8"/>
<rect x="1053" y="3" width="13" height="21" fill="#F8F8F8"/>
<rect x="1095" y="3" width="14" height="21" fill="#F8F8F8"/>
<rect x="1118" y="23" width="13" height="13" fill="#F8F8F8"/>
<rect x="1066" y="3" width="14" height="21" fill="#F8F8F8"/>
<rect x="1080" y="3" width="15" height="21" fill="#F8F8F8"/>
<rect x="1109" y="3" width="13" height="29" fill="#F8F8F8"/>
<rect x="1155" y="3" width="13" height="22" fill="#F8F8F8"/>
<rect x="1131" y="23" width="13" height="13" fill="#F8F8F8"/>
<rect x="1142" y="3" width="13" height="36" fill="#F8F8F8"/>
<rect x="1168" y="3" width="13" height="22" fill="#F8F8F8"/>
<rect x="1181" y="3" width="13" height="22" fill="#F8F8F8"/>
<rect x="1194" y="3" width="13" height="22" fill="#F8F8F8"/>
<rect x="1229" y="3" width="13" height="22" fill="#F8F8F8"/>
<rect x="1236" y="23" width="26" height="26" fill="#F8F8F8"/>
<rect x="1261" y="37" width="21" height="26" fill="#F8F8F8"/>
<rect x="1207" y="3" width="13" height="22" fill="#F8F8F8"/>
<rect x="1220" y="11" width="13" height="13" fill="#F8F8F8"/>
<rect x="1218" y="3" width="22" height="43" fill="#F8F8F8"/>
<rect x="1275" y="57" width="27" height="19" fill="#F8F8F8"/>
<rect x="1293" y="76" width="29" height="13" fill="#F8F8F8"/>
<rect x="1293" y="88" width="29" height="13" fill="#F8F8F8"/>
<rect x="1293" y="101" width="29" height="13" fill="#F8F8F8"/>
<rect x="1293" y="114" width="29" height="13" fill="#F8F8F8"/>
<rect x="1293" y="127" width="29" height="13" fill="#F8F8F8"/>
<rect x="1293" y="140" width="29" height="13" fill="#F8F8F8"/>
<rect x="1293" y="149" width="29" height="13" fill="#F8F8F8"/>
<rect x="1289" y="158" width="13" height="21" fill="#F8F8F8"/>
<rect x="1289" y="179" width="13" height="13" fill="#F8F8F8"/>
<rect x="1289" y="192" width="13" height="13" fill="#F8F8F8"/>
<rect x="1272" y="191" width="18" height="27" fill="#F8F8F8"/>
<rect x="1340" y="242" width="22" height="13" fill="#F8F8F8"/>
<rect x="1340" y="255" width="22" height="13" fill="#F8F8F8"/>
<rect x="1330" y="268" width="32" height="15" fill="#F8F8F8"/>
<rect x="1323" y="281" width="20" height="13" fill="#F8F8F8"/>
<rect x="1317" y="290" width="26" height="13" fill="#F8F8F8"/>
<rect x="1310" y="307" width="13" height="13" fill="#F8F8F8"/>
<rect x="1310" y="301" width="13" height="22" fill="#F8F8F8"/>
<rect x="1273" y="321" width="30" height="22" fill="#F8F8F8"/>
<rect x="1284" y="310" width="26" height="13" fill="#F8F8F8"/>
<rect x="1257" y="339" width="26" height="24" fill="#F8F8F8"/>
<rect x="1232" y="369" width="20" height="13" fill="#F8F8F8"/>
<rect x="1217" y="379" width="26" height="24" fill="#F8F8F8"/>
<rect x="1178" y="395" width="37" height="13" fill="#F8F8F8"/>
<rect x="1155" y="423" width="13" height="13" fill="#F8F8F8"/>
<rect x="1168" y="423" width="13" height="13" fill="#F8F8F8"/>
<rect x="1181" y="414" width="42" height="22" fill="#F8F8F8"/>
<rect x="1194" y="410" width="13" height="13" fill="#F8F8F8"/>
<rect x="1199" y="400" width="24" height="16" fill="#F8F8F8"/>
<rect x="1092" y="397" width="13" height="13" fill="#F8F8F8"/>
<rect x="1103" y="410" width="15" height="13" fill="#F8F8F8"/>
<rect x="1118" y="410" width="13" height="13" fill="#F8F8F8"/>
<rect x="1131" y="423" width="13" height="13" fill="#F8F8F8"/>
<rect x="1142" y="423" width="13" height="13" fill="#F8F8F8"/>
<rect x="1079" y="384" width="13" height="13" fill="#F8F8F8"/>
<rect x="1118" y="359" width="13" height="13" fill="#F8F8F8"/>
<rect x="1105" y="371" width="13" height="13" fill="#F8F8F8"/>
<rect x="1092" y="384" width="13" height="13" fill="#F8F8F8"/>
<rect x="1079" y="397" width="13" height="13" fill="#F8F8F8"/>
<rect x="1066" y="404" width="47" height="19" fill="#F8F8F8"/>
<rect x="730" y="423" width="13" height="13" fill="#F8F8F8"/>
<rect x="743" y="423" width="19" height="13" fill="#F8F8F8"/>
<rect x="756" y="414" width="29" height="22" fill="#F8F8F8"/>
<rect x="717" y="423" width="13" height="13" fill="#F8F8F8"/>
<rect x="680" y="403" width="13" height="13" fill="#F8F8F8"/>
<rect x="667" y="403" width="13" height="13" fill="#F8F8F8"/>
<rect x="692" y="403" width="13" height="13" fill="#F8F8F8"/>
<rect x="700" y="409" width="17" height="27" fill="#F8F8F8"/>
<rect x="667" y="397" width="13" height="13" fill="#F8F8F8"/>
<rect x="654" y="403" width="13" height="13" fill="#F8F8F8"/>
<rect x="602" y="423" width="13" height="13" fill="#F8F8F8"/>
<rect x="615" y="423" width="13" height="13" fill="#F8F8F8"/>
<rect x="619" y="411" width="22" height="25" fill="#F8F8F8"/>
<rect x="641" y="403" width="13" height="13" fill="#F8F8F8"/>
<rect x="510" y="378" width="19" height="19" fill="#F8F8F8"/>
<rect x="525" y="397" width="23" height="19" fill="#F8F8F8"/>
<rect x="545" y="403" width="18" height="13" fill="#F8F8F8"/>
<rect x="538" y="397" width="13" height="13" fill="#F8F8F8"/>
<rect x="563" y="403" width="13" height="13" fill="#F8F8F8"/>
<rect x="576" y="411" width="16" height="25" fill="#F8F8F8"/>
<rect x="589" y="423" width="13" height="13" fill="#F8F8F8"/>
<rect x="1118" y="307" width="13" height="13" fill="#F8F8F8"/>
<rect x="1118" y="320" width="13" height="13" fill="#F8F8F8"/>
<rect x="1118" y="294" width="13" height="13" fill="#F8F8F8"/>
<rect x="1118" y="333" width="13" height="13" fill="#F8F8F8"/>
<rect x="1131" y="346" width="13" height="13" fill="#F8F8F8"/>
<rect x="1142" y="359" width="13" height="13" fill="#F8F8F8"/>
<rect x="1155" y="359" width="13" height="13" fill="#F8F8F8"/>
<rect x="1168" y="359" width="13" height="13" fill="#F8F8F8"/>
<rect x="1181" y="346" width="13" height="13" fill="#F8F8F8"/>
<rect x="1207" y="333" width="13" height="13" fill="#F8F8F8"/>
<rect x="1194" y="346" width="13" height="13" fill="#F8F8F8"/>
<rect x="1220" y="320" width="13" height="13" fill="#F8F8F8"/>
<rect x="1233" y="307" width="13" height="13" fill="#F8F8F8"/>
<rect x="1246" y="294" width="13" height="13" fill="#F8F8F8"/>
<rect x="1246" y="281" width="13" height="13" fill="#F8F8F8"/>
<rect x="1259" y="268" width="13" height="13" fill="#F8F8F8"/>
<rect x="1246" y="268" width="13" height="13" fill="#F8F8F8"/>
<rect x="1233" y="294" width="13" height="13" fill="#F8F8F8"/>
<rect x="1220" y="307" width="13" height="13" fill="#F8F8F8"/>
<rect x="1207" y="320" width="13" height="13" fill="#F8F8F8"/>
<rect x="1194" y="320" width="13" height="13" fill="#F8F8F8"/>
<rect x="1181" y="333" width="13" height="13" fill="#F8F8F8"/>
<rect x="1181" y="320" width="13" height="13" fill="#F8F8F8"/>
<rect x="1168" y="320" width="13" height="13" fill="#F8F8F8"/>
<rect x="1168" y="307" width="13" height="13" fill="#F8F8F8"/>
<rect x="1181" y="307" width="13" height="13" fill="#F8F8F8"/>
<rect x="1181" y="294" width="13" height="13" fill="#F8F8F8"/>
<rect x="1181" y="281" width="13" height="13" fill="#F8F8F8"/>
<rect x="1181" y="268" width="13" height="13" fill="#F8F8F8"/>
<rect x="1194" y="268" width="13" height="13" fill="#F8F8F8"/>
<rect x="1194" y="255" width="13" height="13" fill="#F8F8F8"/>
<rect x="1194" y="242" width="13" height="13" fill="#F8F8F8"/>
<rect x="1194" y="229" width="13" height="13" fill="#F8F8F8"/>
<rect x="1207" y="218" width="13" height="13" fill="#F8F8F8"/>
<rect x="1207" y="205" width="13" height="13" fill="#F8F8F8"/>
<rect x="1207" y="192" width="13" height="13" fill="#F8F8F8"/>
<rect x="1220" y="179" width="13" height="13" fill="#F8F8F8"/>
<rect x="1220" y="166" width="13" height="13" fill="#F8F8F8"/>
<rect x="1220" y="153" width="13" height="13" fill="#F8F8F8"/>
<rect x="1233" y="153" width="13" height="13" fill="#F8F8F8"/>
<rect x="1233" y="140" width="13" height="13" fill="#F8F8F8"/>
<rect x="1233" y="127" width="13" height="13" fill="#F8F8F8"/>
<rect x="1233" y="114" width="13" height="13" fill="#F8F8F8"/>
<rect x="1233" y="101" width="13" height="13" fill="#F8F8F8"/>
<rect x="1233" y="88" width="13" height="13" fill="#F8F8F8"/>
<rect x="1220" y="76" width="13" height="13" fill="#F8F8F8"/>
<rect x="1207" y="76" width="13" height="13" fill="#F8F8F8"/>
<rect x="1194" y="76" width="13" height="13" fill="#F8F8F8"/>
<rect x="1181" y="76" width="13" height="13" fill="#F8F8F8"/>
<rect x="1168" y="76" width="13" height="13" fill="#F8F8F8"/>
<rect x="1155" y="88" width="13" height="13" fill="#F8F8F8"/>
<rect x="1142" y="101" width="13" height="13" fill="#F8F8F8"/>
<rect x="1131" y="101" width="13" height="13" fill="#F8F8F8"/>
<rect x="1131" y="114" width="13" height="13" fill="#F8F8F8"/>
<rect x="1118" y="114" width="13" height="13" fill="#F8F8F8"/>
<rect x="1118" y="127" width="13" height="13" fill="#F8F8F8"/>
<rect x="1105" y="140" width="13" height="13" fill="#F8F8F8"/>
<rect x="1092" y="153" width="13" height="13" fill="#F8F8F8"/>
<rect x="1092" y="166" width="13" height="13" fill="#F8F8F8"/>
<rect x="1079" y="179" width="13" height="13" fill="#F8F8F8"/>
<rect x="1079" y="192" width="13" height="13" fill="#F8F8F8"/>
<rect x="1066" y="192" width="13" height="13" fill="#F8F8F8"/>
<rect x="1092" y="140" width="13" height="13" fill="#F8F8F8"/>
<rect x="1079" y="153" width="13" height="13" fill="#F8F8F8"/>
<rect x="1079" y="166" width="13" height="13" fill="#F8F8F8"/>
<rect x="1092" y="127" width="13" height="13" fill="#F8F8F8"/>
<rect x="1092" y="114" width="13" height="13" fill="#F8F8F8"/>
<rect x="1092" y="101" width="13" height="13" fill="#F8F8F8"/>
<rect x="1092" y="88" width="13" height="13" fill="#F8F8F8"/>
<rect x="1079" y="76" width="13" height="13" fill="#F8F8F8"/>
<rect x="1066" y="76" width="13" height="13" fill="#F8F8F8"/>
<rect x="1053" y="76" width="13" height="13" fill="#F8F8F8"/>
<rect x="1040" y="76" width="13" height="13" fill="#F8F8F8"/>
<rect x="1027" y="76" width="13" height="13" fill="#F8F8F8"/>
<rect x="1014" y="88" width="13" height="13" fill="#F8F8F8"/>
<rect x="1001" y="101" width="13" height="13" fill="#F8F8F8"/>
<rect x="989" y="101" width="13" height="13" fill="#F8F8F8"/>
<rect x="989" y="114" width="13" height="13" fill="#F8F8F8"/>
<rect x="976" y="114" width="13" height="13" fill="#F8F8F8"/>
<rect x="976" y="127" width="13" height="13" fill="#F8F8F8"/>
<rect x="963" y="127" width="13" height="13" fill="#F8F8F8"/>
<rect x="963" y="140" width="13" height="13" fill="#F8F8F8"/>
<rect x="950" y="153" width="13" height="13" fill="#F8F8F8"/>
<rect x="950" y="166" width="13" height="13" fill="#F8F8F8"/>
<rect x="937" y="179" width="13" height="13" fill="#F8F8F8"/>
<rect x="937" y="192" width="13" height="13" fill="#F8F8F8"/>
<rect x="924" y="192" width="13" height="13" fill="#F8F8F8"/>
<rect x="950" y="114" width="13" height="13" fill="#F8F8F8"/>
<rect x="950" y="127" width="13" height="13" fill="#F8F8F8"/>
<rect x="937" y="140" width="13" height="13" fill="#F8F8F8"/>
<rect x="937" y="153" width="13" height="13" fill="#F8F8F8"/>
<rect x="937" y="166" width="13" height="13" fill="#F8F8F8"/>
<rect x="950" y="101" width="13" height="13" fill="#F8F8F8"/>
<rect x="950" y="88" width="13" height="13" fill="#F8F8F8"/>
<rect x="937" y="76" width="13" height="13" fill="#F8F8F8"/>
<rect x="924" y="76" width="13" height="13" fill="#F8F8F8"/>
<rect x="911" y="76" width="13" height="13" fill="#F8F8F8"/>
<rect x="885" y="76" width="13" height="13" fill="#F8F8F8"/>
<rect x="898" y="76" width="13" height="13" fill="#F8F8F8"/>
<rect x="872" y="88" width="13" height="13" fill="#F8F8F8"/>
<rect x="859" y="88" width="13" height="13" fill="#F8F8F8"/>
<rect x="859" y="101" width="13" height="13" fill="#F8F8F8"/>
<rect x="846" y="114" width="13" height="13" fill="#F8F8F8"/>
<rect x="834" y="127" width="13" height="13" fill="#F8F8F8"/>
<rect x="834" y="140" width="13" height="13" fill="#F8F8F8"/>
<rect x="821" y="140" width="13" height="13" fill="#F8F8F8"/>
<rect x="834" y="153" width="13" height="13" fill="#F8F8F8"/>
<rect x="846" y="140" width="13" height="13" fill="#F8F8F8"/>
<rect x="846" y="127" width="13" height="13" fill="#F8F8F8"/>
<rect x="859" y="114" width="13" height="13" fill="#F8F8F8"/>
<rect x="872" y="101" width="13" height="13" fill="#F8F8F8"/>
<rect x="885" y="88" width="13" height="13" fill="#F8F8F8"/>
<rect x="898" y="101" width="13" height="13" fill="#F8F8F8"/>
<rect x="898" y="114" width="13" height="13" fill="#F8F8F8"/>
<rect x="898" y="127" width="13" height="13" fill="#F8F8F8"/>
<rect x="898" y="140" width="13" height="13" fill="#F8F8F8"/>
<rect x="898" y="153" width="13" height="13" fill="#F8F8F8"/>
<rect x="885" y="166" width="13" height="13" fill="#F8F8F8"/>
<rect x="885" y="179" width="13" height="13" fill="#F8F8F8"/>
<rect x="885" y="192" width="13" height="13" fill="#F8F8F8"/>
<rect x="872" y="205" width="13" height="13" fill="#F8F8F8"/>
<rect x="872" y="218" width="13" height="13" fill="#F8F8F8"/>
<rect x="872" y="229" width="13" height="13" fill="#F8F8F8"/>
<rect x="859" y="242" width="13" height="13" fill="#F8F8F8"/>
<rect x="859" y="255" width="13" height="13" fill="#F8F8F8"/>
<rect x="859" y="268" width="13" height="13" fill="#F8F8F8"/>
<rect x="846" y="281" width="13" height="13" fill="#F8F8F8"/>
<rect x="846" y="294" width="13" height="13" fill="#F8F8F8"/>
<rect x="846" y="307" width="13" height="13" fill="#F8F8F8"/>
<rect x="834" y="320" width="13" height="13" fill="#F8F8F8"/>
<rect x="834" y="333" width="13" height="13" fill="#F8F8F8"/>
<rect x="834" y="346" width="13" height="13" fill="#F8F8F8"/>
<rect x="911" y="268" width="13" height="13" fill="#F8F8F8"/>
<rect x="911" y="281" width="13" height="13" fill="#F8F8F8"/>
<rect x="898" y="294" width="13" height="13" fill="#F8F8F8"/>
<rect x="898" y="307" width="13" height="13" fill="#F8F8F8"/>
<rect x="885" y="320" width="13" height="13" fill="#F8F8F8"/>
<rect x="885" y="333" width="13" height="13" fill="#F8F8F8"/>
<rect x="885" y="346" width="13" height="13" fill="#F8F8F8"/>
<rect x="911" y="255" width="13" height="13" fill="#F8F8F8"/>
<rect x="924" y="218" width="13" height="13" fill="#F8F8F8"/>
<rect x="924" y="229" width="13" height="13" fill="#F8F8F8"/>
<rect x="924" y="242" width="13" height="13" fill="#F8F8F8"/>
<rect x="937" y="205" width="13" height="13" fill="#F8F8F8"/>
<rect x="950" y="179" width="13" height="13" fill="#F8F8F8"/>
<rect x="963" y="166" width="13" height="13" fill="#F8F8F8"/>
<rect x="976" y="140" width="13" height="13" fill="#F8F8F8"/>
<rect x="963" y="153" width="13" height="13" fill="#F8F8F8"/>
<rect x="989" y="127" width="13" height="13" fill="#F8F8F8"/>
<rect x="1001" y="114" width="13" height="13" fill="#F8F8F8"/>
<rect x="1014" y="101" width="13" height="13" fill="#F8F8F8"/>
<rect x="1027" y="88" width="13" height="13" fill="#F8F8F8"/>
<rect x="1040" y="101" width="13" height="13" fill="#F8F8F8"/>
<rect x="1040" y="114" width="13" height="13" fill="#F8F8F8"/>
<rect x="1040" y="127" width="13" height="13" fill="#F8F8F8"/>
<rect x="1040" y="140" width="13" height="13" fill="#F8F8F8"/>
<rect x="1027" y="153" width="13" height="13" fill="#F8F8F8"/>
<rect x="1027" y="166" width="13" height="13" fill="#F8F8F8"/>
<rect x="1027" y="179" width="13" height="13" fill="#F8F8F8"/>
<rect x="1014" y="179" width="13" height="13" fill="#F8F8F8"/>
<rect x="1014" y="192" width="13" height="13" fill="#F8F8F8"/>
<rect x="1014" y="205" width="13" height="13" fill="#F8F8F8"/>
<rect x="976" y="346" width="13" height="13" fill="#F8F8F8"/>
<rect x="989" y="346" width="13" height="13" fill="#F8F8F8"/>
<rect x="1001" y="346" width="13" height="13" fill="#F8F8F8"/>
<rect x="1014" y="346" width="13" height="13" fill="#F8F8F8"/>
<rect x="1027" y="346" width="13" height="13" fill="#F8F8F8"/>
<rect x="963" y="346" width="13" height="13" fill="#F8F8F8"/>
<rect x="1040" y="294" width="13" height="13" fill="#F8F8F8"/>
<rect x="1040" y="307" width="13" height="13" fill="#F8F8F8"/>
<rect x="1027" y="320" width="13" height="13" fill="#F8F8F8"/>
<rect x="1027" y="333" width="13" height="13" fill="#F8F8F8"/>
<rect x="1053" y="255" width="13" height="13" fill="#F8F8F8"/>
<rect x="1053" y="268" width="13" height="13" fill="#F8F8F8"/>
<rect x="1040" y="281" width="13" height="13" fill="#F8F8F8"/>
<rect x="1066" y="229" width="13" height="13" fill="#F8F8F8"/>
<rect x="1053" y="242" width="13" height="13" fill="#F8F8F8"/>
<rect x="1066" y="218" width="13" height="13" fill="#F8F8F8"/>
<rect x="1079" y="205" width="13" height="13" fill="#F8F8F8"/>
<rect x="1092" y="179" width="13" height="13" fill="#F8F8F8"/>
<rect x="1105" y="153" width="13" height="13" fill="#F8F8F8"/>
<rect x="1118" y="140" width="13" height="13" fill="#F8F8F8"/>
<rect x="1131" y="127" width="13" height="13" fill="#F8F8F8"/>
<rect x="1142" y="114" width="13" height="13" fill="#F8F8F8"/>
<rect x="1155" y="101" width="13" height="13" fill="#F8F8F8"/>
<rect x="1168" y="88" width="13" height="13" fill="#F8F8F8"/>
<rect x="1181" y="101" width="13" height="13" fill="#F8F8F8"/>
<rect x="1181" y="88" width="13" height="13" fill="#F8F8F8"/>
<rect x="1181" y="114" width="13" height="13" fill="#F8F8F8"/>
<rect x="1181" y="127" width="13" height="13" fill="#F8F8F8"/>
<rect x="1181" y="140" width="13" height="13" fill="#F8F8F8"/>
<rect x="1168" y="153" width="13" height="13" fill="#F8F8F8"/>
<rect x="1168" y="166" width="13" height="13" fill="#F8F8F8"/>
<rect x="1168" y="179" width="13" height="13" fill="#F8F8F8"/>
<rect x="1155" y="179" width="13" height="13" fill="#F8F8F8"/>
<rect x="1155" y="192" width="13" height="13" fill="#F8F8F8"/>
<rect x="1155" y="205" width="13" height="13" fill="#F8F8F8"/>
<rect x="1155" y="218" width="13" height="13" fill="#F8F8F8"/>
<rect x="1142" y="229" width="13" height="13" fill="#F8F8F8"/>
<rect x="1142" y="242" width="13" height="13" fill="#F8F8F8"/>
<rect x="1142" y="255" width="13" height="13" fill="#F8F8F8"/>
<rect x="1131" y="268" width="13" height="13" fill="#F8F8F8"/>
<rect x="1131" y="281" width="13" height="13" fill="#F8F8F8"/>
<rect x="1131" y="294" width="13" height="13" fill="#F8F8F8"/>
<rect x="743" y="114" width="13" height="13" fill="#F8F8F8"/>
<rect x="730" y="88" width="13" height="13" fill="#F8F8F8"/>
<rect x="743" y="101" width="13" height="13" fill="#F8F8F8"/>
<rect x="730" y="76" width="13" height="13" fill="#F8F8F8"/>
<rect x="717" y="76" width="13" height="13" fill="#F8F8F8"/>
<rect x="704" y="76" width="13" height="13" fill="#F8F8F8"/>
<rect x="692" y="76" width="13" height="13" fill="#F8F8F8"/>
<rect x="667" y="76" width="13" height="13" fill="#F8F8F8"/>
<rect x="641" y="88" width="13" height="13" fill="#F8F8F8"/>
<rect x="628" y="101" width="13" height="13" fill="#F8F8F8"/>
<rect x="654" y="88" width="13" height="13" fill="#F8F8F8"/>
<rect x="680" y="76" width="13" height="13" fill="#F8F8F8"/>
<rect x="615" y="114" width="13" height="13" fill="#F8F8F8"/>
<rect x="602" y="127" width="13" height="13" fill="#F8F8F8"/>
<rect x="602" y="140" width="13" height="13" fill="#F8F8F8"/>
<rect x="589" y="140" width="13" height="13" fill="#F8F8F8"/>
<rect x="589" y="153" width="13" height="13" fill="#F8F8F8"/>
<rect x="576" y="166" width="13" height="13" fill="#F8F8F8"/>
<rect x="563" y="179" width="13" height="13" fill="#F8F8F8"/>
<rect x="563" y="192" width="13" height="13" fill="#F8F8F8"/>
<rect x="563" y="205" width="13" height="13" fill="#F8F8F8"/>
<rect x="550" y="205" width="13" height="13" fill="#F8F8F8"/>
<rect x="550" y="218" width="13" height="13" fill="#F8F8F8"/>
<rect x="550" y="229" width="13" height="13" fill="#F8F8F8"/>
<rect x="550" y="242" width="13" height="13" fill="#F8F8F8"/>
<rect x="538" y="255" width="13" height="13" fill="#F8F8F8"/>
<rect x="538" y="268" width="13" height="13" fill="#F8F8F8"/>
<rect x="538" y="281" width="13" height="13" fill="#F8F8F8"/>
<rect x="538" y="294" width="13" height="13" fill="#F8F8F8"/>
<rect x="538" y="307" width="13" height="13" fill="#F8F8F8"/>
<rect x="550" y="320" width="13" height="13" fill="#F8F8F8"/>
<rect x="550" y="333" width="13" height="13" fill="#F8F8F8"/>
<rect x="563" y="333" width="13" height="13" fill="#F8F8F8"/>
<rect x="563" y="346" width="13" height="13" fill="#F8F8F8"/>
<rect x="576" y="346" width="13" height="13" fill="#F8F8F8"/>
<rect x="589" y="359" width="13" height="13" fill="#F8F8F8"/>
<rect x="602" y="359" width="13" height="13" fill="#F8F8F8"/>
<rect x="615" y="359" width="13" height="13" fill="#F8F8F8"/>
<rect x="628" y="346" width="13" height="13" fill="#F8F8F8"/>
<rect x="654" y="333" width="13" height="13" fill="#F8F8F8"/>
<rect x="641" y="346" width="13" height="13" fill="#F8F8F8"/>
<rect x="667" y="320" width="13" height="13" fill="#F8F8F8"/>
<rect x="667" y="307" width="13" height="13" fill="#F8F8F8"/>
<rect x="692" y="281" width="13" height="13" fill="#F8F8F8"/>
<rect x="680" y="294" width="13" height="13" fill="#F8F8F8"/>
<rect x="692" y="294" width="13" height="13" fill="#F8F8F8"/>
<rect x="692" y="307" width="13" height="13" fill="#F8F8F8"/>
<rect x="692" y="320" width="13" height="13" fill="#F8F8F8"/>
<rect x="692" y="333" width="13" height="13" fill="#F8F8F8"/>
<rect x="692" y="346" width="13" height="13" fill="#F8F8F8"/>
<rect x="704" y="359" width="13" height="13" fill="#F8F8F8"/>
<rect x="717" y="359" width="13" height="13" fill="#F8F8F8"/>
<rect x="730" y="359" width="13" height="13" fill="#F8F8F8"/>
<rect x="743" y="359" width="13" height="13" fill="#F8F8F8"/>
<rect x="743" y="346" width="13" height="13" fill="#F8F8F8"/>
<rect x="756" y="346" width="13" height="13" fill="#F8F8F8"/>
<rect x="769" y="346" width="13" height="13" fill="#F8F8F8"/>
<rect x="769" y="333" width="13" height="13" fill="#F8F8F8"/>
<rect x="795" y="320" width="13" height="13" fill="#F8F8F8"/>
<rect x="782" y="333" width="13" height="13" fill="#F8F8F8"/>
<rect x="795" y="307" width="13" height="13" fill="#F8F8F8"/>
<rect x="821" y="281" width="13" height="13" fill="#F8F8F8"/>
<rect x="808" y="294" width="13" height="13" fill="#F8F8F8"/>
<rect x="821" y="268" width="13" height="13" fill="#F8F8F8"/>
<rect x="808" y="281" width="13" height="13" fill="#F8F8F8"/>
<rect x="795" y="294" width="13" height="13" fill="#F8F8F8"/>
<rect x="782" y="307" width="13" height="13" fill="#F8F8F8"/>
<rect x="769" y="320" width="13" height="13" fill="#F8F8F8"/>
<rect x="756" y="320" width="13" height="13" fill="#F8F8F8"/>
<rect x="743" y="333" width="13" height="13" fill="#F8F8F8"/>
<rect x="743" y="320" width="13" height="13" fill="#F8F8F8"/>
<rect x="730" y="320" width="13" height="13" fill="#F8F8F8"/>
<rect x="730" y="307" width="13" height="13" fill="#F8F8F8"/>
<rect x="730" y="294" width="13" height="13" fill="#F8F8F8"/>
<rect x="743" y="294" width="13" height="13" fill="#F8F8F8"/>
<rect x="743" y="281" width="13" height="13" fill="#F8F8F8"/>
<rect x="743" y="268" width="13" height="13" fill="#F8F8F8"/>
<rect x="743" y="255" width="13" height="13" fill="#F8F8F8"/>
<rect x="756" y="218" width="13" height="13" fill="#F8F8F8"/>
<rect x="756" y="229" width="13" height="13" fill="#F8F8F8"/>
<rect x="756" y="242" width="13" height="13" fill="#F8F8F8"/>
<rect x="756" y="205" width="13" height="13" fill="#F8F8F8"/>
<rect x="717" y="179" width="13" height="13" fill="#F8F8F8"/>
<rect x="717" y="192" width="13" height="13" fill="#F8F8F8"/>
<rect x="730" y="179" width="13" height="13" fill="#F8F8F8"/>
<rect x="717" y="205" width="13" height="13" fill="#F8F8F8"/>
<rect x="717" y="218" width="13" height="13" fill="#F8F8F8"/>
<rect x="704" y="218" width="13" height="13" fill="#F8F8F8"/>
<rect x="704" y="229" width="13" height="13" fill="#F8F8F8"/>
<rect x="704" y="242" width="13" height="13" fill="#F8F8F8"/>
<rect x="692" y="255" width="13" height="13" fill="#F8F8F8"/>
<rect x="692" y="268" width="13" height="13" fill="#F8F8F8"/>
<rect x="680" y="268" width="13" height="13" fill="#F8F8F8"/>
<rect x="680" y="281" width="13" height="13" fill="#F8F8F8"/>
<rect x="667" y="294" width="13" height="13" fill="#F8F8F8"/>
<rect x="654" y="307" width="13" height="13" fill="#F8F8F8"/>
<rect x="641" y="320" width="13" height="13" fill="#F8F8F8"/>
<rect x="628" y="333" width="13" height="13" fill="#F8F8F8"/>
<rect x="615" y="333" width="13" height="13" fill="#F8F8F8"/>
<rect x="602" y="320" width="13" height="13" fill="#F8F8F8"/>
<rect x="589" y="307" width="13" height="13" fill="#F8F8F8"/>
<rect x="589" y="294" width="13" height="13" fill="#F8F8F8"/>
<rect x="589" y="281" width="13" height="13" fill="#F8F8F8"/>
<rect x="602" y="218" width="13" height="13" fill="#F8F8F8"/>
<rect x="602" y="229" width="13" height="13" fill="#F8F8F8"/>
<rect x="602" y="242" width="13" height="13" fill="#F8F8F8"/>
<rect x="602" y="255" width="13" height="13" fill="#F8F8F8"/>
<rect x="602" y="268" width="13" height="13" fill="#F8F8F8"/>
<rect x="615" y="218" width="13" height="13" fill="#F8F8F8"/>
<rect x="641" y="127" width="13" height="13" fill="#F8F8F8"/>
<rect x="641" y="140" width="13" height="13" fill="#F8F8F8"/>
<rect x="628" y="153" width="13" height="13" fill="#F8F8F8"/>
<rect x="628" y="166" width="13" height="13" fill="#F8F8F8"/>
<rect x="615" y="179" width="13" height="13" fill="#F8F8F8"/>
<rect x="615" y="192" width="13" height="13" fill="#F8F8F8"/>
<rect x="615" y="205" width="13" height="13" fill="#F8F8F8"/>
<rect x="680" y="88" width="13" height="13" fill="#F8F8F8"/>
<rect x="667" y="101" width="13" height="13" fill="#F8F8F8"/>
<rect x="654" y="114" width="13" height="13" fill="#F8F8F8"/>
<rect x="717" y="88" width="13" height="13" fill="#F8F8F8"/>
<rect x="730" y="101" width="13" height="13" fill="#F8F8F8"/>
<rect x="730" y="114" width="13" height="13" fill="#F8F8F8"/>
<rect x="730" y="127" width="13" height="13" fill="#F8F8F8"/>
<rect x="730" y="140" width="13" height="13" fill="#F8F8F8"/>
<rect x="730" y="153" width="13" height="13" fill="#F8F8F8"/>
<rect x="730" y="166" width="13" height="13" fill="#F8F8F8"/>
<rect x="138" y="88" width="13" height="13" fill="#F8F8F8"/>
<rect x="151" y="88" width="13" height="13" fill="#F8F8F8"/>
<rect x="138" y="101" width="13" height="13" fill="#F8F8F8"/>
<rect x="125" y="114" width="13" height="13" fill="#F8F8F8"/>
<rect x="112" y="127" width="13" height="13" fill="#F8F8F8"/>
<rect x="112" y="140" width="13" height="13" fill="#F8F8F8"/>
<rect x="99" y="140" width="13" height="13" fill="#F8F8F8"/>
<rect x="112" y="153" width="13" height="13" fill="#F8F8F8"/>
<rect x="125" y="127" width="13" height="13" fill="#F8F8F8"/>
<rect x="138" y="114" width="13" height="13" fill="#F8F8F8"/>
<rect x="151" y="101" width="13" height="13" fill="#F8F8F8"/>
<rect x="164" y="88" width="13" height="13" fill="#F8F8F8"/>
<rect x="177" y="101" width="13" height="13" fill="#F8F8F8"/>
<rect x="177" y="114" width="13" height="13" fill="#F8F8F8"/>
<rect x="177" y="127" width="13" height="13" fill="#F8F8F8"/>
<rect x="177" y="140" width="13" height="13" fill="#F8F8F8"/>
<rect x="177" y="153" width="13" height="13" fill="#F8F8F8"/>
<rect x="164" y="166" width="13" height="13" fill="#F8F8F8"/>
<rect x="164" y="179" width="13" height="13" fill="#F8F8F8"/>
<rect x="164" y="192" width="13" height="13" fill="#F8F8F8"/>
<rect x="151" y="205" width="13" height="13" fill="#F8F8F8"/>
<rect x="151" y="218" width="13" height="13" fill="#F8F8F8"/>
<rect x="151" y="229" width="13" height="13" fill="#F8F8F8"/>
<rect x="138" y="242" width="13" height="13" fill="#F8F8F8"/>
<rect x="138" y="255" width="13" height="13" fill="#F8F8F8"/>
<rect x="138" y="268" width="13" height="13" fill="#F8F8F8"/>
<rect x="125" y="281" width="13" height="13" fill="#F8F8F8"/>
<rect x="125" y="294" width="13" height="13" fill="#F8F8F8"/>
<rect x="125" y="307" width="13" height="13" fill="#F8F8F8"/>
<rect x="112" y="320" width="13" height="13" fill="#F8F8F8"/>
<rect x="112" y="333" width="13" height="13" fill="#F8F8F8"/>
<rect x="112" y="346" width="13" height="13" fill="#F8F8F8"/>
<rect x="125" y="346" width="13" height="13" fill="#F8F8F8"/>
<rect x="138" y="346" width="13" height="13" fill="#F8F8F8"/>
<rect x="151" y="346" width="13" height="13" fill="#F8F8F8"/>
<rect x="164" y="346" width="13" height="13" fill="#F8F8F8"/>
<rect x="190" y="268" width="13" height="13" fill="#F8F8F8"/>
<rect x="190" y="281" width="13" height="13" fill="#F8F8F8"/>
<rect x="177" y="294" width="13" height="13" fill="#F8F8F8"/>
<rect x="177" y="307" width="13" height="13" fill="#F8F8F8"/>
<rect x="177" y="320" width="13" height="13" fill="#F8F8F8"/>
<rect x="164" y="333" width="13" height="13" fill="#F8F8F8"/>
<rect x="190" y="255" width="13" height="13" fill="#F8F8F8"/>
<rect x="203" y="229" width="13" height="13" fill="#F8F8F8"/>
<rect x="203" y="242" width="13" height="13" fill="#F8F8F8"/>
<rect x="203" y="218" width="13" height="13" fill="#F8F8F8"/>
<rect x="216" y="218" width="13" height="13" fill="#F8F8F8"/>
<rect x="216" y="205" width="13" height="13" fill="#F8F8F8"/>
<rect x="216" y="192" width="13" height="13" fill="#F8F8F8"/>
<rect x="242" y="153" width="13" height="13" fill="#F8F8F8"/>
<rect x="229" y="166" width="13" height="13" fill="#F8F8F8"/>
<rect x="229" y="179" width="13" height="13" fill="#F8F8F8"/>
<rect x="242" y="140" width="13" height="13" fill="#F8F8F8"/>
<rect x="253" y="127" width="13" height="13" fill="#F8F8F8"/>
<rect x="253" y="114" width="13" height="13" fill="#F8F8F8"/>
<rect x="266" y="101" width="13" height="13" fill="#F8F8F8"/>
<rect x="279" y="88" width="13" height="13" fill="#F8F8F8"/>
<rect x="292" y="101" width="13" height="13" fill="#F8F8F8"/>
<rect x="292" y="114" width="13" height="13" fill="#F8F8F8"/>
<rect x="305" y="127" width="13" height="13" fill="#F8F8F8"/>
<rect x="305" y="140" width="13" height="13" fill="#F8F8F8"/>
<rect x="318" y="140" width="13" height="13" fill="#F8F8F8"/>
<rect x="331" y="140" width="13" height="13" fill="#F8F8F8"/>
<rect x="331" y="127" width="13" height="13" fill="#F8F8F8"/>
<rect x="344" y="114" width="13" height="13" fill="#F8F8F8"/>
<rect x="344" y="127" width="13" height="13" fill="#F8F8F8"/>
<rect x="344" y="101" width="13" height="13" fill="#F8F8F8"/>
<rect x="344" y="88" width="13" height="13" fill="#F8F8F8"/>
<rect x="331" y="76" width="13" height="13" fill="#F8F8F8"/>
<rect x="318" y="76" width="13" height="13" fill="#F8F8F8"/>
<rect x="305" y="76" width="13" height="13" fill="#F8F8F8"/>
<rect x="292" y="76" width="13" height="13" fill="#F8F8F8"/>
<rect x="279" y="76" width="13" height="13" fill="#F8F8F8"/>
<rect x="266" y="88" width="13" height="13" fill="#F8F8F8"/>
<rect x="253" y="101" width="13" height="13" fill="#F8F8F8"/>
<rect x="242" y="114" width="13" height="13" fill="#F8F8F8"/>
<rect x="242" y="127" width="13" height="13" fill="#F8F8F8"/>
<rect x="229" y="140" width="13" height="13" fill="#F8F8F8"/>
<rect x="229" y="153" width="13" height="13" fill="#F8F8F8"/>
<rect x="216" y="179" width="13" height="13" fill="#F8F8F8"/>
<rect x="203" y="192" width="13" height="13" fill="#F8F8F8"/>
<rect x="229" y="114" width="13" height="13" fill="#F8F8F8"/>
<rect x="229" y="127" width="13" height="13" fill="#F8F8F8"/>
<rect x="216" y="140" width="13" height="13" fill="#F8F8F8"/>
<rect x="216" y="153" width="13" height="13" fill="#F8F8F8"/>
<rect x="216" y="166" width="13" height="13" fill="#F8F8F8"/>
<rect x="229" y="101" width="13" height="13" fill="#F8F8F8"/>
<rect x="216" y="76" width="13" height="13" fill="#F8F8F8"/>
<rect x="216" y="88" width="13" height="13" fill="#F8F8F8"/>
<rect x="203" y="76" width="13" height="13" fill="#F8F8F8"/>
<rect x="190" y="76" width="13" height="13" fill="#F8F8F8"/>
<rect x="164" y="76" width="13" height="13" fill="#F8F8F8"/>
<rect x="177" y="76" width="13" height="13" fill="#F8F8F8"/>
<rect x="35" y="400" width="13" height="13" fill="#F8F8F8"/>
<rect x="48" y="400" width="13" height="13" fill="#F8F8F8"/>
<rect x="61" y="400" width="13" height="13" fill="#F8F8F8"/>
<rect x="74" y="400" width="13" height="13" fill="#F8F8F8"/>
<rect x="87" y="400" width="13" height="13" fill="#F8F8F8"/>
<rect x="99" y="400" width="13" height="13" fill="#F8F8F8"/>
<rect x="112" y="400" width="13" height="13" fill="#F8F8F8"/>
<rect x="125" y="400" width="13" height="13" fill="#F8F8F8"/>
<rect x="138" y="400" width="13" height="13" fill="#F8F8F8"/>
<rect x="151" y="400" width="13" height="13" fill="#F8F8F8"/>
<rect x="164" y="400" width="13" height="13" fill="#F8F8F8"/>
<rect x="177" y="400" width="13" height="13" fill="#F8F8F8"/>
<rect x="190" y="400" width="13" height="13" fill="#F8F8F8"/>
<rect x="35" y="179" width="13" height="13" fill="#F8F8F8"/>
<rect x="48" y="190" width="28" height="13" fill="#F8F8F8"/>
<rect x="74" y="205" width="13" height="13" fill="#F8F8F8"/>
<rect x="20" y="340" width="21" height="13" fill="#F8F8F8"/>
<rect x="587" y="40" width="20" height="20" fill="#F8F8F8"/>
<rect x="547" y="40" width="20" height="20" fill="#F8F8F8"/>
<rect x="547" y="20" width="20" height="20" fill="#F8F8F8"/>
<rect x="527" y="20" width="20" height="20" fill="#F8F8F8"/>
<rect x="395" width="152" height="20" fill="#F8F8F8"/>
<rect x="147" width="211" height="20" fill="#F8F8F8"/>
<rect x="60" y="256" width="20" height="20" fill="#F8F8F8"/>
<rect y="371" width="36" height="42" fill="#F8F8F8"/>
<rect x="375" y="20" width="20" height="20" fill="#F8F8F8"/>
<rect x="355" y="20" width="20" height="20" fill="#F8F8F8"/>
<rect x="1236" y="350" width="27" height="20" fill="#F8F8F8"/>
<rect x="1239" y="363" width="24" height="20" fill="#F8F8F8"/>
<rect x="48" y="185" width="13" height="17" fill="#F8F8F8"/>
<rect x="756" y="3" width="13" height="17" fill="#F8F8F8"/>
<rect x="769" y="3" width="13" height="17" fill="#F8F8F8"/>
<rect x="782" y="3" width="13" height="17" fill="#F8F8F8"/>
<rect x="795" y="3" width="13" height="17" fill="#F8F8F8"/>
<rect x="808" y="3" width="13" height="17" fill="#F8F8F8"/>
<rect x="821" y="3" width="13" height="17" fill="#F8F8F8"/>
<rect x="834" y="3" width="13" height="17" fill="#F8F8F8"/>
<rect x="846" y="3" width="13" height="17" fill="#F8F8F8"/>
<rect x="859" y="3" width="13" height="17" fill="#F8F8F8"/>
<rect x="872" y="3" width="13" height="17" fill="#F8F8F8"/>
<rect x="1293" y="218" width="17" height="13" fill="#F8F8F8"/>
<rect x="1323" y="222" width="13" height="13" fill="#F8F8F8"/>
<rect x="1289" y="205" width="13" height="13" fill="#F8F8F8"/>
<rect x="1301" y="202" width="21" height="35" fill="#F8F8F8"/>
<rect x="1319" y="222" width="23" height="22" fill="#F8F8F8"/>
<rect x="785" y="414" width="29" height="22" fill="#F8F8F8"/>
<rect x="814" y="414" width="29" height="22" fill="#F8F8F8"/>
<rect x="843" y="414" width="29" height="22" fill="#F8F8F8"/>
<rect x="872" y="414" width="29" height="22" fill="#F8F8F8"/>
<rect x="901" y="414" width="29" height="22" fill="#F8F8F8"/>
<rect x="930" y="414" width="29" height="22" fill="#F8F8F8"/>
<rect x="957" y="414" width="29" height="22" fill="#F8F8F8"/>
<rect x="986" y="414" width="29" height="22" fill="#F8F8F8"/>
<rect x="1015" y="414" width="29" height="22" fill="#F8F8F8"/>
<rect x="1044" y="414" width="29" height="22" fill="#F8F8F8"/>
<rect x="1073" y="414" width="29" height="22" fill="#F8F8F8"/>
<rect x="1102" y="414" width="29" height="22" fill="#F8F8F8"/>
<rect x="924" y="410" width="13" height="13" fill="#F8F8F8"/>
<rect x="937" y="410" width="13" height="13" fill="#F8F8F8"/>
<rect x="950" y="410" width="13" height="13" fill="#F8F8F8"/>
<rect x="963" y="410" width="13" height="13" fill="#F8F8F8"/>
<rect x="976" y="410" width="13" height="13" fill="#F8F8F8"/>
<rect x="989" y="410" width="13" height="13" fill="#F8F8F8"/>
<rect x="1001" y="410" width="13" height="13" fill="#F8F8F8"/>
<rect x="1014" y="410" width="13" height="13" fill="#F8F8F8"/>
<rect x="1027" y="410" width="13" height="13" fill="#F8F8F8"/>
<rect x="1040" y="410" width="13" height="13" fill="#F8F8F8"/>
<rect x="1053" y="410" width="13" height="13" fill="#F8F8F8"/>
<rect x="846" y="346" width="13" height="13" fill="#F8F8F8"/>
<rect x="859" y="346" width="13" height="13" fill="#F8F8F8"/>
<rect x="872" y="346" width="13" height="13" fill="#F8F8F8"/>
<rect x="1014" y="218" width="13" height="13" fill="#F8F8F8"/>
<rect x="1001" y="229" width="13" height="13" fill="#F8F8F8"/>
<rect x="1001" y="242" width="13" height="13" fill="#F8F8F8"/>
<rect x="1001" y="255" width="13" height="13" fill="#F8F8F8"/>
<rect x="989" y="268" width="13" height="13" fill="#F8F8F8"/>
<rect x="989" y="281" width="13" height="13" fill="#F8F8F8"/>
<rect x="989" y="294" width="13" height="13" fill="#F8F8F8"/>
<rect x="976" y="307" width="13" height="13" fill="#F8F8F8"/>
<rect x="976" y="320" width="13" height="13" fill="#F8F8F8"/>
<rect x="976" y="333" width="13" height="13" fill="#F8F8F8"/>
<rect x="808" y="76" width="13" height="13" fill="#F8F8F8"/>
<rect x="795" y="88" width="13" height="13" fill="#F8F8F8"/>
<rect x="795" y="101" width="13" height="13" fill="#F8F8F8"/>
<rect x="795" y="114" width="13" height="13" fill="#F8F8F8"/>
<rect x="782" y="127" width="13" height="13" fill="#F8F8F8"/>
<rect x="782" y="140" width="13" height="13" fill="#F8F8F8"/>
<rect x="782" y="153" width="13" height="13" fill="#F8F8F8"/>
<rect x="782" y="166" width="13" height="13" fill="#F8F8F8"/>
<rect x="769" y="179" width="13" height="13" fill="#F8F8F8"/>
<rect x="769" y="192" width="13" height="13" fill="#F8F8F8"/>
<rect x="769" y="205" width="13" height="13" fill="#F8F8F8"/>
<rect x="769" y="76" width="13" height="13" fill="#F8F8F8"/>
<rect x="782" y="76" width="13" height="13" fill="#F8F8F8"/>
<rect x="795" y="76" width="13" height="13" fill="#F8F8F8"/>
<rect x="756" y="76" width="13" height="13" fill="#F8F8F8"/>
<rect x="756" y="88" width="13" height="13" fill="#F8F8F8"/>
<path fill-rule="evenodd" clip-rule="evenodd" d="M386 106C383.704 108.009 382.227 109.789 380 112C378.932 113.06 377.052 113.894 376 115C367.53 123.666 359.857 133.453 353 144C352.992 144.013 353.008 143.987 353 144C344.788 156.636 337.898 170.665 332 186C330.361 190.439 329.359 195.582 328 200C327.543 201.486 326.426 202.516 326 204C325.636 205.268 325.341 206.734 325 208C319.412 228.778 317.356 248.702 318 269C318.446 284.168 320.452 297.278 324 309C323.961 308.872 324.039 309.128 324 309C327.334 319.874 331.979 330.111 338 338C350.561 354.025 369.177 362 393 362C393.434 362 393.568 362.004 394 362C422.799 361.705 448.218 350.929 471 331C471.092 330.92 471.909 331.08 472 331C475.423 327.99 478.713 324.454 482 321C483.103 319.845 483.928 319.182 485 318C494.72 307.286 503.764 294.936 511 282C516.138 272.815 520.114 263.305 524 253C525.576 248.93 527.663 245.06 529 241C528.983 241.052 529.017 240.948 529 241C535.433 221.417 539.123 202.351 540 183C540.138 179.945 540 177.049 540 174C540 159.276 537.88 145.646 535 134C534.982 133.928 535.018 134.071 535 134C534.58 132.317 534.48 130.619 534 129C530.892 118.517 526.639 109.777 521 102C508.872 84.6758 490.689 76 466 76C465.349 76 464.648 75.9904 464 76C446.062 76.265 428.413 79.4008 413 87C403.51 91.6788 394.532 98.5408 386 106C386.013 105.989 385.987 106.011 386 106ZM415 122C411.54 128.083 408.361 134.602 405 142C404.922 142.171 404.078 142.828 404 143C399.254 153.496 394.549 164.88 390 178C389.974 178.075 390.026 177.925 390 178C389.634 179.056 389.364 180.927 389 182C386.524 189.291 384.417 196.926 382 205C381.932 205.228 382.068 204.772 382 205C381.126 207.929 379.866 210.968 379 214C373.32 233.877 368.705 251.089 366 267C365.994 267.038 366.006 266.962 366 267C363.355 282.591 362.786 296.221 363 308C363.093 311.314 362.685 315.043 363 318C362.982 317.84 363.017 318.161 363 318C365.621 341.56 376.139 354.416 393 355C393.429 355.015 393.562 355 394 355C411.326 355 427.84 341.419 443 315C446.496 308.759 449.576 301.573 453 294C452.991 294.02 453.009 293.98 453 294C460.497 277.409 467.848 257.975 475 235C475.045 234.854 474.955 234.146 475 234C475.859 231.234 477.146 228.858 478 226C483.729 206.61 488.073 189.691 491 174C493.826 158.849 495.787 145.702 496 134C496.06 129.296 495.368 124.049 495 120C494.982 119.797 495.019 120.201 495 120C492.697 96.2532 483.276 83.8476 466 83C465.361 82.9686 464.66 83 464 83C446.714 83 430.414 95.3782 416 120C415.606 120.673 415.392 121.309 415 122ZM512 382C504.062 388.775 493.53 390.891 484 395.5C469.782 402.376 455.955 410.669 441.5 415C424.798 420.004 411.607 426 393 426C377.375 426 371.599 418.758 357 414C353.798 412.956 350.116 412.292 347 411C344.204 409.84 331.217 400.366 328.5 399C312.848 391.135 315.474 392.276 303.5 377H287C269.482 354.047 260.061 326.632 256 299C244.697 327.587 235.512 354.091 228 377L215.5 384.5L214 412H28L54 338C61.1577 314.74 67.2358 311.289 82 267L87 235C89.3944 228.023 91.9268 223.034 94 217L27 175L54 122C69.674 91.6995 95.4925 70.0189 121 50C141.858 33.5505 165.097 11 199 11C216.447 11 235.871 15.4603 254 28C271.333 17.7125 292.271 11 315 11C336.323 11 359.285 17.2055 379 33C404.984 18.958 434.57 11 466 11C507.508 11 543.666 28.2063 570 65.5C572.13 68.461 578.126 69.9284 580 73C582.557 70.4571 606.353 64.9744 609 62.5C620.225 51.86 612.216 50.1636 625 42C650.453 25.7461 677.05 11 709 11C720.732 11 732.87 13.0341 744 17H886C896.907 13.3781 908.605 11 921 11C941.955 11 967.657 16.6064 988 36C1009.81 21.3829 1035.15 11 1064 11C1087.1 11 1111.15 17.9106 1130 35C1150.76 20.7648 1174.88 11 1203 11C1230.71 11 1249.86 24.2683 1270 46.5C1290.09 68.1554 1306 92.2812 1306 118C1306 126.663 1304.39 135.666 1303 144C1301.63 151.536 1299.39 160.386 1297 169V170C1294.63 178.072 1292.36 185.505 1290 192C1288.69 195.589 1286.36 202.299 1283 212L1352 249.5L1322 303.5C1314.51 316.138 1297.66 317.449 1288 328.5C1275.6 342.691 1262.37 361.171 1248.5 373.5C1220.94 397.998 1198.06 427 1158 427C1134.07 427 1108.27 418.831 1088 397C1086.61 395.505 1085.25 394.538 1084 393L1075 421H768C755.795 424.771 742.686 427 729 427C716.908 427 710.551 418.717 698 414C690.657 411.24 676.919 413.94 670 409C662.752 413.223 649.079 412.602 641 415.5C628.31 420.051 620.619 427 606 427C591.307 427 579.392 416.689 566.5 412C548.432 405.428 530.373 402.363 517 388C515.193 386.06 513.634 384.02 512 382ZM1131 305C1129.25 311.712 1127.57 317.451 1127 322C1126.72 324.202 1127 326.305 1127 328C1127 338.828 1129.37 346.937 1135 353C1140.63 359.063 1148.04 362 1158 362C1168.46 362 1178.66 359.77 1189 355C1198.36 350.68 1207.74 344.234 1217 336C1221.92 331.63 1226.44 327.755 1231 323C1231.19 322.799 1231.81 322.202 1232 322C1234.84 319.012 1237.3 316.139 1240 313C1241.14 311.681 1241.89 310.345 1243 309C1246.98 304.185 1251.34 299.157 1255 294C1259.12 288.19 1263.28 282.244 1267 276C1267.11 275.817 1266.89 275.183 1267 275L1261 272C1254.67 282.278 1247.45 291.486 1240 300C1235.21 305.478 1230.26 311.252 1225 316C1222.34 318.404 1219.54 320.073 1217 322C1214.29 324.056 1211.58 325.486 1209 327C1201.81 331.225 1195.14 334 1189 334C1185.32 334 1183.08 331.898 1182 328C1181.55 326.385 1181 324.283 1181 322C1181 321.094 1180.81 320.379 1181 319C1181.02 318.823 1181.97 318.184 1182 318C1182.3 316.051 1182.35 313.816 1183 311C1183.66 308.138 1183.97 304.758 1185 301C1185.61 298.759 1187.26 296.559 1188 294C1188.46 292.426 1188.49 290.694 1189 289C1189.9 285.976 1190.94 282.408 1192 279C1192.95 275.951 1193.93 273.356 1195 270C1195.58 268.184 1196.38 265.906 1197 264C1197.7 261.836 1198.25 259.28 1199 257C1200.88 251.286 1202.82 245.442 1205 239C1206.71 233.937 1208.11 228.512 1210 223C1210.02 222.935 1210.98 223.065 1211 223C1212.86 217.438 1214.58 210.62 1218 201C1218.57 199.4 1219.39 197.712 1220 196C1222.67 188.258 1225.32 181.78 1227 177C1228.05 174.025 1228.34 171.828 1229 170C1230.41 166.131 1232.31 161.584 1234 156C1234.39 154.709 1234.59 153.383 1235 152C1236.59 146.287 1238.11 141.085 1239 137C1239.26 135.799 1239.8 135.06 1240 134C1240.05 133.745 1239.96 133.246 1240 133C1240.87 127.803 1241 122.764 1241 118C1241 116.22 1241.15 114.685 1241 113C1240.1 102.8 1236.32 93.6909 1230 87C1223.07 79.2041 1214.26 76 1203 76C1195.37 76 1186.97 77.4236 1179 81C1172.91 83.7327 1167.29 87.1793 1161 92C1156.53 95.4296 1151.57 99.5137 1147 104C1145.02 105.937 1142.99 107.866 1141 110C1140.28 110.772 1139.72 112.202 1139 113C1138.8 113.221 1138.2 112.778 1138 113C1136.68 114.468 1136.33 116.446 1135 118C1133.53 119.719 1132.48 121.176 1131 123C1130.81 123.232 1130.19 123.766 1130 124C1126.48 128.364 1123.58 133.044 1120 138C1117.94 140.852 1115.08 143.952 1113 147C1112.99 147.008 1113.01 146.992 1113 147C1110.01 151.382 1107.02 156.213 1104 161C1096.86 172.301 1090.36 184.442 1083 198H1079C1079.19 197.397 1078.81 196.597 1079 196C1080.16 192.414 1081.94 189.354 1083 186C1090.03 163.663 1094.36 146.041 1097 134C1096.99 134.036 1097.01 133.964 1097 134C1098.57 126.818 1099 121.5 1099 118C1099 116.214 1099.11 114.679 1099 113C1098.28 102.46 1095.23 93.351 1090 87C1089.88 86.8475 1090.12 87.1495 1090 87C1087.85 84.3333 1085.78 81.7178 1083 80C1077.96 76.8905 1071.11 76 1064 76C1055.66 76 1046.98 77.9 1038 82C1030.96 85.2156 1023.44 89.2624 1016 95C1012.25 97.8968 1008.85 101.46 1005 105C1002.57 107.232 1000.42 109.467 998 112C997.794 112.215 997.206 112.782 997 113C993.824 116.351 991.166 120.132 988 124C984.289 128.534 979.698 132.756 976 138C975.997 138.004 976.003 137.996 976 138C975.714 138.405 976.286 138.591 976 139C973.848 142.085 971.148 145.674 969 149C959.9 163.093 951.019 179.588 942 198H937C937.176 197.34 937.827 196.654 938 196C939.445 190.536 940.763 185.048 942 180C948.217 154.639 952.032 134.862 953 120C952.998 120.031 953.002 119.969 953 120C953.082 118.731 952.957 117.193 953 116C953.049 114.652 953 113.25 953 112C953 100.898 950.447 92.0202 946 86C944.18 83.5368 942.564 81.6124 940 80C935.141 76.9442 928.534 76 921 76C913.288 76 905.181 78.266 896 83C890.227 85.977 883.354 89.1509 877 94C876.374 94.4778 876.621 95.5041 876 96C874.695 97.042 873.283 97.8777 872 99C871.551 99.3932 870.447 99.5969 870 100C866.492 103.165 863.341 107.227 860 111C858.537 112.652 857.431 114.232 856 116C852.769 119.994 849.068 124.412 846 129C843.332 132.991 840.544 137.559 838 142C836.236 145.079 834.704 147.705 833 151L839 155C839.141 154.781 838.859 154.218 839 154C841.791 149.678 845.353 145.821 848 142C849.033 140.51 849.989 139.414 851 138C857.214 129.306 862.615 121.809 868 116C868.458 115.506 868.548 115.473 869 115C874.058 109.705 879.693 105.681 884 103C888.418 100.25 892.372 98 896 98C903.258 98 907.143 102.905 908 112C908.115 113.218 908 114.619 908 116C908 119.05 907.427 122.281 907 126C906.766 128.035 906.362 130.764 906 133C905.854 133.903 906.167 134.064 906 135C905.401 138.352 904.867 142.228 904 146C902.809 151.182 900.697 157.026 899 163C898.572 164.508 898.461 165.441 898 167C897.237 169.581 896.851 172.28 896 175C895.158 177.69 893.928 181.175 893 184C892.809 184.525 892.354 184.996 892 186C891.732 186.761 891.362 187.964 891 189C890.147 191.441 889.374 194.031 888 198C885.58 204.992 882.035 213.266 878 225C875.511 232.237 873.103 240.96 870 250C869.889 250.322 869.112 250.675 869 251C868.401 252.744 868.621 254.189 868 256C867.404 257.787 866.583 260.249 866 262C862.779 271.679 859.832 280.403 857 289C856.832 289.511 856.167 290.493 856 291C855.849 291.46 856.15 291.543 856 292C849.766 310.951 844.286 327.46 840 341C838.192 346.711 836.461 352.251 835 357H887C893.642 337.076 903.595 308.438 917 273C916.946 273.144 917.054 272.856 917 273C917.529 271.602 918.461 270.422 919 269C919.846 266.631 921.147 264.322 922 262C927.098 248.12 931.669 234.188 937 222C938.507 218.555 940.475 216.309 942 213C943.575 209.582 945.405 206.274 947 203C947.263 202.46 946.736 202.537 947 202C947.109 201.779 947.891 201.221 948 201C947.986 201.029 948.014 200.971 948 201C953.366 190.139 958.411 180.24 964 171C964.896 169.519 966.099 167.439 967 166C972.2 157.698 977.608 149.917 983 143C985.838 139.374 988.308 136.186 991 133C997.965 124.755 1005.02 118.299 1011 113C1011.25 112.781 1010.75 112.214 1011 112C1011.04 111.968 1011.96 112.032 1012 112C1014.02 110.243 1015.09 108.415 1017 107C1024.9 101.142 1032.05 98 1038 98C1046.23 98 1051 103.472 1051 113C1051 113.738 1050.7 115.273 1050 118C1049.89 118.437 1049.13 118.512 1049 119C1048.8 119.747 1049.24 121.133 1049 122C1048.17 124.992 1046.33 128.582 1045 133C1044.92 133.265 1045.08 133.73 1045 134C1044 137.299 1043.27 140.936 1042 145C1040.96 148.325 1039.22 152.162 1038 156C1037.41 157.858 1036.63 159.022 1036 161C1035.83 161.529 1036.17 162.462 1036 163C1035.36 164.995 1034.68 166.887 1034 169C1033.77 169.721 1033.24 170.265 1033 171C1032.07 173.888 1031.01 176.899 1030 180C1029.99 180.04 1030.01 179.96 1030 180C1029.81 180.598 1030.2 181.394 1030 182C1029.32 184.103 1028.72 186.802 1028 189C1027.41 190.808 1026.61 192.127 1026 194C1024.58 198.345 1022.54 203.308 1021 208L973 357H1028C1034.06 338.376 1039.94 318.923 1046 299C1050.07 286.416 1054.22 274.03 1059 262C1064.01 249.4 1070.21 236.993 1076 225C1076.05 224.895 1075.95 224.105 1076 224C1076.94 222.056 1078.04 220.928 1079 219C1079.65 217.705 1080.35 217.287 1081 216C1081.65 214.72 1082.35 213.256 1083 212C1084.89 208.345 1086.13 204.448 1088 201C1088 201.006 1088 200.994 1088 201C1090.56 196.29 1093.48 191.324 1096 187C1100.65 179.028 1105.46 171.661 1110 165C1110.81 163.812 1111.19 163.146 1112 162C1114.53 158.398 1117.5 155.19 1120 152C1122.81 148.445 1125.29 145.232 1128 142C1130.15 139.436 1131.92 136.361 1134 134C1136.36 131.321 1137.72 129.417 1140 127C1142.9 123.932 1146.23 120.646 1149 118C1149.71 117.318 1150.3 116.654 1151 116C1151.81 115.249 1152.2 114.714 1153 114C1153.37 113.665 1153.63 113.327 1154 113C1156.87 110.475 1160.5 107.856 1163 106C1169.95 100.852 1174.86 98 1179 98C1187.66 98 1192 103.472 1192 113C1192 114.413 1192.38 115.948 1192 118C1191.75 119.314 1191.4 120.423 1191 122C1190.87 122.491 1190.14 123.484 1190 124C1189.99 124.038 1190.01 123.962 1190 124C1189.95 124.237 1190.05 124.755 1190 125C1189.97 125.154 1190.03 124.843 1190 125C1189.39 127.837 1188.11 131.168 1187 135C1186.77 135.778 1187.25 137.181 1187 138C1186.93 138.241 1186.07 137.755 1186 138C1185.76 138.801 1186.26 140.161 1186 141C1185.42 142.868 1184.58 144.195 1184 146C1183.29 148.207 1182.71 150.887 1182 153C1181.13 155.569 1179.87 157.57 1179 160C1178.69 160.863 1178.33 162.067 1178 163C1177.35 164.811 1176.75 166.925 1176 169C1174.88 172.099 1173.34 175.312 1172 179C1171.94 179.173 1172.06 179.825 1172 180C1171.51 181.348 1171.52 182.574 1171 184C1170.12 186.41 1168.79 188.784 1168 191C1167.97 191.073 1168.03 190.927 1168 191C1167.43 192.607 1166.53 194.495 1166 196C1164.43 200.435 1163.18 204.457 1162 208C1161.97 208.082 1162.03 207.919 1162 208C1161.98 208.064 1162.02 207.935 1162 208C1159.4 215.366 1156.15 225.974 1151 241C1145.8 256.159 1141.03 267.338 1138 276C1134.97 284.662 1133.6 294.605 1131 305ZM812 81H767L750 116H748C747.967 115.77 748.035 115.228 748 115C746.7 106.451 744.922 99.1455 741 93C739.504 90.6564 736.877 88.9941 735 87C728.503 79.6372 719.829 76 709 76C704.945 76 701.045 75.4184 697 76C674.69 79.2076 654 92.1021 632 113C630.901 114.025 629.079 114.961 628 116C627.988 116.012 628.012 115.988 628 116C618.777 124.884 610.809 134.098 603 144C595.543 153.455 588.168 163.617 582 174C577.515 181.551 573.804 188.959 570 197C568.723 199.701 567.17 202.349 566 205C556.862 225.713 550.569 244.29 548 262C547.989 262.077 548.011 261.923 548 262C547.017 268.845 547 275.604 547 282C547 287.738 547.514 293.91 548 299C549.244 312.034 551.571 322.213 556 331C558.328 335.618 561.792 340.555 565 344C576.695 356.56 589.974 362 606 362C612.017 362 617.889 361.084 624 359C627.032 357.966 630.945 356.547 634 355C643.407 350.236 652.372 343.627 662 334C665.008 330.992 668.145 327.257 671 324C672.586 322.19 674.461 320.887 676 319C676.899 317.897 677.117 316.129 678 315C685.809 305.017 692.456 294.039 699 282H700C699.943 282.205 700.057 282.796 700 283C699.609 284.407 699.361 285.669 699 287C695.006 301.724 693.311 311.483 693 317C692.974 317.466 693 318.6 693 319C693 339.98 699.321 353.189 712 359C715.296 360.511 718.847 361.514 723 362C724.968 362.23 726.84 362 729 362C737.689 362 746.364 360.56 755 357C759.911 354.976 765.107 352.175 770 349C774.038 346.38 777.974 343.404 782 340C789.256 333.866 796.782 326.679 804 318C804.119 317.857 803.881 317.144 804 317C804.803 316.029 805.197 316.002 806 315C806.288 314.641 806.712 313.363 807 313C815.511 302.252 824.541 290.294 833 276C833.123 275.793 832.877 275.208 833 275L827 272C822.031 279.868 816.811 286.637 812 293C809.256 296.63 806.693 299.86 804 303C799.39 308.375 794.459 313.059 790 317C785.383 321.081 780.455 324.457 776 327C768.635 331.204 761.923 334 755 334C750.995 334 748.153 332.315 746 330C743.866 327.706 742.315 324.569 742 320C741.974 319.616 742.014 319.4 742 319C741.986 318.576 742 317.442 742 317C742 313.986 742.32 310.47 743 306C743.148 305.025 742.819 304.044 743 303C743.414 300.606 744.416 297.758 745 295C744.988 295.054 745.011 294.946 745 295C744.967 295.153 745.032 294.848 745 295C745.735 291.569 747.007 287.983 748 284C749.101 279.584 750.583 274.095 752 269C752.567 266.962 752.382 265.146 753 263C756.76 249.932 761.361 236.094 767 219C767.623 217.112 768.354 214.937 769 213L812 81ZM731 181C729.526 186.628 727.927 191.704 726 198C725.98 198.065 726.02 198.934 726 199C725.994 199.022 726.006 198.978 726 199C724.009 205.853 721.216 212.542 719 219C713.387 235.352 707.06 249.181 700 263C699.57 263.843 699.436 265.167 699 266C698.356 267.231 697.656 267.79 697 269C695.296 272.124 694.762 275.051 693 278C692.738 278.438 692.263 279.566 692 280C688.129 286.39 684.149 292.444 680 298C674.75 305.031 669.696 311.305 664 317C663.335 317.665 662.658 318.365 662 319C659.438 321.472 656.455 323.983 654 326C645.414 333.055 637.275 336.514 630 338C628.059 338.396 625.848 339 624 339C615.878 339 610.006 335.897 606 329C603.275 324.307 601.82 317.885 601 310C600.647 306.607 600 302.985 600 299C600 294.386 601.183 288.214 602 282C604.097 266.049 608.519 245.493 616 219C615.977 219.08 616.023 218.92 616 219C625.999 183.646 637.8 154.75 651 133C650.955 133.074 651.045 132.926 651 133C651.459 132.246 651.537 131.738 652 131C665.846 108.848 679.373 94.416 693 88C698.556 85.384 703.48 84 709 84C716.906 84 723.374 87.0381 728 93C727.938 92.9176 728.063 93.0813 728 93C730.978 96.9278 733.408 102.554 735 109C734.987 108.945 735.013 109.055 735 109C735.646 111.644 736.585 114.935 737 118C737.743 123.49 738 129.16 738 136C738 147.233 735.789 162.709 731 181ZM155 95C153.213 96.4006 151.749 98.4433 150 100C144.685 104.73 139.967 109.828 135 116C134.235 116.95 132.757 118.016 132 119C129.451 122.317 127.456 125.295 125 129C123.125 131.829 120.821 134.944 119 138C116.467 142.251 114.427 147.311 112 152C111.99 152.019 112.01 151.981 112 152L117 155C116.91 155.14 117.09 154.859 117 155C120.965 148.814 125.312 143.151 129 138C135.188 129.358 140.591 121.728 146 116C151.51 110.164 156.299 105.811 161 103C161.01 102.994 161.99 103.006 162 103C166.359 100.398 170.337 99 174 99C181.555 99 185.034 103.436 186 112C185.995 111.951 186.006 112.049 186 112C186.131 113.214 187 114.616 187 116C187 121.437 185.738 126.899 185 133C184.99 133.08 185.01 133.92 185 134C184.936 134.524 185.07 134.471 185 135C184.962 135.292 185.04 135.706 185 136C183.848 144.436 182.519 153.333 180 163C179.954 163.176 179.046 163.823 179 164C177.546 169.536 175.9 175.063 174 181C173.717 181.884 174.293 183.107 174 184C173.782 184.6 173.431 184.774 173 186C172.693 186.873 172.415 188.809 172 190C168.652 199.594 161.37 217.793 151 248C150.988 248.036 151.012 247.964 151 248C150.136 250.518 148.913 253.339 148 256C147.404 257.787 146.583 260.249 146 262C142.414 272.776 139.104 282.565 136 292C129.701 311.15 124.31 327.375 120 341C118.246 346.546 117.425 352.37 116 357H167C175.198 331.999 185.923 303.431 198 273C197.944 273.142 198.056 272.858 198 273C198.63 271.414 199.36 269.6 200 268C200.866 265.848 201.15 264.106 202 262C206.822 250.048 211.709 238.481 216 228C217.551 224.212 218.519 221.596 220 218C222.107 212.885 225.033 207.727 227 203C227.232 202.443 226.77 201.552 227 201C226.97 201.072 227.03 200.928 227 201C227.062 200.851 227.938 201.148 228 201C235.395 183.261 241.637 168.112 247 156C247.357 155.193 247.652 153.782 248 153C248.773 151.265 248.272 149.612 249 148C250.817 143.978 252.459 140.256 254 137C254.867 135.168 256.221 133.59 257 132C257.918 130.2 258.088 128.654 259 127C259.709 125.716 260.295 124.196 261 123C263.55 118.675 266.496 115.167 269 112C269.352 111.555 269.649 111.422 270 111C271.234 109.516 272.777 108.202 274 107C273.973 107.027 274.027 106.973 274 107C279.172 101.943 284.026 99 289 99C289.56 99.0701 290.451 99.7486 291 100C292.122 100.514 292.925 100.73 294 102C295.532 103.811 297.564 106.652 299 110C299.112 110.261 298.889 110.73 299 111C299 111.464 298.969 111.598 299 112C299.085 113.098 299.683 114.366 300 115C300.793 118.489 300.902 121.15 302 124C302.237 124.615 302.749 125.414 303 126C304.53 129.567 306.942 132.538 309 135C310.753 137.098 311.864 138.704 314 140C314.388 140.236 315.599 140.791 316 141C316.536 141.28 316.441 141.768 317 142C319.738 143.138 322.719 143 326 143C329.055 143 332.366 143.01 335 142C338.341 140.719 341.336 137.906 344 135C349.198 129.37 352 121.961 352 112C352 111.563 352.01 111.43 352 111C351.945 108.737 351.344 106.064 351 104C350.931 103.585 351.081 103.407 351 103C350.137 98.6581 348.194 94.4268 346 91C345.99 90.9847 346.01 91.0153 346 91C344.616 88.8475 342.91 86.7906 341 85C338.493 82.4931 336.217 80.5395 333 79C330.43 77.7701 327.022 76.6125 324 76C321.001 75.3923 318.444 76 315 76C306.904 76 298.286 77.4893 291 81C290.78 81.1061 291.22 80.8907 291 81C290.463 81.2677 289.533 81.7131 289 82C281.156 86.2226 273.883 92.6123 267 101C264.648 103.793 262.464 107.296 260 111C259.716 111.427 259.286 111.561 259 112C256.373 116.039 253.753 120.938 251 126C250.673 126.601 250.329 127.384 250 128C249.829 128.32 249.171 128.676 249 129C248.98 129.038 249.02 128.962 249 129C248.441 130.058 249.564 130.9 249 132C247.453 135.015 245.586 137.673 244 141C243.674 141.683 243.327 142.304 243 143C242.781 143.465 242.219 144.529 242 145C235.122 159.771 227.59 177.454 220 198H216C215.963 198.137 216.037 197.863 216 198C216.1 197.626 215.901 196.372 216 196C217.496 190.367 218.735 185.232 220 180C226.003 155.166 230.197 134.791 231 119C230.992 119.17 231.009 118.828 231 119C231.042 118.126 230.975 116.846 231 116C231.04 114.666 231 113.264 231 112C231 94.6392 225.874 83.934 215 79C212.53 77.8791 209.032 76.4796 206 76C203.733 75.6414 201.581 76 199 76C191.288 76 183.181 78.1028 174 83C168.227 86.0796 161.355 89.9837 155 95Z" fill="#F8F8F8"/>
<path d="M342 109C342 118.956 339.194 127.373 334 133C329.239 138.195 322.926 141 316 141C302.582 141 295.329 131.047 291 112C290.567 111.134 290 109.732 290 108C286.97 100.641 283.463 96.4329 280 96C269.612 96 259.254 107.923 248 130C237.179 152.077 217.703 197.172 190 266C177.014 298.466 165.657 327.594 157 354H106C112.926 331.49 123.283 298.154 138 254C153.15 209.846 162.269 185.762 164 181C172.657 154.594 177 131.614 177 113C177 101.745 172.657 96 164 96C150.149 96 130.807 114.772 107 152L102 149C114.986 123.893 129.984 105.554 146 93C162.448 80.0136 176.447 73 189 73C210.21 73 221 84.7587 221 109C221 128.913 215.956 157.772 206 195H211C228.747 146.95 244.149 114.449 258 98C271.851 81.1176 287.253 73 305 73C316.254 73 324.507 76.5068 331 83C337.926 89.4932 342 97.7451 342 109Z" fill="#00141F"/>
<path d="M530 171C530 197.406 524.388 224.161 514 251C504.044 277.406 490.18 299.953 472 319C446.462 345.839 416.762 359 383 359C359.193 359 340.553 351.017 328 335C315.447 318.551 308.866 295.436 308 266C307.134 238.729 311.612 212.137 322 184C332.821 155.863 348.387 132.047 367 113C392.105 86.5943 421.805 73 456 73C480.673 73 498.88 81.6848 511 99C523.553 116.315 530 140.265 530 171ZM486 131C486.433 97.2353 475.643 80 454 80C436.253 80 419.717 93.0271 405 119C392.447 141.077 380.254 172.608 369 212C357.746 251.392 352.567 282.192 353 306C353.866 336.735 364.089 352 384 352C401.314 352 417.85 338.406 433 312C445.12 290.356 456.746 260.661 468 223C479.254 184.906 485.567 154.808 486 131Z" fill="#00141F"/>
<path d="M823 273C788.805 331.006 754.061 360 719 360C694.76 360 683 345.003 683 316C683 310.373 684.806 298.614 690 280H689C678.179 299.913 666.284 316.715 652 331C632.955 350.047 614.18 360 596 360C579.984 360 566.687 353.554 555 341C543.313 328.446 537 308.137 537 280C537 254.893 544.85 227.033 560 195C575.15 162.967 596.029 134.241 622 110C647.971 85.3258 673.596 73 700 73C710.821 73 719.507 76.641 726 84C732.926 91.359 737.269 100.879 739 113H740L757 79H802L759 210C740.82 264.543 732 299.416 732 315C732 325.822 736.343 331 745 331C766.643 331 791.029 310.124 817 269L823 273ZM728 134C728 99.3695 719.045 81 700 81C680.955 81 662.478 96.8326 643 128C629.149 150.077 616.388 180.205 606 217C595.612 253.795 590 279.551 590 296C590 322.839 598.984 337 615 337C626.254 337 639.283 328.718 654 314C666.553 301.446 676.612 286.047 687 267C698.254 246.222 708.209 222.839 716 196C724.224 169.161 728 148.718 728 134Z" fill="#00141F"/>
<path d="M1257 273C1243.15 296.376 1226.48 316.685 1207 334C1187.52 351.315 1167.91 360 1148 360C1138.04 360 1129.63 357.06 1124 351C1118.37 344.94 1116 335.822 1116 325C1116 319.805 1117.4 312.956 1120 303C1122.6 292.611 1124.97 282.658 1128 274C1131.03 265.342 1134.81 253.151 1140 238C1145.19 222.849 1149.4 212.359 1152 205C1154.16 198.507 1157.54 190.523 1161 181C1164.46 171.477 1166.84 164.06 1169 158C1171.16 151.94 1173.84 144.926 1176 138C1178.16 131.074 1179.13 125.329 1180 121C1181.3 116.238 1182 112.597 1182 110C1182 100.477 1177.66 96 1169 96C1163.37 96 1154.82 100.477 1144 110C1133.18 119.523 1121.99 132.551 1109 149C1096.45 165.017 1083.42 186.594 1070 213C1056.58 239.406 1045.52 266.564 1036 296C1029.94 315.913 1024.06 335.386 1018 354H963L1011 205C1030.48 145.695 1041 113.896 1041 110C1041 100.477 1036.22 96 1028 96C1014.58 96 996.374 111.131 973 141C950.059 170.436 928.478 211.457 909 266C894.716 303.661 883.926 333.222 877 354H825C831.926 331.49 843.283 298.154 858 254C873.15 209.846 881.269 185.762 883 181C892.956 150.698 898 127.718 898 113C898 101.312 894.224 96 886 96C872.582 96 853.24 114.339 829 152L823 149C835.986 123.893 850.552 104.554 867 92C883.448 79.4465 898.447 73 911 73C932.21 73 943 84.7587 943 109C943 127.181 937.388 156.041 927 195H932C952.777 152.578 973.79 121.48 995 102C1016.21 82.5204 1035.82 73 1054 73C1065.25 73 1072.94 77.2081 1079 85C1085.06 92.359 1088 102.014 1088 115C1088 125.389 1081.85 152.145 1068 195H1071C1115.15 113.618 1156.64 73 1193 73C1204.25 73 1213.07 77.2081 1220 85C1227.36 92.7919 1231 102.446 1231 115C1231 119.762 1230.87 124.805 1230 130C1229.13 134.762 1227.16 141.208 1225 149C1222.84 156.359 1220.73 162.238 1219 167C1217.27 171.762 1214.33 181.446 1210 194C1205.67 206.121 1202.16 214.507 1200 221C1180.52 277.707 1171 310.91 1171 320C1171 327.792 1173.81 331 1179 331C1189.39 331 1201.58 325.121 1215 313C1228.42 300.879 1239.61 285.882 1250 269L1257 273Z" fill="#00141F"/>
<path d="M342 109C342 118.956 339.194 127.373 334 133C329.239 138.195 322.926 141 316 141C302.582 141 295.329 131.047 291 112C290.567 111.134 290 109.732 290 108C286.97 100.641 283.463 96.4329 280 96C269.612 96 259.254 107.923 248 130C237.179 152.077 217.703 197.172 190 266C177.014 298.466 165.657 327.594 157 354H106C112.926 331.49 123.283 298.154 138 254C153.15 209.846 162.269 185.762 164 181C172.657 154.594 177 131.614 177 113C177 101.745 172.657 96 164 96C150.149 96 130.807 114.772 107 152L102 149C114.986 123.893 129.984 105.554 146 93C162.448 80.0136 176.447 73 189 73C210.21 73 221 84.7587 221 109C221 128.913 215.956 157.772 206 195H211C228.747 146.95 244.149 114.449 258 98C271.851 81.1176 287.253 73 305 73C316.254 73 324.507 76.5068 331 83C337.926 89.4932 342 97.7451 342 109Z" stroke="#00141F" stroke-width="30"/>
<path d="M530 171C530 197.406 524.388 224.161 514 251C504.044 277.406 490.18 299.953 472 319C446.462 345.839 416.762 359 383 359C359.193 359 340.553 351.017 328 335C315.447 318.551 308.866 295.436 308 266C307.134 238.729 311.612 212.137 322 184C332.821 155.863 348.387 132.047 367 113C392.105 86.5943 421.805 73 456 73C480.673 73 498.88 81.6848 511 99C523.553 116.315 530 140.265 530 171ZM486 131C486.433 97.2353 475.643 80 454 80C436.253 80 419.717 93.0271 405 119C392.447 141.077 380.254 172.608 369 212C357.746 251.392 352.567 282.192 353 306C353.866 336.735 364.089 352 384 352C401.314 352 417.85 338.406 433 312C445.12 290.356 456.746 260.661 468 223C479.254 184.906 485.567 154.808 486 131Z" stroke="#00141F" stroke-width="30"/>
<path d="M823 273C788.805 331.006 754.061 360 719 360C694.76 360 683 345.003 683 316C683 310.373 684.806 298.614 690 280H689C678.179 299.913 666.284 316.715 652 331C632.955 350.047 614.18 360 596 360C579.984 360 566.687 353.554 555 341C543.313 328.446 537 308.137 537 280C537 254.893 544.85 227.033 560 195C575.15 162.967 596.029 134.241 622 110C647.971 85.3258 673.596 73 700 73C710.821 73 719.507 76.641 726 84C732.926 91.359 737.269 100.879 739 113H740L757 79H802L759 210C740.82 264.543 732 299.416 732 315C732 325.822 736.343 331 745 331C766.643 331 791.029 310.124 817 269L823 273ZM728 134C728 99.3695 719.045 81 700 81C680.955 81 662.478 96.8326 643 128C629.149 150.077 616.388 180.205 606 217C595.612 253.795 590 279.551 590 296C590 322.839 598.984 337 615 337C626.254 337 639.283 328.718 654 314C666.553 301.446 676.612 286.047 687 267C698.254 246.222 708.209 222.839 716 196C724.224 169.161 728 148.718 728 134Z" stroke="#00141F" stroke-width="30"/>
<path d="M1257 273C1243.15 296.376 1226.48 316.685 1207 334C1187.52 351.315 1167.91 360 1148 360C1138.04 360 1129.63 357.06 1124 351C1118.37 344.94 1116 335.822 1116 325C1116 319.805 1117.4 312.956 1120 303C1122.6 292.611 1124.97 282.658 1128 274C1131.03 265.342 1134.81 253.151 1140 238C1145.19 222.849 1149.4 212.359 1152 205C1154.16 198.507 1157.54 190.523 1161 181C1164.46 171.477 1166.84 164.06 1169 158C1171.16 151.94 1173.84 144.926 1176 138C1178.16 131.074 1179.13 125.329 1180 121C1181.3 116.238 1182 112.597 1182 110C1182 100.477 1177.66 96 1169 96C1163.37 96 1154.82 100.477 1144 110C1133.18 119.523 1121.99 132.551 1109 149C1096.45 165.017 1083.42 186.594 1070 213C1056.58 239.406 1045.52 266.564 1036 296C1029.94 315.913 1024.06 335.386 1018 354H963L1011 205C1030.48 145.695 1041 113.896 1041 110C1041 100.477 1036.22 96 1028 96C1014.58 96 996.374 111.131 973 141C950.059 170.436 928.478 211.457 909 266C894.716 303.661 883.926 333.222 877 354H825C831.926 331.49 843.283 298.154 858 254C873.15 209.846 881.269 185.762 883 181C892.956 150.698 898 127.718 898 113C898 101.312 894.224 96 886 96C872.582 96 853.24 114.339 829 152L823 149C835.986 123.893 850.552 104.554 867 92C883.448 79.4465 898.447 73 911 73C932.21 73 943 84.7587 943 109C943 127.181 937.388 156.041 927 195H932C952.777 152.578 973.79 121.48 995 102C1016.21 82.5204 1035.82 73 1054 73C1065.25 73 1072.94 77.2081 1079 85C1085.06 92.359 1088 102.014 1088 115C1088 125.389 1081.85 152.145 1068 195H1071C1115.15 113.618 1156.64 73 1193 73C1204.25 73 1213.07 77.2081 1220 85C1227.36 92.7919 1231 102.446 1231 115C1231 119.762 1230.87 124.805 1230 130C1229.13 134.762 1227.16 141.208 1225 149C1222.84 156.359 1220.73 162.238 1219 167C1217.27 171.762 1214.33 181.446 1210 194C1205.67 206.121 1202.16 214.507 1200 221C1180.52 277.707 1171 310.91 1171 320C1171 327.792 1173.81 331 1179 331C1189.39 331 1201.58 325.121 1215 313C1228.42 300.879 1239.61 285.882 1250 269L1257 273Z" stroke="#00141F" stroke-width="30"/>
</svg>
